<svg width="32" height="32" viewBox="0 0 32 32" fill="none" xmlns="http://www.w3.org/2000/svg">
<path fill-rule="evenodd" clip-rule="evenodd" d="M4.07918 1.88184C4.05565 0.813599 3.29176 0 2.05136 0C0.810944 0 0 0.813599 0 1.88184C0 2.92786 0.786972 3.76489 2.00429 3.76489H2.02747C3.29176 3.76489 4.07918 2.92786 4.07918 1.88184ZM3.84036 5.25195H0.214417V16.1465H3.84036V5.25195ZM12.7421 4.99609C15.1281 4.99609 16.9169 6.55347 16.9169 9.89978L16.9168 16.1464H13.291V10.3179C13.291 8.85388 12.7663 7.85486 11.4537 7.85486C10.4519 7.85486 9.85526 8.52832 9.5932 9.17883C9.49733 9.41187 9.4738 9.73669 9.4738 10.0623V16.1467H5.84741C5.84741 16.1467 5.8952 6.27454 5.84741 5.2522H9.4738V6.79529C9.95505 6.05347 10.817 4.99609 12.7421 4.99609Z" transform="translate(7.46666 8)" fill="#222222"/>
</svg>
