<svg width="32" height="32" viewBox="0 0 32 32" fill="none" xmlns="http://www.w3.org/2000/svg">
<g id="logos/creative-cloud">
<g id="creative-cloud">
<path id="Vector" d="M32 11.4649V12.5362C31.99 12.5943 31.9773 12.6513 31.9708 12.7092C31.9162 13.1752 31.881 13.6442 31.8056 14.1067C31.5596 15.61 31.0279 17.0072 30.2378 18.2992C29.0378 20.2607 27.4157 21.7565 25.3772 22.7779C24.2006 23.3703 22.9321 23.7509 21.6278 23.903C21.3381 23.9371 21.0486 23.9676 20.7589 24H9.51704C9.46041 23.9893 9.40405 23.9721 9.3469 23.9687C8.21333 23.8961 7.1227 23.6334 6.08316 23.1708C3.81998 22.1638 2.13254 20.5317 1.02795 18.2852C0.53985 17.2943 0.223973 16.2251 0.0942881 15.1247C0.0624198 14.8571 0.0313416 14.5898 0 14.3225V13.2831C0.0107984 13.2256 0.0273909 13.168 0.0308148 13.1101C0.0895473 12.1114 0.291029 11.1416 0.645794 10.2096C1.60053 7.70174 3.26479 5.84172 5.62989 4.63786C6.85695 4.01303 8.16487 3.68469 9.53284 3.61184C10.2026 3.57649 10.8718 3.61452 11.5376 3.70531C11.598 3.71361 11.6849 3.68629 11.7267 3.64264C12.6841 2.64822 13.7742 1.84047 15.0034 1.22823C16.1957 0.634469 17.4504 0.251752 18.7712 0.0985582C19.082 0.0624024 19.3936 0.0326742 19.7049 0H20.6633C20.726 0.00990939 20.7889 0.0211579 20.8516 0.0286569C21.3265 0.0848993 21.804 0.120252 22.2744 0.20033C23.7419 0.450743 25.108 0.986386 26.3722 1.78208C28.3107 3.00228 29.7879 4.65393 30.7972 6.73329C31.3809 7.93027 31.7556 9.22126 31.9047 10.5487C31.9389 10.8543 31.9681 11.1598 32 11.4649ZM14.1077 4.53288C14.1269 4.55859 14.1316 4.57064 14.1398 4.57466C14.798 4.90455 15.427 5.29137 16.02 5.73084C16.0574 5.75843 16.1501 5.74691 16.1954 5.71798C17.8252 4.66786 19.5919 4.30549 21.4898 4.64777C23.3495 4.98308 24.8628 5.92796 26.019 7.43713C27.3283 9.14503 27.8274 11.0763 27.466 13.225C27.2237 14.6651 26.6564 15.9571 25.6922 17.0393C23.9328 19.0124 21.7297 19.8284 19.1363 19.4829C17.5397 19.2703 16.1614 18.5699 15.0208 17.3977C13.5567 15.8939 12.0831 14.3999 10.6148 12.9001C10.4191 12.7004 10.2013 12.5397 9.91947 12.5046C9.42723 12.4432 8.98054 12.6931 8.768 13.1428C8.57837 13.5443 8.60286 13.9969 9.01426 14.4082C10.6511 16.0422 12.2735 17.6912 13.9085 19.3268C14.1884 19.6081 14.4885 19.8678 14.8064 20.1037C16.0008 20.9857 17.3474 21.4734 18.8057 21.6697C19.9504 21.8234 21.086 21.7905 22.213 21.5328C24.3627 21.0419 26.1433 19.9262 27.5458 18.2046C28.7039 16.7819 29.4042 15.1472 29.6483 13.3118C29.7898 12.2652 29.7603 11.202 29.5609 10.1652C29.2356 8.46985 28.5303 6.95291 27.4002 5.66174C25.2439 3.19966 22.5312 2.10052 19.303 2.34585C18.0612 2.44012 16.8865 2.81105 15.7811 3.39946C15.1846 3.7146 14.6235 4.09463 14.1077 4.53288V4.53288ZM13.3178 21.7206C13.2734 21.6787 13.2291 21.6367 13.1851 21.5944C12.5158 20.9519 11.8429 20.3134 11.1816 19.6626C11.0536 19.5368 10.9358 19.4754 10.7546 19.4797C10.0849 19.4963 9.41458 19.4993 8.75457 19.3477C5.47292 18.593 3.56741 14.9648 4.77682 11.7724C5.73077 9.2551 8.37162 7.72209 10.9759 8.1948C12.1431 8.40664 13.1677 8.90907 14.0086 9.79101C15.0342 10.8677 16.0903 11.9135 17.127 12.9792C17.363 13.2218 17.634 13.3324 17.9608 13.285C18.3833 13.2237 18.7196 13.0191 18.8724 12.5978C19.022 12.1832 18.9495 11.7906 18.6409 11.4727C17.5529 10.3518 16.4907 9.20288 15.3587 8.12972C13.1632 6.0474 10.5742 5.4282 7.71081 6.31362C3.85949 7.50355 1.60553 11.5476 2.48547 15.5382C3.28744 19.1741 6.41449 21.7259 10.0735 21.7291C11.0952 21.7302 12.1171 21.7297 13.1387 21.7291C13.1893 21.7291 13.2398 21.7246 13.3178 21.7206Z" transform="translate(0 4)" fill="#DA1F26"/>
</g>
</g>
</svg>
