<svg width="64" height="64" viewBox="0 0 64 64" fill="none" xmlns="http://www.w3.org/2000/svg">
<g id="logos/creative-cloud">
<g id="creative-cloud">
<path id="Vector" d="M64 22.9298V25.0724C63.98 25.1886 63.9547 25.3027 63.9415 25.4184C63.8325 26.3504 63.7619 27.2883 63.6113 28.2134C63.1193 31.2199 62.0558 34.0144 60.4755 36.5983C58.0757 40.5214 54.8314 43.5129 50.7544 45.5559C48.4013 46.7406 45.8642 47.5019 43.2556 47.8061C42.6761 47.8741 42.0973 47.9352 41.5178 48H19.0341C18.9208 47.9786 18.8081 47.9443 18.6938 47.9373C16.4267 47.7922 14.2454 47.2667 12.1663 46.3417C7.63997 44.3276 4.26509 41.0634 2.0559 36.5705C1.0797 34.5887 0.447947 32.4501 0.188576 30.2493C0.12484 29.7142 0.0626831 29.1797 0 28.6451V26.5663C0.0215967 26.4511 0.0547819 26.3359 0.0616296 26.2202C0.179095 24.2228 0.582058 22.2833 1.29159 20.4192C3.20105 15.4035 6.52958 11.6834 11.2598 9.27572C13.7139 8.02607 16.3297 7.36937 19.0657 7.22368C20.4052 7.15297 21.7437 7.22903 23.0753 7.41061C23.1959 7.42722 23.3697 7.37258 23.4535 7.28527C25.3682 5.29643 27.5484 3.68094 30.0068 2.45646C32.3914 1.26894 34.9008 0.503504 37.5425 0.197116C38.164 0.124805 38.7872 0.0653484 39.4098 0H41.3266C41.452 0.0198188 41.5779 0.0423158 41.7032 0.0573137C42.653 0.169799 43.608 0.240504 44.5487 0.400661C47.4838 0.901486 50.216 1.97277 52.7444 3.56417C56.6213 6.00455 59.5758 9.30786 61.5943 13.4666C62.7617 15.8605 63.5112 18.4425 63.8093 21.0974C63.8778 21.7085 63.9363 22.3197 64 22.9298ZM28.2153 9.06575C28.2538 9.11717 28.2632 9.14128 28.2796 9.14931C29.5959 9.8091 30.854 10.5827 32.04 11.4617C32.1148 11.5169 32.3002 11.4938 32.3908 11.436C35.6504 9.33571 39.1838 8.61099 42.9796 9.29554C46.6989 9.96617 49.7256 11.8559 52.0381 14.8743C54.6565 18.2901 55.6547 22.1526 54.932 26.45C54.4474 29.3302 53.3128 31.9141 51.3844 34.0787C47.8657 38.0247 43.4594 39.6568 38.2725 38.9659C35.0794 38.5406 32.3229 37.1398 30.0415 34.7953C27.1134 31.7877 24.1662 28.7999 21.2296 25.8003C20.8382 25.4007 20.4026 25.0793 19.8389 25.0091C18.8545 24.8865 17.9611 25.3862 17.536 26.2856C17.1567 27.0885 17.2057 27.9938 18.0285 28.8165C21.3023 32.0845 24.547 35.3824 27.8171 38.6536C28.3768 39.2163 28.977 39.7357 29.6128 40.2075C32.0016 41.9713 34.6948 42.9467 37.6115 43.3394C39.9007 43.6468 42.172 43.581 44.426 43.0657C48.7253 42.0838 52.2867 39.8523 55.0916 36.4092C57.4077 33.5639 58.8084 30.2943 59.2967 26.6236C59.5796 24.5303 59.5205 22.404 59.1218 20.3303C58.4712 16.9397 57.0606 13.9058 54.8003 11.3235C50.4878 6.39932 45.0623 4.20104 38.606 4.69169C36.1223 4.88024 33.773 5.6221 31.5623 6.79891C30.3693 7.42921 29.2471 8.18927 28.2153 9.06575V9.06575ZM26.6356 43.4411C26.5467 43.3574 26.4582 43.2733 26.3701 43.1889C25.0316 41.9039 23.6858 40.6269 22.3631 39.3253C22.1071 39.0735 21.8717 38.9509 21.5093 38.9594C20.1697 38.9926 18.8292 38.9985 17.5091 38.6954C10.9458 37.1859 7.13481 29.9296 9.55365 23.5447C11.4615 18.5102 16.7432 15.4442 21.9517 16.3896C24.2863 16.8133 26.3353 17.8181 28.0173 19.582C30.0684 21.7353 32.1807 23.827 34.254 25.9583C34.7259 26.4436 35.268 26.6648 35.9216 26.57C36.7666 26.4474 37.4392 26.0381 37.7447 25.1956C38.0439 24.3664 37.8991 23.5811 37.2817 22.9453C35.1057 20.7037 32.9813 18.4058 30.7174 16.2594C26.3264 12.0948 21.1484 10.8564 15.4216 12.6272C7.71898 15.0071 3.21106 23.0953 4.97093 31.0764C6.57488 38.3483 12.829 43.4519 20.1471 43.4583C22.1904 43.4604 24.2341 43.4594 26.2774 43.4583C26.3785 43.4583 26.4797 43.4492 26.6356 43.4411Z" transform="translate(0 8)" fill="#DA1F26"/>
</g>
</g>
</svg>
