<svg width="32" height="32" viewBox="0 0 32 32" fill="none" xmlns="http://www.w3.org/2000/svg">
<g id="logos/figma">
<g id="figma">
<path id="path0 fill" d="M5.75 10.6667C8.924 10.6667 11.5 8.27733 11.5 5.33333V0H5.75C2.576 0 0 2.38933 0 5.33333C0 8.27733 2.576 10.6667 5.75 10.6667Z" transform="translate(5.5 21.3333)" fill="#0ACF83"/>
<path id="path1 fill" d="M0 5.33333C0 2.38933 2.576 0 5.75 0H11.5V10.6667H5.75C2.576 10.6667 0 8.27733 0 5.33333Z" transform="translate(5.5 10.6667)" fill="#A259FF"/>
<path id="path1 fill 1" d="M0 5.33333C0 2.38933 2.576 0 5.75 0H11.5V10.6667H5.75C2.576 10.6667 0 8.27733 0 5.33333Z" transform="translate(5.5)" fill="#F24E1E"/>
<path id="path2 fill" d="M0 0H5.75C8.924 0 11.5 2.38933 11.5 5.33333C11.5 8.27733 8.924 10.6667 5.75 10.6667H0V0Z" transform="translate(17)" fill="#FF7262"/>
<path id="path3 fill" d="M11.5 5.33333C11.5 8.27733 8.924 10.6667 5.75 10.6667C2.576 10.6667 0 8.27733 0 5.33333C0 2.38933 2.576 0 5.75 0C8.924 0 11.5 2.38933 11.5 5.33333Z" transform="translate(17 10.6667)" fill="#1ABCFE"/>
</g>
</g>
</svg>
