<svg width="64" height="64" viewBox="0 0 64 64" fill="none" xmlns="http://www.w3.org/2000/svg">
<g id="logos/gatsby">
<g id="gatsby">
<path id="Vector" d="M32 0C14.3269 0 0 14.3268 0 32C0 49.6732 14.327 64 32 64C49.6732 64 64 49.6732 64 32C64 14.3268 49.6732 0 32 0ZM6.87599 32.3336L31.6664 57.124C18.0536 56.9466 7.05337 45.9463 6.87599 32.3336ZM37.6241 56.4958L7.50417 26.3759C10.0582 15.2058 20.0556 6.87179 32 6.87179C40.3494 6.87179 47.7462 10.945 52.3157 17.2116L48.8365 20.2815C45.1299 14.9659 38.9717 11.4872 32 11.4872C23.1237 11.4872 15.5649 17.1253 12.7078 25.0154L38.9846 51.2923C45.366 48.9814 50.2738 43.5946 51.9175 36.9231H41.0257V32.0001H52.5128V31.9999H57.1282V32C57.1282 43.9444 48.7942 53.9418 37.6241 56.4958Z" fill="#744C9E"/>
</g>
</g>
</svg>
