<svg width="32" height="32" viewBox="0 0 32 32" fill="none" xmlns="http://www.w3.org/2000/svg">
<g id="logos/gatsby">
<g id="gatsby">
<path id="Vector" d="M16 0C7.16345 0 0 7.16342 0 16C0 24.8366 7.16348 32 16 32C24.8366 32 32 24.8366 32 16C32 7.16342 24.8366 0 16 0ZM3.438 16.1668L15.8332 28.562C9.02681 28.4733 3.52668 22.9732 3.438 16.1668ZM18.812 28.2479L3.75208 13.188C5.0291 7.60291 10.0278 3.4359 16 3.4359C20.1747 3.4359 23.8731 5.47251 26.1578 8.6058L24.4183 10.1407C22.565 7.48297 19.4858 5.74359 16 5.74359C11.5619 5.74359 7.78244 8.56265 6.3539 12.5077L19.4923 25.6461C22.683 24.4907 25.1369 21.7973 25.9587 18.4615H20.5128V16H26.2564V16H28.5641V16C28.5641 21.9722 24.3971 26.9709 18.812 28.2479Z" fill="#744C9E"/>
</g>
</g>
</svg>
