<svg width="32" height="32" viewBox="0 0 32 32" fill="none" xmlns="http://www.w3.org/2000/svg">
<g id="logos/graphql">
<g id="graphql">
<g id="edges">
<path id="Vector" d="M1.33939 0H0V26.0641H1.33939V0Z" transform="matrix(-0.862283 -0.506383 0.493644 -0.869639 4.549 24.389)" fill="#E535AB"/>
<path id="Vector_2" d="M25.7328 0H0V1.35649H25.7328V0Z" transform="translate(3.12958 21.8999)" fill="#E535AB"/>
<path id="Vector_3" d="M14.9269 0H0V1.35081H14.9269V0Z" transform="matrix(-0.862283 -0.506383 0.493644 -0.869639 16.51 30.2207)" fill="#E535AB"/>
<path id="Vector_4" d="M14.9269 0H0V1.35081H14.9269V0Z" transform="matrix(-0.862283 -0.506383 0.493644 -0.869639 27.6912 10.5206)" fill="#E535AB"/>
<path id="Vector_5" d="M1.35081 0H0V14.9269H1.35081V0Z" transform="matrix(-0.493644 -0.869639 0.862283 -0.506383 4.30917 10.5155)" fill="#E535AB"/>
<path id="Vector_6" d="M26.0641 0H0V1.33939H26.0641V0Z" transform="matrix(-0.493644 -0.869639 0.862283 -0.506383 27.4539 24.3892)" fill="#E535AB"/>
<path id="Vector_7" d="M1.33364 0H0V15.1175H1.33364V0Z" transform="translate(4.1499 8.44132)" fill="#E535AB"/>
<path id="Vector_8" d="M1.33364 0H0V15.1175H1.33364V0Z" transform="translate(26.5164 8.44132)" fill="#E535AB"/>
<path id="Vector_9" d="M1.17992 0H0V12.9824H1.17992V0Z" transform="matrix(-0.493644 -0.869639 0.862283 -0.506383 16.2829 29.6465)" fill="#E535AB"/>
</g>
<g id="nodes">
<path id="Vector_10" d="M5.23494 4.27866C4.46368 5.64332 2.74441 6.1091 1.40274 5.32462C0.0610628 4.54015 -0.396872 2.79143 0.374389 1.42677C1.14565 0.0621098 2.86492 -0.403672 4.20659 0.380802C5.5563 1.17345 6.01424 2.914 5.23494 4.27866Z" transform="translate(24.3827 19.7213)" fill="#E535AB"/>
<path id="Vector_11" d="M5.23494 4.27866C4.46368 5.64332 2.74441 6.1091 1.40274 5.32462C0.0610635 4.54015 -0.396873 2.79143 0.374388 1.42677C1.14565 0.0621094 2.86492 -0.403672 4.20659 0.380802C5.54826 1.17345 6.0062 2.914 5.23494 4.27866Z" transform="translate(2 6.57324)" fill="#E535AB"/>
<path id="Vector_12" d="M0.374388 4.27866C-0.396873 2.914 0.0610634 1.17345 1.40274 0.380802C2.74441 -0.403672 4.45564 0.0621098 5.23494 1.42677C6.0062 2.79143 5.54826 4.53198 4.20659 5.32462C2.85688 6.1091 1.14565 5.64332 0.374388 4.27866Z" transform="translate(2.00803 19.7213)" fill="#E535AB"/>
<path id="Vector_13" d="M0.374389 4.27866C-0.396872 2.914 0.0610628 1.17345 1.40274 0.380802C2.74441 -0.403672 4.45565 0.0621094 5.23494 1.42677C6.0062 2.79143 5.54826 4.53198 4.20659 5.32462C2.86492 6.1091 1.14565 5.64332 0.374389 4.27866Z" transform="translate(24.3907 6.57324)" fill="#E535AB"/>
<path id="Vector_14" d="M2.80385 5.70378C1.2533 5.70378 0 4.42901 0 2.85189C0 1.27477 1.2533 0 2.80385 0C4.35441 0 5.60771 1.27477 5.60771 2.85189C5.60771 4.42084 4.35441 5.70378 2.80385 5.70378Z" transform="translate(13.1961 26.2962)" fill="#E535AB"/>
<path id="Vector_15" d="M2.80385 5.70378C1.2533 5.70378 0 4.42901 0 2.85189C0 1.27477 1.2533 0 2.80385 0C4.35441 0 5.60771 1.27477 5.60771 2.85189C5.60771 4.42901 4.35441 5.70378 2.80385 5.70378Z" transform="translate(13.1961)" fill="#E535AB"/>
</g>
</g>
</g>
</svg>
