<svg width="64" height="64" viewBox="0 0 64 64" fill="none" xmlns="http://www.w3.org/2000/svg">
<g id="logos/graphql" clip-path="url(#clip0)">
<g id="graphql">
<g id="edges">
<path id="Vector" d="M2.67878 0H0V52.1283H2.67878V0Z" transform="matrix(-0.862283 -0.506383 0.493644 -0.869639 9.09799 48.778)" fill="#E535AB"/>
<path id="Vector_2" d="M51.4656 0H0V2.71297H51.4656V0Z" transform="translate(6.25916 43.7998)" fill="#E535AB"/>
<path id="Vector_3" d="M29.8538 0H0V2.70162H29.8538V0Z" transform="matrix(-0.862283 -0.506383 0.493644 -0.869639 33.02 60.4414)" fill="#E535AB"/>
<path id="Vector_4" d="M29.8538 0H0V2.70162H29.8538V0Z" transform="matrix(-0.862283 -0.506383 0.493644 -0.869639 55.3824 21.0412)" fill="#E535AB"/>
<path id="Vector_5" d="M2.70162 0H0V29.8538H2.70162V0Z" transform="matrix(-0.493644 -0.869639 0.862283 -0.506383 8.61832 21.0311)" fill="#E535AB"/>
<path id="Vector_6" d="M52.1283 0H0V2.67877H52.1283V0Z" transform="matrix(-0.493644 -0.869639 0.862283 -0.506383 54.9078 48.7783)" fill="#E535AB"/>
<path id="Vector_7" d="M2.66728 0H0V30.2349H2.66728V0Z" transform="translate(8.2998 16.8826)" fill="#E535AB"/>
<path id="Vector_8" d="M2.66728 0H0V30.2349H2.66728V0Z" transform="translate(53.0329 16.8826)" fill="#E535AB"/>
<path id="Vector_9" d="M2.35985 0H0V25.9648H2.35985V0Z" transform="matrix(-0.493644 -0.869639 0.862283 -0.506383 32.5659 59.293)" fill="#E535AB"/>
</g>
<g id="nodes">
<path id="Vector_10" d="M10.4699 8.55731C8.92736 11.2866 5.48882 12.2182 2.80547 10.6492C0.122126 9.0803 -0.793745 5.58285 0.748777 2.85354C2.2913 0.12422 5.72984 -0.807344 8.41318 0.761604C11.1126 2.3469 12.0285 5.828 10.4699 8.55731Z" transform="translate(48.7653 39.4426)" fill="#E535AB"/>
<path id="Vector_11" d="M10.4699 8.55731C8.92736 11.2866 5.48882 12.2182 2.80547 10.6492C0.122127 9.0803 -0.793745 5.58285 0.748777 2.85353C2.2913 0.124219 5.72984 -0.807343 8.41318 0.761605C11.0965 2.3469 12.0124 5.828 10.4699 8.55731Z" transform="translate(4 13.1465)" fill="#E535AB"/>
<path id="Vector_12" d="M0.748777 8.55731C-0.793745 5.828 0.122127 2.3469 2.80547 0.761604C5.48882 -0.807344 8.91129 0.12422 10.4699 2.85354C12.0124 5.58285 11.0965 9.06396 8.41318 10.6492C5.71377 12.2182 2.2913 11.2866 0.748777 8.55731Z" transform="translate(4.01608 39.4426)" fill="#E535AB"/>
<path id="Vector_13" d="M0.748777 8.55731C-0.793745 5.828 0.122126 2.3469 2.80547 0.761605C5.48882 -0.807343 8.91129 0.124219 10.4699 2.85353C12.0124 5.58285 11.0965 9.06395 8.41318 10.6492C5.72983 12.2182 2.2913 11.2866 0.748777 8.55731Z" transform="translate(48.7813 13.1465)" fill="#E535AB"/>
<path id="Vector_14" d="M5.60771 11.4076C2.5066 11.4076 0 8.85802 0 5.70378C0 2.54954 2.5066 0 5.60771 0C8.70882 0 11.2154 2.54954 11.2154 5.70378C11.2154 8.84168 8.70882 11.4076 5.60771 11.4076Z" transform="translate(26.3922 52.5925)" fill="#E535AB"/>
<path id="Vector_15" d="M5.60771 11.4076C2.5066 11.4076 0 8.85802 0 5.70378C0 2.54954 2.5066 0 5.60771 0C8.70882 0 11.2154 2.54954 11.2154 5.70378C11.2154 8.85802 8.70882 11.4076 5.60771 11.4076Z" transform="translate(26.3922)" fill="#E535AB"/>
</g>
</g>
</g>
<defs>
<clipPath id="clip0">
<rect width="64" height="64" fill="white"/>
</clipPath>
</defs>
</svg>
