<svg width="64" height="64" viewBox="0 0 64 64" fill="none" xmlns="http://www.w3.org/2000/svg">
<g id="logos/illustrator">
<g id="illustrator">
<path id="Vector" d="M0 0H58.6667V58.6667H0V0Z" transform="translate(2.66666 2.66667)" fill="#261300"/>
<path id="Vector_2" d="M0 0V64H64V0H0ZM2.66667 2.73504H61.3333V61.265H2.66667V2.73504Z" fill="#FF7C00"/>
<path id="Vector_3" d="M6.71192 21.4929L4.60525 29.3561C4.55192 29.5658 4.47192 29.6182 4.20525 29.6182H0.285252C0.018585 29.6182 -0.0347483 29.5396 0.018585 29.2251L7.59192 3.17151C7.72525 2.69971 7.80525 2.28034 7.85859 0.996011C7.85859 0.812535 7.93859 0.733903 8.07192 0.733903H13.6719C13.8586 0.733903 13.9386 0.786325 13.9919 0.996011L22.4719 29.2775C22.5253 29.4872 22.4719 29.6182 22.2586 29.6182H17.8319C17.6186 29.6182 17.4853 29.5658 17.4319 29.3823L15.2186 21.4929H6.71192ZM14.1253 17.2467C13.3786 14.3373 11.6186 7.9943 10.9519 4.92764H10.8986C10.3386 7.9943 8.92525 13.184 7.80525 17.2467H14.1253ZM26.1253 2.6735C26.1253 0.996012 27.3253 0 28.8453 0C30.4719 0 31.5653 1.07464 31.5653 2.6735C31.5653 4.40342 30.4186 5.34701 28.7919 5.34701C27.2453 5.34701 26.1253 4.40342 26.1253 2.6735ZM26.4453 8.62336C26.4453 8.41368 26.5253 8.30883 26.7653 8.30883H30.9519C31.1653 8.30883 31.2719 8.38747 31.2719 8.62336V29.3037C31.2719 29.5134 31.2186 29.6182 30.9519 29.6182H26.8186C26.5519 29.6182 26.4719 29.4872 26.4719 29.2775V8.62336H26.4453Z" transform="translate(15.5014 14.5698)" fill="#FF7C00"/>
</g>
</g>
</svg>
