<svg width="32" height="32" viewBox="0 0 32 32" fill="none" xmlns="http://www.w3.org/2000/svg">
<g id="logos/illustrator">
<g id="illustrator">
<path id="Vector" d="M0 0H29.3333V29.3333H0V0Z" transform="translate(1.33334 1.33333)" fill="#261300"/>
<path id="Vector_2" d="M0 0V32H32V0H0ZM1.33333 1.36752H30.6667V30.6325H1.33333V1.36752Z" fill="#FF7C00"/>
<path id="Vector_3" d="M3.35596 10.7464L2.30263 14.6781C2.27596 14.7829 2.23596 14.8091 2.10263 14.8091H0.142626C0.00929251 14.8091 -0.0173742 14.7698 0.00929251 14.6125L3.79596 1.58575C3.86263 1.34986 3.90263 1.14017 3.92929 0.498006C3.92929 0.406268 3.96929 0.366951 4.03596 0.366951H6.83596C6.92929 0.366951 6.96929 0.393162 6.99596 0.498006L11.236 14.6387C11.2626 14.7436 11.236 14.8091 11.1293 14.8091H8.91596C8.80929 14.8091 8.74263 14.7829 8.71596 14.6912L7.60929 10.7464H3.35596ZM7.06263 8.62336C6.68929 7.16866 5.80929 3.99715 5.47596 2.46382H5.44929C5.16929 3.99715 4.46263 6.59202 3.90263 8.62336H7.06263ZM13.0626 1.33675C13.0626 0.498006 13.6626 0 14.4226 0C15.236 0 15.7826 0.537322 15.7826 1.33675C15.7826 2.20171 15.2093 2.6735 14.396 2.6735C13.6226 2.6735 13.0626 2.20171 13.0626 1.33675ZM13.2226 4.31168C13.2226 4.20684 13.2626 4.15442 13.3826 4.15442H15.476C15.5826 4.15442 15.636 4.19373 15.636 4.31168V14.6519C15.636 14.7567 15.6093 14.8091 15.476 14.8091H13.4093C13.276 14.8091 13.236 14.7436 13.236 14.6387V4.31168H13.2226Z" transform="translate(7.7507 7.28491)" fill="#FF7C00"/>
</g>
</g>
</svg>
