<svg width="64" height="64" viewBox="0 0 64 64" fill="none" xmlns="http://www.w3.org/2000/svg">
<g id="logos/indesign">
<g id="indesign">
<path id="XMLID 3" d="M64 0H0V64H64V0Z" fill="#FF3F94"/>
<path id="XMLID 5" d="M58.368 0H0V58.368H58.368V0Z" transform="translate(2.81601 2.81601)" fill="#2E0013"/>
<g id="XMLID 10">
<g id="Group">
<path id="XMLID 26" d="M4.5824 28.3121C4.5824 28.5763 4.50664 28.7083 4.24152 28.7083H0.302881C0.0757609 28.7083 0 28.5763 0 28.3121V0.308241C0 0.044001 0.113601 0 0.302881 0H4.27944C4.50664 0 4.58248 0.044001 4.58248 0.308241V28.3121H4.5824Z" transform="translate(19.1273 15.4799)" fill="#FF3F94"/>
</g>
</g>
<g id="XMLID 6">
<g id="Group_2">
<path id="XMLID 36" d="M0 18.5886C0 12.3081 3.9816 7.024 10.3074 7.024C11.1631 7.024 11.7958 7.11064 12.4284 7.32728V0.30312C12.4284 0.0864801 12.5029 0 12.6516 0H16.7076C16.8563 0 16.8936 0.0864807 16.8936 0.259761V24.0027C16.8936 24.9122 16.9682 26.0817 17.0053 26.7746C17.0426 26.9912 17.0053 27.0777 16.8194 27.2077C14.4748 28.5504 11.8331 29.3302 9.37712 29.3302C3.9072 29.3301 0 25.8216 0 18.5886ZM12.4284 11.4418C11.8701 11.182 11.0889 11.052 10.2329 11.052C6.88392 11.052 4.61416 13.9107 4.61416 18.3286C4.61416 23.2229 7.07016 25.1721 9.89824 25.1721C10.8285 25.1721 11.7587 24.9986 12.4285 24.7389V11.4418H12.4284Z" transform="translate(28.3376 15.3284)" fill="#FF3F94"/>
</g>
</g>
</g>
</g>
</svg>
