<svg width="32" height="32" viewBox="0 0 32 32" fill="none" xmlns="http://www.w3.org/2000/svg">
<g id="logos/indesign">
<g id="indesign">
<path id="XMLID 3" d="M32 0H0V32H32V0Z" fill="#FF3F94"/>
<path id="XMLID 5" d="M29.184 0H0V29.184H29.184V0Z" transform="translate(1.40799 1.40801)" fill="#2E0013"/>
<g id="XMLID 10">
<g id="Group">
<path id="XMLID 26" d="M2.2912 14.156C2.2912 14.2882 2.25332 14.3542 2.12076 14.3542H0.15144C0.0378804 14.3542 0 14.2882 0 14.156V0.15412C0 0.0220005 0.0568004 0 0.15144 0H2.13972C2.25332 0 2.29124 0.0220005 2.29124 0.15412V14.156H2.2912Z" transform="translate(9.56369 7.73997)" fill="#FF3F94"/>
</g>
</g>
<g id="XMLID 6">
<g id="Group_2">
<path id="XMLID 36" d="M0 9.29432C0 6.15404 1.9908 3.512 5.15368 3.512C5.58156 3.512 5.89792 3.55532 6.2142 3.66364V0.15156C6.2142 0.0432401 6.25144 0 6.3258 0H8.3538C8.42816 0 8.4468 0.0432404 8.4468 0.12988V12.0014C8.4468 12.4561 8.48408 13.0408 8.50264 13.3873C8.52128 13.4956 8.50264 13.5388 8.40968 13.6038C7.2374 14.2752 5.91656 14.6651 4.68856 14.6651C1.9536 14.665 0 12.9108 0 9.29432ZM6.2142 5.72092C5.93504 5.591 5.54444 5.526 5.11644 5.526C3.44196 5.526 2.30708 6.95536 2.30708 9.16432C2.30708 11.6114 3.53508 12.586 4.94912 12.586C5.41424 12.586 5.87936 12.4993 6.21424 12.3694V5.72092H6.2142Z" transform="translate(14.1688 7.66419)" fill="#FF3F94"/>
</g>
</g>
</g>
</g>
</svg>
