<svg width="32" height="32" viewBox="0 0 32 32" fill="none" xmlns="http://www.w3.org/2000/svg">
<g id="logos/javascript">
<g id="javascript">
<path id="Vector" d="M32 0H0V32H32V0Z" fill="#F7DF1E"/>
<path id="Vector_2" d="M13.0702 10.4787C13.7148 11.5312 14.5534 12.3048 16.0366 12.3048C17.2825 12.3048 18.0785 11.682 18.0785 10.8216C18.0785 9.79048 17.2607 9.42527 15.8893 8.8254L15.1375 8.50286C12.9676 7.57841 11.5261 6.42032 11.5261 3.97206C11.5261 1.71682 13.2444 0 15.9299 0C17.8418 0 19.2163 0.665397 20.2067 2.40762L17.8651 3.91111C17.3496 2.98667 16.7934 2.62247 15.9299 2.62247C15.0491 2.62247 14.4909 3.18121 14.4909 3.91111C14.4909 4.81321 15.0497 5.17841 16.3398 5.73714L17.0916 6.05917C19.6465 7.15479 21.089 8.27175 21.089 10.783C21.089 13.4903 18.9623 14.9735 16.1062 14.9735C13.3135 14.9735 11.5093 13.6427 10.6265 11.8984L13.0702 10.4787ZM2.44775 10.7393C2.92013 11.5774 3.34984 12.286 4.38298 12.286C5.37092 12.286 5.99416 11.8994 5.99416 10.3964V0.171681H9.00114V10.4371C9.00114 13.5507 7.17562 14.9679 4.51098 14.9679C2.10336 14.9679 0.709079 13.7219 0 12.2212L2.44775 10.7393Z" transform="translate(8.42564 14.5214)" fill="black"/>
</g>
</g>
</svg>
