<svg width="64" height="64" viewBox="0 0 64 64" fill="none" xmlns="http://www.w3.org/2000/svg">
<g id="logos/javascript">
<g id="javascript">
<path id="Vector" d="M64 0H0V64H64V0Z" fill="#F7DF1E"/>
<path id="Vector_2" d="M26.1404 20.9575C27.4296 23.0623 29.1068 24.6095 32.0731 24.6095C34.5651 24.6095 36.157 23.3641 36.157 21.6432C36.157 19.581 34.5214 18.8505 31.7785 17.6508L30.275 17.0057C25.9352 15.1568 23.0522 12.8406 23.0522 7.94412C23.0522 3.43365 26.4889 0 31.8598 0C35.6836 0 38.4325 1.33079 40.4135 4.81524L35.7303 7.82222C34.6992 5.97333 33.5868 5.24495 31.8598 5.24495C30.0983 5.24495 28.9818 6.36241 28.9818 7.82222C28.9818 9.62641 30.0993 10.3568 32.6796 11.4743L34.1831 12.1183C39.293 14.3096 42.178 16.5435 42.178 21.566C42.178 26.9806 37.9246 29.9469 32.2123 29.9469C26.627 29.9469 23.0187 27.2853 21.2531 23.7968L26.1404 20.9575ZM4.89549 21.4786C5.84025 23.1548 6.69968 24.5719 8.76597 24.5719C10.7418 24.5719 11.9883 23.7989 11.9883 20.7929V0.343362H18.0023V20.8742C18.0023 27.1015 14.3512 29.9357 9.02197 29.9357C4.20673 29.9357 1.41816 27.4438 0 24.4424L4.89549 21.4786Z" transform="translate(16.8513 29.0428)" fill="black"/>
</g>
</g>
</svg>
