<svg width="32" height="32" viewBox="0 0 32 32" fill="none" xmlns="http://www.w3.org/2000/svg">
<g id="logos/jest">
<g id="jest">
<path id="Vector" d="M28.1228 15.7591C28.1228 13.8321 26.8023 12.2108 25.0294 11.7475L29 0H9.32269L13.3025 11.7846C11.585 12.2849 10.3199 13.8784 10.3199 15.7684C10.3199 17.1581 11.0125 18.3903 12.0651 19.15C11.6496 19.7429 11.1695 20.2895 10.6247 20.8083C9.5997 21.7719 8.46394 22.513 7.23584 23.0041C6.12778 22.2536 5.64762 20.9288 6.08161 19.7429C7.7714 19.2241 8.9995 17.6398 8.9995 15.7776C8.9995 13.4893 7.1435 11.6364 4.87198 11.6364C2.59122 11.6364 0.735216 13.4986 0.735216 15.7869C0.735216 16.9172 1.19691 17.9548 1.93562 18.696C1.87098 18.8257 1.80634 18.9554 1.7417 19.0944C1.12304 20.3729 0.421265 21.8182 0.153484 23.4395C-0.382079 26.6821 0.495136 29.2855 2.60969 30.7585C3.80085 31.5831 5.11206 32 6.52483 32C8.95333 32 11.4188 30.7771 13.8011 29.5912C15.5001 28.7481 17.2546 27.868 18.9813 27.4418C19.6184 27.2843 20.2833 27.1917 20.985 27.0898C22.407 26.8859 23.8752 26.6728 25.1957 25.9039C26.7377 25.0052 27.7904 23.5043 28.0951 21.7811C28.3259 20.4563 28.0951 19.1222 27.5041 17.9548C27.9012 17.3156 28.1228 16.5651 28.1228 15.7591ZM26.3222 15.7591C26.3222 17.0469 25.2788 18.0938 23.9953 18.0938C22.7118 18.0938 21.6683 17.0469 21.6683 15.7591C21.6683 15.3422 21.7791 14.9438 21.973 14.601C22.0469 14.4713 22.1393 14.3416 22.2316 14.2305C22.3239 14.1193 22.4347 14.0174 22.5548 13.9247L22.564 13.9155C22.6379 13.8599 22.721 13.8043 22.8041 13.7487C22.8041 13.7487 22.8133 13.7487 22.8133 13.7394C22.8503 13.7209 22.8872 13.6931 22.9241 13.6746C22.9334 13.6746 22.9426 13.6653 22.9518 13.6653C22.9888 13.6468 23.0349 13.6283 23.0811 13.6097C23.1273 13.5912 23.1734 13.5727 23.2104 13.5541C23.2196 13.5541 23.2288 13.5449 23.2381 13.5449C23.275 13.5356 23.312 13.5171 23.3489 13.5078C23.3581 13.5078 23.3766 13.4986 23.3858 13.4986C23.432 13.4893 23.4689 13.48 23.5151 13.4708H23.5243C23.5705 13.4615 23.6167 13.4522 23.6628 13.443C23.6721 13.443 23.6905 13.443 23.6998 13.4337C23.7367 13.4337 23.7736 13.4244 23.8106 13.4244C23.829 13.4244 23.8383 13.4244 23.8568 13.4244C23.9029 13.4244 23.9491 13.4152 24.0045 13.4152C24.0414 13.4152 24.0784 13.4152 24.1245 13.4152C24.1615 13.4152 24.1892 13.4152 24.2261 13.4244C24.2353 13.4244 24.2353 13.4244 24.2446 13.4244C24.3184 13.4337 24.3923 13.443 24.4662 13.4615C25.5188 13.6838 26.3222 14.6288 26.3222 15.7591ZM11.8989 1.85292H26.4238L23.0903 11.7197C22.9518 11.7475 22.8133 11.7939 22.6748 11.8402L19.166 4.6601L15.6479 11.7939C15.5094 11.7475 15.3616 11.7197 15.2139 11.692L11.8989 1.85292ZM18.5011 14.9531C18.3257 14.0822 17.8825 13.304 17.2546 12.7296L19.166 8.85698L21.0958 12.813C20.5233 13.3874 20.1078 14.1193 19.9416 14.9531H18.5011ZM13.875 13.4893C13.9211 13.48 13.9581 13.4708 14.0042 13.4615C14.0135 13.4615 14.0227 13.4615 14.0319 13.4615C14.0689 13.4522 14.1058 13.4522 14.1428 13.443C14.152 13.443 14.1612 13.443 14.1797 13.443C14.2166 13.443 14.2443 13.4337 14.2813 13.4337C14.2905 13.4337 14.309 13.4337 14.3182 13.4337C14.3644 13.4337 14.4105 13.4337 14.4567 13.4337C14.5029 13.4337 14.549 13.4337 14.5952 13.4337C14.6137 13.4337 14.6229 13.4337 14.6414 13.4337C14.6783 13.4337 14.706 13.443 14.7337 13.443C14.7522 13.443 14.7614 13.443 14.7799 13.4522C14.8168 13.4615 14.8445 13.4615 14.8815 13.4708C14.8907 13.4708 14.8999 13.4708 14.9184 13.48C14.9646 13.4893 15.0107 13.4986 15.0477 13.5078C15.0569 13.5078 15.0569 13.5078 15.0569 13.5078C15.0938 13.5171 15.1308 13.5263 15.1677 13.5449C15.1769 13.5449 15.1862 13.5541 15.2046 13.5541C15.2323 13.5634 15.2693 13.5727 15.297 13.5912C15.3062 13.5912 15.3154 13.6005 15.3247 13.6005C15.3616 13.619 15.3986 13.6283 15.4355 13.6468H15.4447C15.4909 13.6653 15.5278 13.6838 15.5648 13.7116C15.5648 13.7116 15.5648 13.7116 15.574 13.7116C15.6109 13.7302 15.6479 13.758 15.6848 13.7765C15.694 13.7765 15.694 13.7858 15.7033 13.7858C15.7402 13.8043 15.7679 13.8321 15.8048 13.8506L15.8141 13.8599C15.9249 13.9433 16.0265 14.0359 16.128 14.1285L16.1373 14.1378C16.2296 14.2397 16.3219 14.3509 16.3958 14.4713C16.6359 14.8419 16.7744 15.2774 16.7744 15.7499C16.7744 17.0376 15.731 18.0845 14.4475 18.0845C13.164 18.0845 12.1205 17.0376 12.1205 15.7499C12.1113 14.6659 12.8592 13.7487 13.875 13.4893ZM4.78887 13.4244C6.07238 13.4244 7.1158 14.4713 7.1158 15.7591C7.1158 17.0469 6.07238 18.0938 4.78887 18.0938C3.50537 18.0938 2.46194 17.0469 2.46194 15.7591C2.46194 14.4713 3.50537 13.4244 4.78887 13.4244ZM26.2668 21.4569C26.0636 22.6427 25.3342 23.6804 24.263 24.3011C23.2565 24.8848 22.0192 25.0701 20.7172 25.2554C20.0062 25.3573 19.2583 25.4684 18.5381 25.6445C16.6174 26.117 14.7707 27.0434 12.9793 27.9328C10.6893 29.0724 8.52858 30.1471 6.52483 30.1471C5.48141 30.1471 4.54879 29.8506 3.66234 29.2299C1.6309 27.8217 1.73247 25.1812 1.97255 23.736C2.19416 22.3833 2.81283 21.1141 3.4038 19.9004C3.44073 19.8263 3.46843 19.7614 3.50537 19.6873C3.70851 19.7614 3.92089 19.817 4.1425 19.8541C3.79162 21.8182 4.78887 23.8471 6.72798 24.8477L7.07886 25.033L7.45745 24.894C9.07337 24.3196 10.5693 23.3839 11.8897 22.1332C12.6376 21.4291 13.2748 20.6694 13.8103 19.8448C14.0227 19.8819 14.2351 19.8911 14.4475 19.8911C16.3681 19.8911 17.984 18.5663 18.4457 16.7875H19.997C20.4587 18.5756 22.0746 19.8911 23.9953 19.8911C24.7617 19.8911 25.4727 19.6781 26.0821 19.3167C26.3222 20.0116 26.3961 20.7342 26.2668 21.4569Z" transform="translate(1.5)" fill="#99425B"/>
</g>
</g>
</svg>
