<svg width="64" height="64" viewBox="0 0 64 64" fill="none" xmlns="http://www.w3.org/2000/svg">
<g id="logos/jest">
<g id="jest">
<path id="Vector" d="M56.2456 31.5182C56.2456 27.6642 53.6047 24.4215 50.0589 23.4951L58 0H18.6454L26.6049 23.5692C23.17 24.5698 20.6399 27.7568 20.6399 31.5368C20.6399 34.3162 22.025 36.7805 24.1303 38.2999C23.2992 39.4858 22.3389 40.579 21.2493 41.6167C19.1994 43.5437 16.9279 45.0261 14.4717 46.0081C12.2556 44.5072 11.2952 41.8576 12.1632 39.4858C15.5428 38.4482 17.999 35.2797 17.999 31.5553C17.999 26.9786 14.287 23.2727 9.74395 23.2727C5.18244 23.2727 1.47043 26.9971 1.47043 31.5738C1.47043 33.8344 2.39382 35.9097 3.87123 37.392C3.74196 37.6514 3.61268 37.9108 3.48341 38.1888C2.24607 40.7458 0.842531 43.6364 0.306968 46.879C-0.764157 53.3642 0.990272 58.5709 5.21937 61.5171C7.6017 63.1662 10.2241 64 13.0497 64C17.9067 64 22.8375 61.5541 27.6022 59.1824C31.0003 57.4962 34.5091 55.736 37.9626 54.8836C39.2368 54.5686 40.5665 54.3833 41.9701 54.1795C44.8141 53.7719 47.7504 53.3457 50.3913 51.8078C53.4754 50.0104 55.5807 47.0087 56.1902 43.5622C56.6519 40.9126 56.1902 38.2444 55.0082 35.9097C55.8023 34.6312 56.2456 33.1303 56.2456 31.5182ZM52.6444 31.5182C52.6444 34.0938 50.5575 36.1876 47.9905 36.1876C45.4235 36.1876 43.3367 34.0938 43.3367 31.5182C43.3367 30.6844 43.5583 29.8877 43.9461 29.2021C44.0938 28.9427 44.2785 28.6833 44.4632 28.4609C44.6479 28.2386 44.8695 28.0347 45.1096 27.8495L45.128 27.8309C45.2758 27.7197 45.442 27.6086 45.6082 27.4974C45.6082 27.4974 45.6267 27.4974 45.6267 27.4789C45.7005 27.4418 45.7744 27.3862 45.8483 27.3492C45.8667 27.3492 45.8852 27.3306 45.9037 27.3306C45.9775 27.2936 46.0699 27.2565 46.1622 27.2195C46.2546 27.1824 46.3469 27.1453 46.4208 27.1083C46.4392 27.1083 46.4577 27.0898 46.4762 27.0898C46.55 27.0712 46.6239 27.0342 46.6978 27.0156C46.7162 27.0156 46.7532 26.9971 46.7717 26.9971C46.864 26.9786 46.9379 26.96 47.0302 26.9415H47.0487C47.141 26.923 47.2333 26.9045 47.3257 26.8859C47.3441 26.8859 47.3811 26.8859 47.3996 26.8674C47.4734 26.8674 47.5473 26.8489 47.6212 26.8489C47.6581 26.8489 47.6766 26.8489 47.7135 26.8489C47.8058 26.8489 47.8982 26.8303 48.009 26.8303C48.0829 26.8303 48.1567 26.8303 48.2491 26.8303C48.3229 26.8303 48.3783 26.8303 48.4522 26.8489C48.4707 26.8489 48.4707 26.8489 48.4891 26.8489C48.6369 26.8674 48.7846 26.8859 48.9324 26.923C51.0377 27.3677 52.6444 29.2577 52.6444 31.5182ZM23.7979 3.70585H52.8475L46.1807 23.4395C45.9037 23.4951 45.6267 23.5877 45.3496 23.6804L38.3319 9.32021L31.2957 23.5877C31.0187 23.4951 30.7232 23.4395 30.4278 23.3839L23.7979 3.70585ZM37.0022 29.9062C36.6514 28.1644 35.7649 26.608 34.5091 25.4592L38.3319 17.714L42.1917 25.6259C41.0467 26.7748 40.2156 28.2386 39.8832 29.9062H37.0022ZM27.7499 26.9786C27.8423 26.96 27.9161 26.9415 28.0085 26.923C28.027 26.923 28.0454 26.923 28.0639 26.923C28.1378 26.9045 28.2116 26.9045 28.2855 26.8859C28.304 26.8859 28.3224 26.8859 28.3594 26.8859C28.4332 26.8859 28.4886 26.8674 28.5625 26.8674C28.581 26.8674 28.6179 26.8674 28.6364 26.8674C28.7287 26.8674 28.8211 26.8674 28.9134 26.8674C29.0057 26.8674 29.0981 26.8674 29.1904 26.8674C29.2274 26.8674 29.2458 26.8674 29.2828 26.8674C29.3566 26.8674 29.412 26.8859 29.4674 26.8859C29.5044 26.8859 29.5228 26.8859 29.5598 26.9045C29.6336 26.923 29.689 26.923 29.7629 26.9415C29.7814 26.9415 29.7999 26.9415 29.8368 26.96C29.9291 26.9786 30.0215 26.9971 30.0953 27.0156C30.1138 27.0156 30.1138 27.0156 30.1138 27.0156C30.1877 27.0342 30.2615 27.0527 30.3354 27.0898C30.3539 27.0898 30.3723 27.1083 30.4093 27.1083C30.4647 27.1268 30.5386 27.1453 30.594 27.1824C30.6124 27.1824 30.6309 27.2009 30.6494 27.2009C30.7232 27.238 30.7971 27.2565 30.871 27.2936H30.8894C30.9818 27.3306 31.0557 27.3677 31.1295 27.4233C31.1295 27.4233 31.1295 27.4233 31.148 27.4233C31.2219 27.4603 31.2957 27.5159 31.3696 27.553C31.3881 27.553 31.3881 27.5715 31.4065 27.5715C31.4804 27.6086 31.5358 27.6642 31.6097 27.7012L31.6282 27.7197C31.8498 27.8865 32.0529 28.0718 32.2561 28.2571L32.2745 28.2756C32.4592 28.4794 32.6439 28.7018 32.7916 28.9427C33.2718 29.6838 33.5488 30.5547 33.5488 31.4997C33.5488 34.0753 31.4619 36.1691 28.8949 36.1691C26.3279 36.1691 24.2411 34.0753 24.2411 31.4997C24.2226 29.3318 25.7185 27.4974 27.7499 26.9786ZM9.57774 26.8489C12.1448 26.8489 14.2316 28.9427 14.2316 31.5182C14.2316 34.0938 12.1448 36.1876 9.57774 36.1876C7.01074 36.1876 4.92389 34.0938 4.92389 31.5182C4.92389 28.9427 7.01074 26.8489 9.57774 26.8489ZM52.5336 42.9137C52.1273 45.2855 50.6683 47.3607 48.5261 48.6022C46.5131 49.7695 44.0384 50.1401 41.4345 50.5107C40.0125 50.7145 38.5166 50.9369 37.0761 51.2889C33.2348 52.2339 29.5413 54.0869 25.9586 55.8657C21.3786 58.1448 17.0572 60.2942 13.0497 60.2942C10.9628 60.2942 9.09758 59.7012 7.32469 58.4598C3.2618 55.6433 3.46494 50.3625 3.9451 47.4719C4.38833 44.7667 5.62566 42.2281 6.80759 39.8008C6.88146 39.6526 6.93687 39.5229 7.01074 39.3746C7.41703 39.5229 7.84178 39.634 8.28501 39.7082C7.58323 43.6364 9.57774 47.6943 13.456 49.6954L14.1577 50.066L14.9149 49.7881C18.1467 48.6393 21.1385 46.7678 23.7794 44.2664C25.2753 42.8581 26.5495 41.3387 27.6207 39.6896C28.0454 39.7638 28.4702 39.7823 28.8949 39.7823C32.7362 39.7823 35.9681 37.1326 36.8914 33.575H39.994C40.9174 37.1511 44.1492 39.7823 47.9905 39.7823C49.5233 39.7823 50.9453 39.3561 52.1642 38.6335C52.6444 40.0232 52.7921 41.4684 52.5336 42.9137Z" transform="translate(3)" fill="#99425B"/>
</g>
</g>
</svg>
