<svg width="64" height="64" viewBox="0 0 64 64" fill="none" xmlns="http://www.w3.org/2000/svg">
<g id="logos/photoshop">
<g id="photoshop">
<path id="Vector" d="M0 0H58.6667V59.2842H0V0Z" transform="translate(2.66667 2.02105)" fill="#001D26"/>
<path id="Vector_2" d="M0 0V64H64V0H0ZM2.66667 2.70625H61.3333V60.6201H2.66667V2.70625ZM15.4667 14.8303C15.4667 14.6408 15.84 14.5055 16.0533 14.5055C17.76 14.4243 20.2933 14.3702 22.9333 14.3702C30.32 14.3702 33.2 18.4837 33.2 23.7609C33.2 30.6348 28.2933 33.5846 22.2667 33.5846C21.2533 33.5846 20.9067 33.5305 20.1867 33.5305V43.9225C20.1867 44.139 20.1067 44.2472 19.8667 44.2472H15.7867C15.5733 44.2472 15.4667 44.166 15.4667 43.9225V14.8303ZM20.2133 29.2005C20.8267 29.2546 21.3067 29.2546 22.3733 29.2546C25.4933 29.2546 28.4267 28.145 28.4267 23.8421C28.4267 20.4051 26.32 18.6731 22.7733 18.6731C21.7067 18.6731 20.6933 18.7273 20.2133 18.7543V29.2005ZM43.1467 25.98C41.04 25.98 40.32 27.0625 40.32 27.9556C40.32 28.9298 40.8 29.6064 43.6267 31.0948C47.8133 33.1516 49.12 35.1272 49.12 38.0229C49.12 42.3529 45.8667 44.6802 41.4667 44.6802C39.1467 44.6802 37.1467 44.1931 36 43.5165C35.8133 43.4354 35.7867 43.3 35.7867 43.0835V39.1054C35.7867 38.8347 35.92 38.7535 36.1067 38.8889C37.7867 39.9984 39.7067 40.4855 41.4667 40.4855C43.5733 40.4855 44.4533 39.5925 44.4533 38.3747C44.4533 37.4004 43.84 36.5344 41.1467 35.1272C37.36 33.2869 35.7867 31.4196 35.7867 28.3074C35.7867 24.8163 38.48 21.9206 43.1467 21.9206C45.44 21.9206 47.04 22.2725 47.92 22.6784C48.1333 22.8137 48.1867 23.0302 48.1867 23.2196V26.9272C48.1867 27.1437 48.0533 27.279 47.7867 27.1978C46.6133 26.4401 44.88 25.98 43.1467 25.98Z" fill="#00C8FF"/>
</g>
</g>
</svg>
