<svg width="32" height="32" viewBox="0 0 32 32" fill="none" xmlns="http://www.w3.org/2000/svg">
<g id="logos/prisma">
<g id="prisma">
<path id="Vector" fill-rule="evenodd" clip-rule="evenodd" d="M25.8287 24.3792L15.0314 1.01028C14.8974 0.7225 14.6895 0.477032 14.4297 0.299868C14.1699 0.122705 13.868 0.0204409 13.5559 0.00390732C13.2433 -0.0174405 12.9309 0.0489817 12.6528 0.19595C12.3747 0.342918 12.1414 0.564806 11.9783 0.837482L0.267442 20.1689C0.0893593 20.4608 -0.00338106 20.7984 9.42081e-05 21.1422C0.00356948 21.4859 0.103116 21.8215 0.287064 22.1096L6.01261 31.147C6.22922 31.4862 6.54763 31.745 6.92034 31.8847C7.29305 32.0244 7.70008 32.0375 8.08071 31.9221L24.6962 26.9127C24.9463 26.8381 25.1779 26.7097 25.3752 26.5361C25.5725 26.3625 25.7309 26.1477 25.8397 25.9063C25.947 25.6662 26.0017 25.4051 26 25.1412C25.9982 24.8773 25.9392 24.6178 25.8287 24.3792ZM23.4114 25.3823L9.31216 29.631C8.88205 29.7614 8.46922 29.3814 8.55869 28.9382L13.5959 4.35497C13.6901 3.89499 14.3133 3.82139 14.5103 4.24778L23.8352 24.4312C23.8764 24.5212 23.898 24.6192 23.8984 24.7185C23.8988 24.8178 23.8781 24.916 23.8376 25.0064C23.7972 25.0968 23.738 25.1771 23.6641 25.2419C23.5903 25.3066 23.5035 25.3543 23.4098 25.3815L23.4114 25.3823Z" transform="translate(3.5)" fill="#0C344B"/>
</g>
</g>
</svg>
