<svg width="64" height="64" viewBox="0 0 64 64" fill="none" xmlns="http://www.w3.org/2000/svg">
<g id="logos/prisma">
<g id="prisma">
<path id="Vector" fill-rule="evenodd" clip-rule="evenodd" d="M51.6575 48.7583L30.0628 2.02055C29.7947 1.445 29.3789 0.954063 28.8594 0.599736C28.3399 0.245409 27.736 0.0408818 27.1118 0.00781464C26.4866 -0.034881 25.8619 0.0979634 25.3056 0.3919C24.7493 0.685837 24.2827 1.12961 23.9566 1.67496L0.534884 40.3378C0.178719 40.9216 -0.00676212 41.5969 0.000188416 42.2843C0.00713895 42.9718 0.206233 43.643 0.574127 44.2193L12.0252 62.2939C12.4584 62.9724 13.0953 63.4899 13.8407 63.7693C14.5861 64.0487 15.4002 64.075 16.1614 63.8443L49.3923 53.8254C49.8927 53.6763 50.3558 53.4194 50.7504 53.0722C51.1449 52.7249 51.4618 52.2954 51.6794 51.8126C51.8941 51.3323 52.0034 50.8101 51.9999 50.2824C51.9964 49.7546 51.8785 49.2356 51.6575 48.7583ZM46.8227 50.7647L18.6243 59.262C17.7641 59.5228 16.9384 58.7628 17.1174 57.8765L27.1918 8.70995C27.3802 7.78998 28.6266 7.64278 29.0206 8.49556L47.6704 48.8623C47.7528 49.0423 47.7959 49.2384 47.7968 49.437C47.7976 49.6356 47.7562 49.8321 47.6753 50.0128C47.5944 50.1935 47.476 50.3542 47.3283 50.4837C47.1805 50.6132 47.007 50.7086 46.8196 50.7631L46.8227 50.7647Z" transform="translate(7)" fill="#0C344B"/>
</g>
</g>
</svg>
