<svg width="64" height="64" viewBox="0 0 64 64" fill="none" xmlns="http://www.w3.org/2000/svg">
<g id="logos/react-js">
<g id="react">
<path id="Vector" d="M64 28.5065C64 24.2664 58.6906 20.2481 50.5503 17.7562C52.4289 9.45869 51.594 2.85718 47.9152 0.743648C47.0673 0.247882 46.0758 0.0130463 44.9931 0.0130463V2.92241C45.5931 2.92241 46.0758 3.03983 46.4802 3.26162C48.2544 4.27924 49.0241 8.15404 48.424 13.1378C48.2805 14.3642 48.0457 15.6558 47.7587 16.9734C45.2018 16.3472 42.4101 15.8645 39.4749 15.5514C37.7138 13.1378 35.8875 10.946 34.0481 9.02815C38.3009 5.07507 42.2927 2.90936 45.0061 2.90936V0C41.4187 0 36.7224 2.55711 31.9739 6.9929C27.2254 2.5832 22.5291 0.0521861 18.9417 0.0521861V2.96155C21.6421 2.96155 25.647 5.11421 29.8997 9.0412C28.0734 10.959 26.247 13.1378 24.512 15.5514C21.5638 15.8645 18.7721 16.3472 16.2152 16.9865C15.9152 15.6818 15.6934 14.4163 15.5369 13.203C14.9238 8.21927 15.6804 4.34447 17.4415 3.3138C17.8329 3.07897 18.3416 2.97459 18.9417 2.97459V0.0652323C17.8459 0.0652323 16.8545 0.300068 15.9935 0.795834C12.3278 2.90936 11.5059 9.49782 13.3975 17.7693C5.28333 20.2742 0 24.2795 0 28.5065C0 32.7466 5.30942 36.7649 13.4497 39.2568C11.5711 47.5544 12.406 54.1559 16.0848 56.2694C16.9327 56.7652 17.9242 57 19.02 57C22.6074 57 27.3037 54.4429 32.0522 50.0071C36.8007 54.4168 41.4969 56.9478 45.0844 56.9478C46.1802 56.9478 47.1716 56.713 48.0326 56.2172C51.6983 54.1037 52.5202 47.5152 50.6286 39.2438C58.7167 36.7519 64 32.7336 64 28.5065ZM47.0151 19.8045C46.5324 21.4875 45.9323 23.2227 45.254 24.9579C44.7191 23.9142 44.1582 22.8705 43.545 21.8267C42.945 20.783 42.3058 19.7654 41.6665 18.7739C43.519 19.0478 45.3062 19.387 47.0151 19.8045ZM41.0404 33.699C40.0228 35.4603 38.9792 37.1302 37.8965 38.6828C35.9527 38.8524 33.9829 38.9437 32 38.9437C30.0302 38.9437 28.0603 38.8524 26.1296 38.6958C25.0469 37.1433 23.9902 35.4864 22.9727 33.7382C21.9812 32.0291 21.0811 30.2939 20.2593 28.5457C21.0681 26.7974 21.9813 25.0492 22.9596 23.3401C23.9772 21.5788 25.0208 19.9089 26.1035 18.3564C28.0473 18.1868 30.0171 18.0954 32 18.0954C33.9698 18.0954 35.9397 18.1868 37.8704 18.3433C38.9531 19.8959 40.0098 21.5528 41.0273 23.301C42.0188 25.0101 42.9189 26.7452 43.7407 28.4935C42.9189 30.2417 42.0188 31.9899 41.0404 33.699ZM45.254 32.003C45.9584 33.7512 46.5585 35.4994 47.0542 37.1955C45.3453 37.613 43.545 37.9652 41.6796 38.2392C42.3188 37.2346 42.958 36.2039 43.5581 35.1472C44.1582 34.1035 44.7191 33.0467 45.254 32.003ZM32.0261 45.9235C30.8129 44.6711 29.5997 43.2751 28.3995 41.7487C29.5736 41.8009 30.7737 41.84 31.987 41.84C33.2132 41.84 34.4264 41.8139 35.6135 41.7487C34.4395 43.2751 33.2263 44.6711 32.0261 45.9235ZM22.3204 38.2392C20.468 37.9652 18.6808 37.626 16.9719 37.2085C17.4545 35.5255 18.0546 33.7903 18.733 32.0552C19.2678 33.0989 19.8288 34.1426 20.4419 35.1863C21.055 36.23 21.6812 37.2477 22.3204 38.2392ZM31.9609 11.0895C33.1741 12.342 34.3873 13.7379 35.5874 15.2644C34.4134 15.2122 33.2132 15.173 32 15.173C30.7737 15.173 29.5605 15.1991 28.3734 15.2644C29.5475 13.7379 30.7607 12.342 31.9609 11.0895ZM22.3074 18.7739C21.6682 19.7784 21.0289 20.8091 20.4289 21.8659C19.8288 22.9096 19.2678 23.9533 18.733 24.997C18.0285 23.2488 17.4285 21.5006 16.9327 19.8045C18.6417 19.4001 20.4419 19.0478 22.3074 18.7739ZM10.5014 35.108C5.88341 33.138 2.89605 30.5548 2.89605 28.5065C2.89605 26.4582 5.88341 23.862 10.5014 21.905C11.6233 21.4223 12.8496 20.9918 14.115 20.5873C14.8585 23.1444 15.8369 25.8059 17.0501 28.5326C15.85 31.2463 14.8846 33.8947 14.1541 36.4388C12.8626 36.0343 11.6364 35.5908 10.5014 35.108ZM17.5198 53.7514C15.7456 52.7338 14.9759 48.859 15.576 43.8753C15.7195 42.6489 15.9543 41.3573 16.2413 40.0396C18.7982 40.6658 21.5899 41.1485 24.5251 41.4617C26.2862 43.8753 28.1125 46.0671 29.9519 47.9849C25.6991 51.938 21.7073 54.1037 18.9939 54.1037C18.4068 54.0906 17.9111 53.9732 17.5198 53.7514ZM48.4631 43.81C49.0762 48.7938 48.3196 52.6686 46.5585 53.6992C46.1671 53.9341 45.6584 54.0385 45.0583 54.0385C42.3579 54.0385 38.353 51.8858 34.1003 47.9588C35.9266 46.041 37.753 43.8622 39.488 41.4486C42.4362 41.1355 45.2279 40.6528 47.7848 40.0135C48.0848 41.3312 48.3196 42.5967 48.4631 43.81ZM53.4855 35.108C52.3636 35.5908 51.1374 36.0213 49.872 36.4257C49.1284 33.8686 48.15 31.2071 46.9368 28.4804C48.137 25.7668 49.1023 23.1183 49.8329 20.5743C51.1243 20.9787 52.3506 21.4223 53.4986 21.905C58.1166 23.875 61.104 26.4582 61.104 28.5065C61.0909 30.5548 58.1035 33.1511 53.4855 35.108Z" transform="translate(0 4)" fill="#61DAFB"/>
<path id="Vector_2" d="M5.96168 11.9245C9.25422 11.9245 11.9234 9.25508 11.9234 5.96223C11.9234 2.66938 9.25422 0 5.96168 0C2.66913 0 0 2.66938 0 5.96223C0 9.25508 2.66913 11.9245 5.96168 11.9245Z" transform="translate(26.0253 26.5444)" fill="#61DAFB"/>
</g>
</g>
</svg>
