<svg width="32" height="32" viewBox="0 0 32 32" fill="none" xmlns="http://www.w3.org/2000/svg">
<g id="logos/react-js">
<g id="react">
<path id="Vector" d="M32 14.2533C32 12.1332 29.3453 10.1241 25.2752 8.87812C26.2144 4.72934 25.797 1.42859 23.9576 0.371824C23.5336 0.123941 23.0379 0.00652313 22.4965 0.00652313V1.4612C22.7966 1.4612 23.0379 1.51991 23.2401 1.63081C24.1272 2.13962 24.512 4.07702 24.212 6.56889C24.1402 7.18208 24.0228 7.82788 23.8793 8.48672C22.6009 8.17361 21.2051 7.93225 19.7375 7.77569C18.8569 6.56889 17.9437 5.47299 17.0241 4.51408C19.1504 2.53754 21.1464 1.45468 22.5031 1.45468V0C20.7093 0 18.3612 1.27855 15.987 3.49645C13.6127 1.2916 11.2646 0.026093 9.47085 0.026093V1.48077C10.821 1.48077 12.8235 2.55711 14.9499 4.5206C14.0367 5.47951 13.1235 6.56889 12.256 7.77569C10.7819 7.93225 9.38606 8.17361 8.10762 8.49325C7.9576 7.84092 7.84672 7.20817 7.76845 6.60151C7.46188 4.10964 7.8402 2.17224 8.72075 1.6569C8.91643 1.53948 9.17081 1.4873 9.47085 1.4873V0.0326162C8.92295 0.0326162 8.42723 0.150034 7.99674 0.397917C6.16388 1.45468 5.75296 4.74891 6.69874 8.88464C2.64166 10.1371 0 12.1397 0 14.2533C0 16.3733 2.65471 18.3825 6.72483 19.6284C5.78557 23.7772 6.20302 27.0779 8.0424 28.1347C8.46637 28.3826 8.96209 28.5 9.50999 28.5C11.3037 28.5 13.6519 27.2214 16.0261 25.0035C18.4003 27.2084 20.7485 28.4739 22.5422 28.4739C23.0901 28.4739 23.5858 28.3565 24.0163 28.1086C25.8492 27.0518 26.2601 23.7576 25.3143 19.6219C29.3583 18.3759 32 16.3668 32 14.2533ZM23.5075 9.90227C23.2662 10.7438 22.9662 11.6114 22.627 12.4789C22.3596 11.9571 22.0791 11.4352 21.7725 10.9134C21.4725 10.3915 21.1529 9.8827 20.8333 9.38693C21.7595 9.52392 22.6531 9.69352 23.5075 9.90227ZM20.5202 16.8495C20.0114 17.7301 19.4896 18.5651 18.9482 19.3414C17.9764 19.4262 16.9914 19.4718 16 19.4718C15.0151 19.4718 14.0302 19.4262 13.0648 19.3479C12.5234 18.5716 11.9951 17.7432 11.4863 16.8691C10.9906 16.0145 10.5406 15.1469 10.1296 14.2728C10.534 13.3987 10.9906 12.5246 11.4798 11.6701C11.9886 10.7894 12.5104 9.95445 13.0518 9.17819C14.0236 9.09338 15.0086 9.04772 16 9.04772C16.9849 9.04772 17.9698 9.09339 18.9352 9.17166C19.4766 9.94793 20.0049 10.7764 20.5137 11.6505C21.0094 12.505 21.4594 13.3726 21.8704 14.2467C21.4594 15.1209 21.0094 15.995 20.5202 16.8495ZM22.627 16.0015C22.9792 16.8756 23.2793 17.7497 23.5271 18.5977C22.6726 18.8065 21.7725 18.9826 20.8398 19.1196C21.1594 18.6173 21.479 18.102 21.779 17.5736C22.0791 17.0517 22.3596 16.5233 22.627 16.0015ZM16.013 22.9618C15.4064 22.3355 14.7998 21.6376 14.1998 20.8743C14.7868 20.9004 15.3869 20.92 15.9935 20.92C16.6066 20.92 17.2132 20.907 17.8068 20.8743C17.2197 21.6376 16.6131 22.3355 16.013 22.9618ZM11.1602 19.1196C10.234 18.9826 9.3404 18.813 8.48594 18.6043C8.72727 17.7628 9.02731 16.8952 9.36649 16.0276C9.63392 16.5494 9.91439 17.0713 10.221 17.5932C10.5275 18.115 10.8406 18.6238 11.1602 19.1196ZM15.9804 5.54475C16.587 6.17098 17.1936 6.86896 17.7937 7.63218C17.2067 7.60609 16.6066 7.58652 16 7.58652C15.3869 7.58652 14.7803 7.59956 14.1867 7.63218C14.7737 6.86896 15.3804 6.17098 15.9804 5.54475ZM11.1537 9.38693C10.8341 9.88922 10.5145 10.4046 10.2144 10.9329C9.91439 11.4548 9.63392 11.9767 9.36649 12.4985C9.01427 11.6244 8.71423 10.7503 8.46637 9.90227C9.32083 9.70005 10.221 9.52392 11.1537 9.38693ZM5.25071 17.554C2.94171 16.569 1.44802 15.2774 1.44802 14.2533C1.44802 13.2291 2.94171 11.931 5.25071 10.9525C5.81166 10.7111 6.42479 10.4959 7.05748 10.2937C7.42927 11.5722 7.91847 12.903 8.52507 14.2663C7.92499 15.6231 7.44232 16.9474 7.07705 18.2194C6.43131 18.0172 5.81818 17.7954 5.25071 17.554ZM8.75989 26.8757C7.87281 26.3669 7.48797 24.4295 7.78802 21.9376C7.85976 21.3244 7.97717 20.6786 8.12067 20.0198C9.3991 20.3329 10.7949 20.5743 12.2625 20.7308C13.1431 21.9376 14.0563 23.0335 14.9759 23.9924C12.8496 25.969 10.8536 27.0518 9.49694 27.0518C9.20342 27.0453 8.95557 26.9866 8.75989 26.8757ZM24.2316 21.905C24.5381 24.3969 24.1598 26.3343 23.2792 26.8496C23.0836 26.967 22.8292 27.0192 22.5291 27.0192C21.179 27.0192 19.1765 25.9429 17.0501 23.9794C17.9633 23.0205 18.8765 21.9311 19.744 20.7243C21.2181 20.5677 22.6139 20.3264 23.8924 20.0068C24.0424 20.6656 24.1598 21.2984 24.2316 21.905ZM26.7428 17.554C26.1818 17.7954 25.5687 18.0106 24.936 18.2129C24.5642 16.9343 24.075 15.6036 23.4684 14.2402C24.0685 12.8834 24.5512 11.5592 24.9164 10.2871C25.5622 10.4894 26.1753 10.7111 26.7493 10.9525C29.0583 11.9375 30.552 13.2291 30.552 14.2533C30.5455 15.2774 29.0518 16.5755 26.7428 17.554Z" transform="translate(0 2)" fill="#61DAFB"/>
<path id="Vector_2" d="M2.98084 5.96223C4.62711 5.96223 5.96168 4.62754 5.96168 2.98112C5.96168 1.33469 4.62711 0 2.98084 0C1.33457 0 0 1.33469 0 2.98112C0 4.62754 1.33457 5.96223 2.98084 5.96223Z" transform="translate(13.0127 13.2722)" fill="#61DAFB"/>
</g>
</g>
</svg>
