<svg width="32" height="32" viewBox="0 0 32 32" fill="none" xmlns="http://www.w3.org/2000/svg">
<g id="logos/typescript">
<g id="typescript">
<path id="Vector" d="M0 16V0H16H32V16V32H16H0V16Z" transform="translate(0 32) scale(1 -1)" fill="#007ACC"/>
<path id="Vector_2" d="M11.266 13.1454L11.2762 11.8349H9.19365H7.11111V5.91746V0H5.6381H4.16508V5.91746V11.8349H2.08254H0V13.12C0 13.8311 0.0152384 14.4254 0.0355558 14.4406C0.0507939 14.461 2.5854 14.4711 5.65841 14.466L11.2508 14.4508L11.266 13.1454Z" transform="translate(18.3424 29.2516) rotate(-180)" fill="white"/>
<path id="Vector_3" d="M6.66571 14.6522C7.4784 14.449 8.09809 14.0884 8.66698 13.4992C8.96158 13.1843 9.3984 12.6103 9.43396 12.4731C9.44412 12.4325 8.05237 11.4979 7.2092 10.9747C7.17872 10.9544 7.05682 11.0865 6.91967 11.2896C6.50824 11.889 6.0765 12.1481 5.41618 12.1938C4.44602 12.2598 3.82126 11.7519 3.82634 10.9036C3.82634 10.6547 3.8619 10.5074 3.96348 10.3043C4.17682 9.86235 4.57301 9.59822 5.81745 9.05981C8.10824 8.07441 9.08856 7.42425 9.69809 6.49981C10.3787 5.4687 10.5311 3.82298 10.0689 2.59885C9.56094 1.26806 8.30126 0.363934 6.52856 0.0642513C5.97999 -0.0322567 4.67967 -0.0170181 4.09047 0.0896486C2.80539 0.31822 1.58634 0.95314 0.834594 1.78616C0.539991 2.11124 -0.0339773 2.95949 0.00157835 3.02044C0.0168164 3.04076 0.14888 3.12203 0.296182 3.20838C0.438404 3.28965 0.976817 3.59949 1.48475 3.89409L2.40412 4.42743L2.59713 4.14298C2.86634 3.73155 3.45555 3.16774 3.8111 2.97981C4.83206 2.44139 6.23396 2.51759 6.92475 3.13727C7.21936 3.40647 7.34126 3.68584 7.34126 4.09727C7.34126 4.46806 7.29555 4.6306 7.10253 4.90997C6.85364 5.26552 6.3457 5.56521 4.90316 6.18997C3.25237 6.90108 2.54126 7.34298 1.8911 8.04393C1.51523 8.45028 1.15967 9.10044 1.01237 9.64393C0.890467 10.096 0.85999 11.2287 0.956498 11.6858C1.29682 13.2808 2.50063 14.3931 4.23777 14.7233C4.80158 14.83 6.11205 14.7893 6.66571 14.6522Z" transform="translate(19.1551 29.4157) scale(1 -1)" fill="white"/>
</g>
</g>
</svg>
