<svg width="64" height="64" viewBox="0 0 64 64" fill="none" xmlns="http://www.w3.org/2000/svg">
<g id="logos/typescript">
<g id="typescript">
<path id="Vector" d="M0 32V0H32H64V32V64H32H0V32Z" transform="translate(0 64) scale(1 -1)" fill="#007ACC"/>
<path id="Vector_2" d="M22.5321 26.2908L22.5524 23.6698H18.3873H14.2222V11.8349V0H11.2762H8.33016V11.8349V23.6698H4.16508H0V26.24C0 27.6622 0.0304768 28.8508 0.0711117 28.8813C0.101588 28.9219 5.17079 28.9422 11.3168 28.9321L22.5016 28.9016L22.5321 26.2908Z" transform="translate(36.6848 58.5032) rotate(-180)" fill="white"/>
<path id="Vector_3" d="M13.3314 29.3044C14.9568 28.898 16.1962 28.1768 17.334 26.9983C17.9232 26.3685 18.7968 25.2206 18.8679 24.9463C18.8882 24.865 16.1047 22.9958 14.4184 21.9495C14.3574 21.9088 14.1136 22.1729 13.8393 22.5793C13.0165 23.778 12.153 24.2961 10.8324 24.3876C8.89204 24.5196 7.64252 23.5037 7.65268 21.8072C7.65268 21.3095 7.72379 21.0149 7.92697 20.6085C8.35363 19.7247 9.14601 19.1964 11.6349 18.1196C16.2165 16.1488 18.1771 14.8485 19.3962 12.9996C20.7574 10.9374 21.0622 7.64596 20.1378 5.19771C19.1219 2.53612 16.6025 0.727868 13.0571 0.128503C11.96 -0.0645135 9.35935 -0.0340361 8.18093 0.179297C5.61077 0.63644 3.17268 1.90628 1.66919 3.57231C1.07998 4.22247 -0.0679545 5.91898 0.00315671 6.04088C0.0336327 6.08152 0.29776 6.24406 0.592363 6.41676C0.876808 6.5793 1.95363 7.19898 2.96951 7.78819L4.80824 8.85485L5.19427 8.28597C5.73268 7.46311 6.91109 6.33549 7.62221 5.95961C9.66411 4.88279 12.4679 5.03517 13.8495 6.27454C14.4387 6.81295 14.6825 7.37168 14.6825 8.19454C14.6825 8.93612 14.5911 9.2612 14.2051 9.81993C13.7073 10.531 12.6914 11.1304 9.80633 12.3799C6.50474 13.8022 5.08252 14.686 3.78221 16.0879C3.03046 16.9006 2.31935 18.2009 2.02474 19.2879C1.78093 20.192 1.71998 22.4574 1.913 23.3717C2.59363 26.5615 5.00125 28.7863 8.47554 29.4466C9.60316 29.6599 12.2241 29.5787 13.3314 29.3044Z" transform="translate(38.3102 58.8315) scale(1 -1)" fill="white"/>
</g>
</g>
</svg>
