<svg width="64" height="64" viewBox="0 0 64 64" fill="none" xmlns="http://www.w3.org/2000/svg">
<g id="logos/webpack">
<g id="webpack">
<path id="Vector" d="M28.5 0L57 15.9982V48.0018L28.5 64L0 48.0018V15.9982L28.5 0Z" transform="translate(3 64) scale(1 -1)" fill="white"/>
<path id="Vector_2" d="M48.45 42.4036L25.9814 55.0179V45.1954L39.981 37.5508L48.45 42.4036V42.4036ZM49.9891 41.0223V14.6461L41.7705 19.3601V36.3156L49.9891 41.0223V41.0223ZM1.53915 42.4036L24.0078 55.0179V45.1954L10.0008 37.5508L1.53915 42.4036ZM0 41.0223V14.6461L8.2186 19.3601V36.3156L0 41.0223ZM0.964729 12.9359L24.0078 0V9.49366L9.24225 17.5549L9.12442 17.6206L0.964729 12.9359V12.9359ZM49.0244 12.9359L25.9814 0V9.49366L40.7469 17.5476L40.8647 17.6133L49.0244 12.9359Z" transform="translate(6.46118 59.5053) scale(1 -1)" fill="#8ED6FB"/>
<path id="Vector_3" d="M13.8155 31.7625L0 24.2202V9.28903L13.8155 17.2041V31.7625ZM15.7891 31.7625L29.6047 24.2275V9.28903L15.7891 17.2041V31.7625ZM0.935272 7.56424L14.8023 0L28.6694 7.56424L14.8023 15.5085L0.935272 7.56424V7.56424Z" transform="translate(16.6534 48.3088) scale(1 -1)" fill="#1C78C0"/>
</g>
</g>
</svg>
