<svg width="32" height="32" viewBox="0 0 32 32" fill="none" xmlns="http://www.w3.org/2000/svg">
<g id="logos/webpack">
<g id="webpack">
<path id="Vector" d="M14.25 0L28.5 7.99909V24.0009L14.25 32L0 24.0009V7.99909L14.25 0Z" transform="translate(1.5 32) scale(1 -1)" fill="white"/>
<path id="Vector_2" d="M24.225 21.2018L12.9907 27.509V22.5977L19.9905 18.7754L24.225 21.2018V21.2018ZM24.9946 20.5111V7.32306L20.8853 9.68003V18.1578L24.9946 20.5111V20.5111ZM0.769574 21.2018L12.0039 27.509V22.5977L5.00039 18.7754L0.769574 21.2018ZM0 20.5111V7.32306L4.1093 9.68003V18.1578L0 20.5111ZM0.482364 6.46797L12.0039 0V4.74683L4.62112 8.77744L4.56221 8.81032L0.482364 6.46797V6.46797ZM24.5122 6.46797L12.9907 0V4.74683L20.3734 8.77378L20.4324 8.80667L24.5122 6.46797Z" transform="translate(3.23062 29.7526) scale(1 -1)" fill="#8ED6FB"/>
<path id="Vector_3" d="M6.90775 15.8812L0 12.1101V4.64451L6.90775 8.60203V15.8812ZM7.89457 15.8812L14.8023 12.1137V4.64451L7.89457 8.60203V15.8812ZM0.467636 3.78212L7.40116 0L14.3347 3.78212L7.40116 7.75425L0.467636 3.78212V3.78212Z" transform="translate(8.32675 24.1544) scale(1 -1)" fill="#1C78C0"/>
</g>
</g>
</svg>
