<svg width="64" height="64" viewBox="0 0 64 64" fill="none" xmlns="http://www.w3.org/2000/svg">
<rect width="16" height="8" rx="2" transform="translate(8 28)" fill="#AAAAAA"/>
<rect width="12" height="8" rx="2" transform="translate(36 14)" fill="#AAAAAA"/>
<path fill-rule="evenodd" clip-rule="evenodd" d="M2 0C0.895416 0 0 0.895386 0 2V6C0 7.10461 0.895416 8 2 8H14C15.1046 8 16 7.10461 16 6V2C16 0.895386 15.1046 0 14 0H2ZM8 16C8 14.8954 8.89542 14 10 14H30C31.1046 14 32 14.8954 32 16V20C32 21.1046 31.1046 22 30 22H10C8.89542 22 8 21.1046 8 20V16ZM28 30C28 28.8954 28.8954 28 30 28H62C63.1046 28 64 28.8954 64 30V34C64 35.1046 63.1046 36 62 36H30C28.8954 36 28 35.1046 28 34V30ZM10 42C8.89542 42 8 42.8954 8 44V48C8 49.1046 8.89542 50 10 50H30C31.1046 50 32 49.1046 32 48V44C32 42.8954 31.1046 42 30 42H10ZM2 56C0.895416 56 0 56.8954 0 58V62C0 63.1046 0.895416 64 2 64H14C15.1046 64 16 63.1046 16 62V58C16 56.8954 15.1046 56 14 56H2ZM38 42C36.8954 42 36 42.8954 36 44V48C36 49.1046 36.8954 50 38 50H54C55.1046 50 56 49.1046 56 48V44C56 42.8954 55.1046 42 54 42H38Z" fill="url(#paint0_linear)"/>
<defs>
<linearGradient id="paint0_linear" x2="1" gradientUnits="userSpaceOnUse" gradientTransform="scale(64)">
<stop stop-color="#532BD1"/>
<stop offset="1" stop-color="#8158FF"/>
</linearGradient>
</defs>
</svg>
