<svg width="64" height="64" viewBox="0 0 64 64" fill="none" xmlns="http://www.w3.org/2000/svg">
<g id="illustrations/design">
<g id="design">
<rect id="Rectangle" x="1" y="1" width="56" height="56" transform="translate(3 3)" stroke="#6534FF" stroke-width="2"/>
<rect id="Rectangle 2" x="0.5" y="0.5" width="7" height="7" rx="0.5" fill="#FFFAFA" stroke="#6534FF"/>
<rect id="Rectangle 2.1" x="0.5" y="0.5" width="7" height="7" rx="0.5" transform="translate(56)" fill="#FFFAFA" stroke="#6534FF"/>
<rect id="Rectangle 2.2" x="0.5" y="0.5" width="7" height="7" rx="0.5" transform="translate(56 56)" fill="#FFFAFA" stroke="#6534FF"/>
<rect id="Rectangle 2.3" x="0.5" y="0.5" width="7" height="7" rx="0.5" transform="translate(0 56)" fill="#FFFAFA" stroke="#6534FF"/>
<circle id="Ellipse" cx="12" cy="12" r="12" transform="translate(26 25)" fill="#AAAAAA"/>
<path id="Polygon" d="M14.2679 3C15.0377 1.66667 16.9622 1.66667 17.732 3L28.1244 21C28.8942 22.3333 27.9319 24 26.3923 24H5.6077C4.06809 24 3.10584 22.3333 3.87564 21L14.2679 3Z" transform="translate(14 15)" fill="url(#paint0_linear)"/>
</g>
</g>
<defs>
<linearGradient id="paint0_linear" x2="1" gradientUnits="userSpaceOnUse" gradientTransform="scale(32)">
<stop stop-color="#532BD1"/>
<stop offset="1" stop-color="#8158FF"/>
</linearGradient>
</defs>
</svg>
