<svg width="64" height="64" viewBox="0 0 64 64" fill="none" xmlns="http://www.w3.org/2000/svg">
<g id="illustrations/realization">
<g id="realization">
<rect id="Rectangle" width="18" height="8" rx="2" fill="#AAAAAA"/>
<rect id="Rectangle_2" width="18" height="8" rx="2" transform="translate(23)" fill="#AAAAAA"/>
<rect id="Rectangle_3" width="18" height="8" rx="2" transform="translate(46)" fill="#AAAAAA"/>
<path id="Union" fill-rule="evenodd" clip-rule="evenodd" d="M0 2C0 0.895447 0.895447 0 2 0H14C15.1046 0 16 0.895447 16 2V33C16 34.1046 15.1046 35 14 35H2C0.895447 35 0 34.1046 0 33V2ZM24 2C24 0.895447 24.8954 0 26 0H38C39.1046 0 40 0.895447 40 2V25C40 26.1046 39.1046 27 38 27H26C24.8954 27 24 26.1046 24 25V2ZM50 0C48.8954 0 48 0.895447 48 2V48C48 49.1046 48.8954 50 50 50H62C63.1046 50 64 49.1046 64 48V2C64 0.895447 63.1046 0 62 0H50Z" transform="translate(0 14)" fill="url(#paint0_linear)"/>
</g>
</g>
<defs>
<linearGradient id="paint0_linear" x2="1" gradientUnits="userSpaceOnUse" gradientTransform="scale(64 50)">
<stop stop-color="#532BD1"/>
<stop offset="1" stop-color="#8158FF"/>
</linearGradient>
</defs>
</svg>
