<svg width="32" height="32" viewBox="0 0 32 32" fill="none" xmlns="http://www.w3.org/2000/svg">
<g id="icons/basic/behance">
<path id="Union" fill-rule="evenodd" clip-rule="evenodd" d="M15.7803 13.3633C15.7803 12.7465 15.6187 12.2179 15.2966 11.7754C14.7598 11.0547 13.8496 10.6854 12.5632 10.6666H7.46667V21.0709H12.219C12.7549 21.0709 13.2506 21.0254 13.7091 20.9314C14.1677 20.8363 14.5641 20.6631 14.9002 20.4087C15.1993 20.1869 15.4481 19.9137 15.6468 19.59C15.9609 19.101 16.1174 18.5476 16.1174 17.9309C16.1174 17.3329 15.9799 16.8241 15.707 16.4064C15.4311 15.9875 15.0257 15.6816 14.4878 15.4877C14.842 15.3094 15.11 15.1115 15.2926 14.8956C15.6187 14.5096 15.7803 13.9978 15.7803 13.3633ZM9.56891 14.7689V12.4733H11.8648C12.3695 12.4733 12.785 12.5277 13.1121 12.6356C13.4894 12.792 13.678 13.1118 13.678 13.5979C13.678 14.0334 13.5345 14.3384 13.2496 14.5106C12.9626 14.6829 12.5903 14.7689 12.1337 14.7689H9.56891ZM9.56891 16.4905V19.2653H12.1297C12.5873 19.2653 12.9445 19.204 13.1984 19.0822C13.661 18.8545 13.8918 18.4229 13.8918 17.7833C13.8918 17.2408 13.669 16.8696 13.2205 16.6667C12.9696 16.5538 12.6174 16.4944 12.1658 16.4905H9.56891ZM18.3722 12.4465H22.8918V11.1517H18.3722V12.4465ZM23.84 14.672C23.4868 14.1533 23.0382 13.7732 22.4933 13.5336C21.9495 13.293 21.3384 13.1722 20.659 13.1722C19.5161 13.1722 18.5879 13.5297 17.8705 14.2394C17.155 14.9512 16.7968 15.9738 16.7968 17.3073C16.7968 18.7288 17.1921 19.7563 17.9879 20.387C18.7796 21.0186 19.6957 21.3334 20.7343 21.3334C21.9916 21.3334 22.97 20.9591 23.6684 20.2118C24.1159 19.7405 24.3688 19.2762 24.424 18.8209H22.3418C22.2214 19.0466 22.0809 19.2228 21.9214 19.3505C21.6314 19.5851 21.2531 19.7029 20.7905 19.7029C20.351 19.7029 19.9767 19.606 19.6656 19.4128C19.1519 19.103 18.8829 18.5615 18.8488 17.7903H24.5314C24.5404 17.1261 24.5183 16.6152 24.4631 16.2628C24.3688 15.66 24.1621 15.1294 23.84 14.672ZM18.899 16.4628C18.9733 15.9618 19.1549 15.5648 19.4429 15.2719C19.7309 14.9788 20.1383 14.8323 20.6601 14.8323C21.1417 14.8323 21.5441 14.9698 21.8712 15.2461C22.1944 15.5243 22.377 15.9281 22.4141 16.4628H18.899Z" fill="#222222"/>
</g>
</svg>
