<svg width="32" height="32" viewBox="0 0 32 32" fill="none" xmlns="http://www.w3.org/2000/svg">
<g id="icons/basic/github">
<path id="Fill 51" d="M13.683 25.5471V26H19.4581V25.5471C19.4581 25.1365 19.4716 23.7946 19.4716 22.1275C19.4716 20.9649 19.0994 20.2065 18.6816 19.8198C21.2752 19.5113 24 18.4575 24 13.6713C24 12.3109 23.5481 11.1992 22.8013 10.3266C22.9222 10.0125 23.3211 8.74529 22.6871 7.02885C22.6871 7.02885 21.7104 6.69394 19.4873 8.30618C18.5564 8.03008 17.5593 7.89161 16.5694 7.88687C15.5796 7.89161 14.5832 8.03008 13.6541 8.30618C11.4283 6.69394 10.4502 7.02885 10.4502 7.02885C9.81776 8.74529 10.2164 10.0125 10.3374 10.3266C9.59229 11.1992 9.13729 12.3109 9.13729 13.6713C9.13729 18.4461 11.8569 19.5146 14.4439 19.8297C14.1108 20.1407 13.809 20.6908 13.7044 21.496C13.0398 21.8144 11.3538 22.3652 10.315 20.4601C10.315 20.4601 9.69914 19.2637 8.52954 19.176C8.52954 19.176 7.39311 19.1601 8.44988 19.9335C8.44988 19.9335 9.21328 20.3165 9.74312 21.7569C9.74312 21.7569 10.4269 23.9809 13.6672 23.2271C13.6722 24.2684 13.683 25.25 13.683 25.5471Z" fill="#222222"/>
</g>
</svg>
