<svg width="32" height="32" viewBox="0 0 32 32" fill="none" xmlns="http://www.w3.org/2000/svg">
<g id="icons/basic/linkedin">
<path id="Union" fill-rule="evenodd" clip-rule="evenodd" d="M11.5458 9.88184C11.5223 8.8136 10.7584 8 9.51802 8C8.2776 8 7.46666 8.8136 7.46666 9.88184C7.46666 10.9279 8.25363 11.7649 9.47095 11.7649H9.49413C10.7584 11.7649 11.5458 10.9279 11.5458 9.88184ZM11.307 13.252H7.68108V24.1465H11.307V13.252ZM20.2088 12.9961C22.5948 12.9961 24.3836 14.5535 24.3836 17.8998L24.3835 24.1464H20.7576V18.3179C20.7576 16.8539 20.233 15.8549 18.9203 15.8549C17.9186 15.8549 17.3219 16.5283 17.0599 17.1788C16.964 17.4119 16.9405 17.7367 16.9405 18.0623V24.1467H13.3141C13.3141 24.1467 13.3619 14.2745 13.3141 13.2522H16.9405V14.7953C17.4217 14.0535 18.2836 12.9961 20.2088 12.9961Z" fill="#222222"/>
</g>
</svg>
