<svg width="32" height="32" viewBox="0 0 32 32" fill="none" xmlns="http://www.w3.org/2000/svg">
<g id="icons/basic/name">
<path id="Union" fill-rule="evenodd" clip-rule="evenodd" d="M16 15C18.2091 15 20 13.2091 20 11C20 8.79089 18.2091 7 16 7C13.7909 7 12 8.79089 12 11C12 13.2091 13.7909 15 16 15ZM11.4042 16.0884C11.7439 15.729 12.2993 15.7489 12.7128 16.0201C13.6569 16.6396 14.7864 17 16 17C17.2136 17 18.3431 16.6396 19.2872 16.0201C19.7007 15.7489 20.2561 15.729 20.5958 16.0884C22.069 17.6466 23 19.9413 23 22.5C23 22.78 22.7679 23 22.4879 23H9.5121C9.23207 23 9 22.78 9 22.5C9 19.9413 9.93104 17.6466 11.4042 16.0884Z" fill="#222222"/>
</g>
</svg>
