<svg width="80" height="80" viewBox="0 0 80 80" fill="none" xmlns="http://www.w3.org/2000/svg">
<path d="M42.3248 23.6387C42.3248 20.7481 40.3375 18.3162 37.6693 17.6213L43.645 0H14.0306L20.0202 17.6769C17.4354 18.4273 15.5315 20.8176 15.5315 23.6526C15.5315 25.7371 16.5738 27.5854 18.158 28.725C17.5327 29.6144 16.81 30.4343 15.9901 31.2125C14.4476 32.6578 12.7382 33.7695 10.8899 34.5061C9.22231 33.3804 8.49967 31.3932 9.15282 29.6144C11.696 28.8361 13.5443 26.4598 13.5443 23.6665C13.5443 20.2339 10.751 17.4545 7.33233 17.4545C3.89978 17.4545 1.1065 20.2478 1.1065 23.6804C1.1065 25.3758 1.80135 26.9323 2.9131 28.044C2.81582 28.2386 2.71854 28.4331 2.62127 28.6416C1.69017 30.5594 0.634005 32.7273 0.230994 35.1592C-0.575028 40.0232 0.74518 43.9282 3.92758 46.1378C5.72028 47.3746 7.69364 48 9.81988 48C13.4748 48 17.1852 46.1656 20.7707 44.3868C23.3277 43.1222 25.9681 41.802 28.5668 41.1627C29.5257 40.9265 30.5263 40.7875 31.5825 40.6346C33.7226 40.3289 35.9322 40.0093 37.9195 38.8558C40.2403 37.5078 41.8245 35.2565 42.2831 32.6717C42.6305 30.6844 42.2831 28.6833 41.3937 26.9323C41.9913 25.9734 42.3248 24.8477 42.3248 23.6387ZM39.6149 23.6387C39.6149 25.5704 38.0445 27.1407 36.1129 27.1407C34.1812 27.1407 32.6108 25.5704 32.6108 23.6387C32.6108 23.0133 32.7776 22.4158 33.0694 21.9016C33.1806 21.707 33.3196 21.5125 33.4586 21.3457C33.5975 21.1789 33.7643 21.0261 33.9449 20.8871L33.9588 20.8732C34.07 20.7898 34.1951 20.7064 34.3202 20.623C34.3202 20.623 34.3341 20.623 34.3341 20.6091C34.3897 20.5814 34.4452 20.5397 34.5008 20.5119C34.5147 20.5119 34.5286 20.498 34.5425 20.498C34.5981 20.4702 34.6676 20.4424 34.7371 20.4146C34.8066 20.3868 34.876 20.359 34.9316 20.3312C34.9455 20.3312 34.9594 20.3173 34.9733 20.3173C35.0289 20.3034 35.0845 20.2756 35.1401 20.2617C35.154 20.2617 35.1818 20.2478 35.1957 20.2478C35.2652 20.2339 35.3207 20.22 35.3902 20.2061H35.4041C35.4736 20.1922 35.5431 20.1783 35.6126 20.1644C35.6265 20.1644 35.6543 20.1644 35.6682 20.1506C35.7238 20.1506 35.7793 20.1367 35.8349 20.1367C35.8627 20.1367 35.8766 20.1367 35.9044 20.1367C35.9739 20.1367 36.0434 20.1228 36.1268 20.1228C36.1824 20.1228 36.2379 20.1228 36.3074 20.1228C36.363 20.1228 36.4047 20.1228 36.4603 20.1367C36.4742 20.1367 36.4742 20.1367 36.4881 20.1367C36.5993 20.1505 36.7104 20.1644 36.8216 20.1922C38.4059 20.5258 39.6149 21.9433 39.6149 23.6387ZM17.9079 2.77939H39.7678L34.751 17.5796C34.5425 17.6213 34.3341 17.6908 34.1256 17.7603L28.8448 6.99016L23.55 17.6908C23.3416 17.6213 23.1192 17.5796 22.8969 17.5379L17.9079 2.77939ZM27.8442 22.4296C27.5802 21.1233 26.9131 19.956 25.9681 19.0944L28.8448 13.2855L31.7492 19.2195C30.8876 20.0811 30.2623 21.1789 30.0121 22.4296H27.8442ZM20.8818 20.2339C20.9513 20.22 21.0069 20.2061 21.0764 20.1922C21.0903 20.1922 21.1042 20.1922 21.1181 20.1922C21.1737 20.1783 21.2293 20.1783 21.2848 20.1644C21.2987 20.1644 21.3126 20.1644 21.3404 20.1644C21.396 20.1644 21.4377 20.1506 21.4933 20.1506C21.5072 20.1506 21.535 20.1506 21.5489 20.1506C21.6184 20.1506 21.6879 20.1506 21.7573 20.1506C21.8268 20.1506 21.8963 20.1506 21.9658 20.1506C21.9936 20.1506 22.0075 20.1506 22.0353 20.1506C22.0909 20.1506 22.1326 20.1644 22.1742 20.1644C22.202 20.1644 22.2159 20.1644 22.2437 20.1783C22.2993 20.1922 22.341 20.1922 22.3966 20.2061C22.4105 20.2061 22.4244 20.2061 22.4522 20.22C22.5217 20.2339 22.5912 20.2478 22.6467 20.2617C22.6606 20.2617 22.6606 20.2617 22.6606 20.2617C22.7162 20.2756 22.7718 20.2895 22.8274 20.3173C22.8413 20.3173 22.8552 20.3312 22.883 20.3312C22.9247 20.3451 22.9803 20.359 23.022 20.3868C23.0359 20.3868 23.0498 20.4007 23.0637 20.4007C23.1192 20.4285 23.1748 20.4424 23.2304 20.4702H23.2443C23.3138 20.498 23.3694 20.5258 23.425 20.5675C23.425 20.5675 23.425 20.5675 23.4389 20.5675C23.4945 20.5953 23.55 20.6369 23.6056 20.6647C23.6195 20.6647 23.6195 20.6786 23.6334 20.6786C23.689 20.7064 23.7307 20.7481 23.7863 20.7759L23.8002 20.7898C23.967 20.9149 24.1198 21.0539 24.2727 21.1928L24.2866 21.2067C24.4256 21.3596 24.5645 21.5263 24.6757 21.707C25.037 22.2629 25.2455 22.916 25.2455 23.6248C25.2455 25.5565 23.6751 27.1268 21.7434 27.1268C19.8118 27.1268 18.2414 25.5565 18.2414 23.6248C18.2275 21.9988 19.3532 20.623 20.8818 20.2339ZM7.20725 20.1367C9.13893 20.1367 10.7093 21.707 10.7093 23.6387C10.7093 25.5704 9.13893 27.1407 7.20725 27.1407C5.27558 27.1407 3.70523 25.5704 3.70523 23.6387C3.70523 21.707 5.27558 20.1367 7.20725 20.1367ZM39.5315 32.1853C39.2258 33.9641 38.1279 35.5206 36.5159 36.4516C35.0011 37.3272 33.1389 37.6051 31.1795 37.883C30.1094 38.0359 28.9837 38.2027 27.8998 38.4667C25.0092 39.1754 22.2298 40.5651 19.5338 41.8992C16.0874 43.6086 12.8355 45.2206 9.81988 45.2206C8.24952 45.2206 6.84593 44.7759 5.51183 43.8448C2.4545 41.7325 2.60737 37.7719 2.96869 35.6039C3.30222 33.575 4.23331 31.6711 5.12271 29.8506C5.1783 29.7394 5.21999 29.6422 5.27558 29.531C5.58131 29.6422 5.90094 29.7255 6.23447 29.7811C5.70638 32.7273 7.20725 35.7707 10.1256 37.2716L10.6537 37.5495L11.2235 37.3411C13.6554 36.4794 15.9067 35.0759 17.894 33.1998C19.0196 32.1436 19.9785 31.0041 20.7846 29.7672C21.1042 29.8228 21.4238 29.8367 21.7434 29.8367C24.634 29.8367 27.066 27.8495 27.7608 25.1812H30.0955C30.7903 27.8633 33.2223 29.8367 36.1129 29.8367C37.2663 29.8367 38.3364 29.5171 39.2536 28.9751C39.6149 30.0174 39.7261 31.1013 39.5315 32.1853Z" transform="translate(18 16)" fill="#99425B"/>
</svg>
