<svg width="80" height="80" viewBox="0 0 80 80" fill="none" xmlns="http://www.w3.org/2000/svg">
<path d="M21.5 0L43 11.9986V36.0014L21.5 48L0 36.0014V11.9986L21.5 0Z" transform="translate(18 64) scale(1 -1)" fill="white"/>
<path d="M36.55 31.8027L19.6 41.2634V33.8965L30.1611 28.1631L36.55 31.8027V31.8027ZM37.7111 30.7667V10.9846L31.5111 14.52V27.2367L37.7111 30.7667V30.7667ZM1.16111 31.8027L18.1111 41.2634V33.8965L7.54444 28.1631L1.16111 31.8027ZM0 30.7667V10.9846L6.2 14.52V27.2367L0 30.7667ZM0.727778 9.70195L18.1111 0V7.12025L6.97222 13.1662L6.88333 13.2155L0.727778 9.70195V9.70195ZM36.9833 9.70195L19.6 0V7.12025L30.7389 13.1607L30.8278 13.21L36.9833 9.70195Z" transform="translate(20.6111 60.629) scale(1 -1)" fill="#8ED6FB"/>
<path d="M10.4222 23.8219L0 18.1651V6.96677L10.4222 12.903V23.8219ZM11.9111 23.8219L22.3333 18.1706V6.96677L11.9111 12.903V23.8219ZM0.705556 5.67318L11.1667 0L21.6278 5.67318L11.1667 11.6314L0.705556 5.67318V5.67318Z" transform="translate(28.3 52.2317) scale(1 -1)" fill="#1C78C0"/>
</svg>
