<svg width="80" height="80" viewBox="0 0 80 80" fill="none" xmlns="http://www.w3.org/2000/svg">
<path d="M48 0H0V48H48V0Z" transform="translate(16 16)" fill="#F7DF1E"/>
<path d="M19.6053 15.7181C20.5722 17.2968 21.8301 18.4571 24.0549 18.4571C25.9238 18.4571 27.1177 17.523 27.1177 16.2324C27.1177 14.6857 25.891 14.1379 23.8339 13.2381L22.7063 12.7543C19.4514 11.3676 17.2891 9.63047 17.2891 5.95809C17.2891 2.57524 19.8667 0 23.8949 0C26.7627 0 28.8244 0.998095 30.3101 3.61143L26.7977 5.86667C26.0244 4.48 25.1901 3.93371 23.8949 3.93371C22.5737 3.93371 21.7364 4.77181 21.7364 5.86667C21.7364 7.21981 22.5745 7.76762 24.5097 8.60571L25.6373 9.08876C29.4697 10.7322 31.6335 12.4076 31.6335 16.1745C31.6335 20.2354 28.4434 22.4602 24.1592 22.4602C19.9703 22.4602 17.264 20.464 15.9398 17.8476L19.6053 15.7181ZM3.67162 16.109C4.38019 17.3661 5.02476 18.429 6.57448 18.429C8.05638 18.429 8.99124 17.8491 8.99124 15.5947V0.257522H13.5017V15.6556C13.5017 20.3261 10.7634 22.4518 6.76648 22.4518C3.15505 22.4518 1.06362 20.5829 0 18.3318L3.67162 16.109Z" transform="translate(28.6385 37.7821)" fill="black"/>
</svg>
