<svg width="80" height="80" viewBox="0 0 80 80" fill="none" xmlns="http://www.w3.org/2000/svg">
<path d="M48 21.5049C48 18.3062 44.0179 15.2749 37.9128 13.3951C39.3216 7.1355 38.6955 2.15541 35.9364 0.560998C35.3004 0.186999 34.5569 0.00984192 33.7448 0.00984192V2.20462C34.1949 2.20462 34.5569 2.2932 34.8602 2.46052C36.1908 3.2282 36.768 6.15129 36.318 9.91096C36.2104 10.8361 36.0342 11.8105 35.819 12.8045C33.9013 12.3321 31.8076 11.968 29.6062 11.7317C28.2854 9.91096 26.9156 8.2575 25.5361 6.81071C28.7256 3.82856 31.7195 2.19478 33.7546 2.19478V0C31.064 0 27.5418 1.92905 23.9804 5.27535C20.4191 1.94873 16.8969 0.0393684 14.2063 0.0393684V2.23415C16.2316 2.23415 19.2352 3.85809 22.4248 6.82055C21.055 8.26734 19.6853 9.91096 18.384 11.7317C16.1729 11.968 14.0791 12.3321 12.1614 12.8144C11.9364 11.8302 11.7701 10.8755 11.6527 9.96017C11.1928 6.2005 11.7603 3.27741 13.0811 2.49989C13.3746 2.32273 13.7562 2.24399 14.2063 2.24399V0.0492103C13.3844 0.0492103 12.6408 0.226367 11.9951 0.600366C9.24582 2.19478 8.62943 7.16503 10.0481 13.4049C3.96249 15.2946 0 18.3161 0 21.5049C0 24.7036 3.98206 27.7349 10.0872 29.6148C8.67835 35.8743 9.30453 40.8544 12.0636 42.4488C12.6996 42.8228 13.4431 43 14.265 43C16.9556 43 20.4778 41.071 24.0391 37.7246C27.6005 41.0513 31.1227 42.9606 33.8133 42.9606C34.6351 42.9606 35.3787 42.7835 36.0245 42.4095C38.7737 40.8151 39.3901 35.8448 37.9715 29.6049C44.0375 27.7251 48 24.6938 48 21.5049ZM35.2613 14.9403C34.8993 16.2099 34.4492 17.5189 33.9405 18.8279C33.5393 18.0405 33.1186 17.2531 32.6588 16.4658C32.2087 15.6784 31.7293 14.9107 31.2499 14.1627C32.6392 14.3694 33.9796 14.6253 35.2613 14.9403ZM30.7803 25.4221C30.0171 26.7507 29.2344 28.0105 28.4223 29.1817C26.9645 29.3097 25.4872 29.3786 24 29.3786C22.5226 29.3786 21.0453 29.3097 19.5972 29.1916C18.7852 28.0204 17.9927 26.7704 17.2295 25.4516C16.4859 24.1623 15.8108 22.8533 15.1945 21.5344C15.8011 20.2156 16.4859 18.8968 17.2197 17.6075C17.9829 16.2788 18.7656 15.019 19.5777 13.8478C21.0355 13.7198 22.5128 13.6509 24 13.6509C25.4774 13.6509 26.9547 13.7198 28.4028 13.8379C29.2148 15.0092 30.0073 16.2591 30.7705 17.5779C31.5141 18.8672 32.1892 20.1762 32.8055 21.4951C32.1892 22.8139 31.5141 24.1328 30.7803 25.4221ZM33.9405 24.1426C34.4688 25.4614 34.9189 26.7803 35.2907 28.0597C34.009 28.3747 32.6588 28.6404 31.2597 28.8471C31.7391 28.0893 32.2185 27.3117 32.6686 26.5145C33.1186 25.7272 33.5393 24.93 33.9405 24.1426ZM24.0196 34.6441C23.1097 33.6992 22.1998 32.6461 21.2996 31.4946C22.1802 31.534 23.0803 31.5635 23.9902 31.5635C24.9099 31.5635 25.8198 31.5438 26.7102 31.4946C25.8296 32.6461 24.9197 33.6992 24.0196 34.6441ZM16.7403 28.8471C15.351 28.6404 14.0106 28.3845 12.7289 28.0696C13.0909 26.8 13.541 25.491 14.0497 24.182C14.4509 24.9693 14.8716 25.7567 15.3314 26.5441C15.7913 27.3314 16.2609 28.0991 16.7403 28.8471ZM23.9707 8.36576C24.8806 9.3106 25.7905 10.3637 26.6906 11.5152C25.81 11.4759 24.9099 11.4463 24 11.4463C23.0803 11.4463 22.1704 11.466 21.2801 11.5152C22.1606 10.3637 23.0705 9.3106 23.9707 8.36576ZM16.7305 14.1627C16.2511 14.9206 15.7717 15.6981 15.3216 16.4953C14.8716 17.2827 14.4509 18.07 14.0497 18.8574C13.5214 17.5386 13.0713 16.2197 12.6996 14.9403C13.9812 14.6352 15.3314 14.3694 16.7305 14.1627ZM7.87607 26.485C4.41256 24.9989 2.17203 23.0501 2.17203 21.5049C2.17203 19.9597 4.41256 18.0011 7.87607 16.5248C8.71749 16.1607 9.63718 15.8359 10.5862 15.5308C11.1439 17.4598 11.8777 19.4676 12.7876 21.5246C11.8875 23.5718 11.1635 25.5697 10.6156 27.4889C9.64696 27.1838 8.72727 26.8492 7.87607 26.485ZM13.1398 40.5493C11.8092 39.7816 11.232 36.8585 11.682 33.0989C11.7896 32.1737 11.9658 31.1994 12.181 30.2053C14.0987 30.6777 16.1924 31.0419 18.3938 31.2781C19.7146 33.0989 21.0844 34.7523 22.4639 36.1991C19.2744 39.1813 16.2805 40.8151 14.2454 40.8151C13.8051 40.8052 13.4333 40.7166 13.1398 40.5493ZM36.3473 33.0497C36.8072 36.8093 36.2397 39.7324 34.9189 40.51C34.6254 40.6871 34.2438 40.7658 33.7937 40.7658C31.7684 40.7658 28.7648 39.1419 25.5752 36.1794C26.945 34.7327 28.3147 33.089 29.616 31.2683C31.8272 31.032 33.9209 30.6679 35.8386 30.1856C36.0636 31.1797 36.2397 32.1344 36.3473 33.0497ZM40.1141 26.485C39.2727 26.8492 38.353 27.174 37.404 27.4791C36.8463 25.55 36.1125 23.5422 35.2026 21.4852C36.1027 19.4381 36.8267 17.4401 37.3746 15.5209C38.3433 15.826 39.2629 16.1607 40.1239 16.5248C43.5874 18.011 45.828 19.9597 45.828 21.5049C45.8182 23.0501 43.5777 25.0087 40.1141 26.485Z" transform="translate(16 19)" fill="#61DAFB"/>
<path d="M4.47126 8.99565C6.94067 8.99565 8.94252 6.98191 8.94252 4.49783C8.94252 2.01374 6.94067 0 4.47126 0C2.00185 0 0 2.01374 0 4.49783C0 6.98191 2.00185 8.99565 4.47126 8.99565Z" transform="translate(35.519 36.0072)" fill="#61DAFB"/>
</svg>
