<svg width="80" height="80" viewBox="0 0 80 80" fill="none" xmlns="http://www.w3.org/2000/svg">
<path d="M24 0C10.7452 0 0 10.7451 0 24C0 37.2549 10.7452 48 24 48C37.2549 48 48 37.2549 48 24C48 10.7451 37.2549 0 24 0ZM5.15699 24.2502L23.7498 42.843C13.5402 42.7099 5.29003 34.4597 5.15699 24.2502ZM28.218 42.3719L5.62813 19.782C7.54365 11.4044 15.0417 5.15384 24 5.15384C30.262 5.15384 35.8097 8.20877 39.2368 12.9087L36.6274 15.2111C33.8474 11.2245 29.2287 8.61538 24 8.61538C17.3428 8.61538 11.6737 12.844 9.53084 18.7616L29.2385 38.4692C34.0245 36.7361 37.7053 32.696 38.9381 27.6923H30.7692V24H39.3846V24H42.8462V24C42.8462 32.9583 36.5957 40.4563 28.218 42.3719Z" transform="translate(16 16)" fill="#744C9E"/>
</svg>
