<svg width="32" height="32" viewBox="0 0 32 32" fill="none" xmlns="http://www.w3.org/2000/svg">
<path fill-rule="evenodd" clip-rule="evenodd" d="M32 16C32 24.8365 24.8366 32 16 32C7.16344 32 0 24.8365 0 16C0 7.16345 7.16344 0 16 0C24.8366 0 32 7.16345 32 16ZM24.2303 16.0885C24.2303 16.6801 24.1661 17.2557 24.0426 17.8118C24.3567 18.4349 24.5333 19.1362 24.5333 19.8792C24.5333 22.4491 22.4201 24.5333 19.8131 24.5333C19.0053 24.5333 18.2467 24.3325 17.5814 23.9803C17.0978 24.0684 16.6001 24.1149 16.0903 24.1149C11.5948 24.1149 7.95032 20.5221 7.95032 16.0885C7.95032 15.5366 8.00752 14.9965 8.11488 14.4762C7.70348 13.7837 7.46666 12.9805 7.46666 12.1218C7.46666 9.54993 9.57993 7.46667 12.1879 7.46667C13.1101 7.46667 13.971 7.72876 14.6985 8.18091C15.1521 8.10376 15.6167 8.06311 16.0903 8.06311C20.5868 8.06311 24.2303 11.657 24.2303 16.0885Z" fill="#222222"/>
<path fill-rule="evenodd" clip-rule="evenodd" d="M8.97284 9.48247C8.59655 10.0087 8.04064 10.4242 7.31816 10.719C6.6047 11.0118 5.74976 11.1611 4.77542 11.1611C3.6064 11.1611 2.62603 10.9584 1.8604 10.5577C1.31352 10.2669 0.862966 9.8732 0.52079 9.38454C0.1746 8.8939 0 8.40622 0 7.93437C0 7.64157 0.114393 7.38636 0.339166 7.17763C0.561932 6.9699 0.847915 6.86604 1.18909 6.86604C1.46805 6.86604 1.70988 6.94814 1.90555 7.11136C2.0932 7.26864 2.25375 7.5011 2.38319 7.79885C2.52769 8.12529 2.68423 8.40029 2.8498 8.61494C3.01035 8.82465 3.24014 8.99974 3.53315 9.13724C3.82816 9.27375 4.22653 9.34497 4.71521 9.34497C5.38852 9.34497 5.94042 9.20253 6.35484 8.92357C6.76124 8.65154 6.95792 8.32313 6.95792 7.92151C6.95792 7.60596 6.85456 7.35668 6.64384 7.16082C6.42107 6.95704 6.12907 6.79877 5.77485 6.68798C5.40458 6.57521 4.90285 6.45156 4.28172 6.32297C3.43581 6.14491 2.71834 5.93421 2.14839 5.69383C1.56438 5.4495 1.09376 5.11021 0.749577 4.68584C0.400376 4.25356 0.222766 3.71247 0.222766 3.07641C0.222766 2.47102 0.408404 1.92399 0.775666 1.45313C1.13892 0.985243 1.67074 0.619239 2.3561 0.37095C3.03142 0.124639 3.83418 0 4.74431 0C5.47081 0 6.11 0.0830928 6.64384 0.2473C7.18068 0.411507 7.63224 0.633088 7.98746 0.907096C8.34569 1.18407 8.61261 1.47786 8.77918 1.78452C8.94776 2.09414 9.03405 2.40178 9.03405 2.69953C9.03405 2.98639 8.92167 3.24754 8.69991 3.47407C8.47714 3.70356 8.19517 3.8193 7.86403 3.8193C7.563 3.8193 7.32618 3.7461 7.16362 3.60366C7.0111 3.47011 6.85256 3.26238 6.67695 2.96562C6.47426 2.58577 6.22841 2.28604 5.94644 2.07435C5.6725 1.8686 5.21593 1.76572 4.58677 1.76572C4.00477 1.76572 3.52913 1.88047 3.17692 2.10897C2.83775 2.32759 2.67219 2.57983 2.67219 2.87857C2.67219 3.06058 2.72537 3.21391 2.83575 3.34448C2.95014 3.48495 3.1137 3.60563 3.32041 3.70851C3.53415 3.81435 3.75491 3.89943 3.97567 3.95878C4.20144 4.0211 4.58075 4.11309 5.10154 4.2318C5.7608 4.37029 6.36588 4.52757 6.90072 4.69672C7.44359 4.86686 7.91119 5.07657 8.29451 5.32288C8.68385 5.57315 8.99191 5.89365 9.21166 6.27746C9.43142 6.66424 9.5428 7.13906 9.5428 7.69202C9.5428 8.3528 9.35014 8.95523 8.97284 9.48247V9.48247V9.48247Z" transform="translate(11.2928 10.4422)" fill="#222222"/>
</svg>
