<svg width="32" height="32" viewBox="0 0 32 32" fill="none" xmlns="http://www.w3.org/2000/svg">
<path fill-rule="evenodd" clip-rule="evenodd" d="M32 16C32 24.8365 24.8366 32 16 32C7.16344 32 0 24.8365 0 16C0 7.16345 7.16344 0 16 0C24.8366 0 32 7.16345 32 16ZM16.597 25.4238C18.0852 25.4238 23.9831 18.735 23.9831 14.2505C23.9831 9.95776 20.6289 6.40002 16.597 6.40002C12.354 6.40002 9 9.95776 9 14.2505C9 18.735 14.8978 25.4238 16.597 25.4238ZM20 13.5C20 15.433 18.433 17 16.5 17C14.567 17 13 15.433 13 13.5C13 11.567 14.567 10 16.5 10C18.433 10 20 11.567 20 13.5Z" fill="#222222"/>
</svg>
