<svg width="80" height="80" viewBox="0 0 80 80" fill="none" xmlns="http://www.w3.org/2000/svg">
<path d="M0 24V0H24H48V24V48H24H0V24Z" transform="translate(16 64) scale(1 -1)" fill="#007ACC"/>
<path d="M16.899 19.7181L16.9143 17.7524H13.7905H10.6667V8.87619V0H8.45714H6.24762V8.87619V17.7524H3.12381H0V19.68C0 20.7467 0.0228576 21.6381 0.0533338 21.661C0.0761909 21.6914 3.8781 21.7067 8.48762 21.699L16.8762 21.6762L16.899 19.7181Z" transform="translate(43.5136 59.8773) rotate(-180)" fill="white"/>
<path d="M9.99856 21.9783C11.2176 21.6735 12.1471 21.1326 13.0005 20.2488C13.4424 19.7764 14.0976 18.9154 14.1509 18.7097C14.1662 18.6488 12.0786 17.2469 10.8138 16.4621C10.7681 16.4316 10.5852 16.6297 10.3795 16.9345C9.76237 17.8335 9.11475 18.2221 8.12427 18.2907C6.66903 18.3897 5.73189 17.6278 5.73951 16.3554C5.73951 15.9821 5.79284 15.7611 5.94522 15.4564C6.26522 14.7935 6.85951 14.3973 8.72618 13.5897C12.1624 12.1116 13.6328 11.1364 14.5471 9.74971C15.5681 8.20305 15.7967 5.73447 15.1033 3.89828C14.3414 1.90209 12.4519 0.545901 9.79284 0.0963769C8.96999 -0.0483851 7.01951 -0.0255271 6.1357 0.134473C4.20808 0.47733 2.37951 1.42971 1.25189 2.67923C0.809986 3.16685 -0.0509659 4.43923 0.00236753 4.53066C0.0252245 4.56114 0.22332 4.68304 0.444273 4.81257C0.657606 4.93447 1.46523 5.39923 2.22713 5.84114L3.60618 6.64114L3.8957 6.21447C4.29951 5.59733 5.18332 4.75162 5.71665 4.46971C7.24808 3.66209 9.35094 3.77638 10.3871 4.7059C10.829 5.10971 11.0119 5.52876 11.0119 6.1459C11.0119 6.70209 10.9433 6.9459 10.6538 7.36495C10.2805 7.89828 9.51856 8.34781 7.35475 9.28495C4.87856 10.3516 3.81189 11.0145 2.83665 12.0659C2.27284 12.6754 1.73951 13.6507 1.51856 14.4659C1.3357 15.144 1.28999 16.843 1.43475 17.5288C1.94522 19.9211 3.75094 21.5897 6.35665 22.0849C7.20237 22.2449 9.16808 22.184 9.99856 21.9783Z" transform="translate(44.7327 60.1237) scale(1 -1)" fill="white"/>
</svg>
