<svg width="80" height="80" viewBox="0 0 80 80" fill="none" xmlns="http://www.w3.org/2000/svg">
<path fill-rule="evenodd" clip-rule="evenodd" d="M38.7431 36.5687L22.5471 1.51541C22.3461 1.08375 22.0342 0.715548 21.6445 0.449802C21.2549 0.184057 20.802 0.0306613 20.3338 0.00586098C19.8649 -0.0261607 19.3964 0.0734726 18.9792 0.293925C18.562 0.514378 18.2121 0.847209 17.9675 1.25622L0.401163 30.2533C0.134039 30.6912 -0.00507159 31.1977 0.000141312 31.7133C0.00535422 32.2289 0.154674 32.7323 0.430595 33.1644L9.01891 46.7204C9.34383 47.2293 9.82144 47.6175 10.3805 47.827C10.9396 48.0366 11.5501 48.0563 12.1211 47.8832L37.0443 40.369C37.4195 40.2572 37.7668 40.0646 38.0628 39.8041C38.3587 39.5437 38.5963 39.2216 38.7596 38.8595C38.9206 38.4993 39.0026 38.1076 38.9999 37.7118C38.9973 37.316 38.9089 36.9267 38.7431 36.5687ZM35.117 38.0735L13.9682 44.4465C13.3231 44.6421 12.7038 44.0721 12.838 43.4073L20.3939 6.53246C20.5351 5.84248 21.4699 5.73209 21.7654 6.37167L35.7528 36.6467C35.8146 36.7817 35.847 36.9288 35.8476 37.0778C35.8482 37.2267 35.8171 37.3741 35.7565 37.5096C35.6958 37.6451 35.607 37.7656 35.4962 37.8628C35.3854 37.9599 35.2552 38.0314 35.1147 38.0723L35.117 38.0735Z" transform="translate(21 16)" fill="#0C344B"/>
</svg>
