<svg width="80" height="80" viewBox="0 0 80 80" fill="none" xmlns="http://www.w3.org/2000/svg">
<path d="M2.00908 0H0V39.0962H2.00908V0Z" transform="matrix(-0.862283 -0.506383 0.493644 -0.869639 22.8235 52.5835)" fill="#E535AB"/>
<path d="M38.5992 0H0V2.03473H38.5992V0Z" transform="translate(20.6944 48.8499)" fill="#E535AB"/>
<path d="M22.3904 0H0V2.02621H22.3904V0Z" transform="matrix(-0.862283 -0.506383 0.493644 -0.869639 40.765 61.3311)" fill="#E535AB"/>
<path d="M22.3904 0H0V2.02622H22.3904V0Z" transform="matrix(-0.862283 -0.506383 0.493644 -0.869639 57.5368 31.7809)" fill="#E535AB"/>
<path d="M2.02622 0H0V22.3904H2.02622V0Z" transform="matrix(-0.493644 -0.869639 0.862283 -0.506383 22.4637 31.7733)" fill="#E535AB"/>
<path d="M39.0962 0H0V2.00908H39.0962V0Z" transform="matrix(-0.493644 -0.869639 0.862283 -0.506383 57.1808 52.5837)" fill="#E535AB"/>
<path d="M2.00046 0H0V22.6762H2.00046V0Z" transform="translate(22.2248 28.662)" fill="#E535AB"/>
<path d="M2.00046 0H0V22.6762H2.00046V0Z" transform="translate(55.7747 28.662)" fill="#E535AB"/>
<path d="M1.76989 0H0V19.4736H1.76989V0Z" transform="matrix(-0.493644 -0.869639 0.862283 -0.506383 40.4244 60.4697)" fill="#E535AB"/>
<path d="M7.85241 6.41799C6.69552 8.46497 4.11661 9.16365 2.1041 7.98694C0.0915942 6.81022 -0.595309 4.18714 0.561583 2.14015C1.71847 0.0931647 4.29738 -0.605508 6.30989 0.571203C8.33445 1.76017 9.02135 4.371 7.85241 6.41799Z" transform="translate(52.574 45.5819)" fill="#E535AB"/>
<path d="M7.85241 6.41799C6.69552 8.46497 4.11661 9.16364 2.1041 7.98693C0.0915953 6.81022 -0.595309 4.18714 0.561582 2.14015C1.71847 0.093164 4.29738 -0.605508 6.30989 0.571204C8.3224 1.76017 9.0093 4.371 7.85241 6.41799Z" transform="translate(19 25.8599)" fill="#E535AB"/>
<path d="M0.561583 6.41799C-0.595309 4.371 0.0915951 1.76017 2.1041 0.571203C4.11661 -0.605508 6.68347 0.0931647 7.85241 2.14015C9.0093 4.18714 8.3224 6.79797 6.30989 7.98694C4.28533 9.16365 1.71847 8.46497 0.561583 6.41799Z" transform="translate(19.0121 45.5819)" fill="#E535AB"/>
<path d="M0.561583 6.41799C-0.595309 4.371 0.0915942 1.76017 2.1041 0.571204C4.11661 -0.605508 6.68347 0.093164 7.85241 2.14015C9.0093 4.18714 8.3224 6.79797 6.30989 7.98693C4.29738 9.16364 1.71847 8.46497 0.561583 6.41799Z" transform="translate(52.586 25.8599)" fill="#E535AB"/>
<path d="M4.20578 8.55567C1.87995 8.55567 0 6.64351 0 4.27783C0 1.91215 1.87995 0 4.20578 0C6.53162 0 8.41156 1.91215 8.41156 4.27783C8.41156 6.63126 6.53162 8.55567 4.20578 8.55567Z" transform="translate(35.7942 55.4443)" fill="#E535AB"/>
<path d="M4.20578 8.55567C1.87995 8.55567 0 6.64351 0 4.27783C0 1.91216 1.87995 0 4.20578 0C6.53162 0 8.41156 1.91216 8.41156 4.27783C8.41156 6.64351 6.53162 8.55567 4.20578 8.55567Z" transform="translate(35.7942 16)" fill="#E535AB"/>
</svg>
