<svg width="352" height="270" viewBox="0 0 352 270" fill="none" xmlns="http://www.w3.org/2000/svg">
<g id="illustrations/design-alt">
<g id="layout">
<g id="neutral">
<rect id="Rectangle" x="32.4923" y="32.4" width="216.615" height="21.6" rx="2" fill="#DDDDDD"/>
<rect id="Rectangle_2" x="32.4923" y="86.4" width="281.6" height="10.8" rx="2" fill="#DDDDDD"/>
<rect id="Rectangle_3" x="32.4923" y="129.6" width="281.6" height="10.8" rx="2" fill="#DDDDDD"/>
<rect id="Rectangle 2.1" x="129.969" y="151.2" width="86.6461" height="86.4" rx="2" fill="#DDDDDD"/>
<rect id="Rectangle 2.2" x="227.446" y="151.2" width="86.6461" height="86.4" rx="2" fill="#DDDDDD"/>
<rect id="Rectangle_4" x="32.4923" y="64.7998" width="270.769" height="10.8" rx="2" fill="#DDDDDD"/>
<rect id="Rectangle_5" x="32.4923" y="108" width="270.769" height="10.8" rx="2" fill="#DDDDDD"/>
<rect id="Rectangle 2" x="32.4923" y="151.2" width="86.6461" height="86.4" rx="2" fill="#DDDDDD"/>
</g>
</g>
<g id="editing">
<g id="brand">
<g id="outline (Stroke)">
<mask id="path-9-inside-1" fill="white">
<path fill-rule="evenodd" clip-rule="evenodd" d="M313.446 65.4497H34.4923V139.75H313.446V65.4497ZM32.4923 63.4497V141.75H315.446V63.4497H32.4923Z"/>
</mask>
<path fill-rule="evenodd" clip-rule="evenodd" d="M313.446 65.4497H34.4923V139.75H313.446V65.4497ZM32.4923 63.4497V141.75H315.446V63.4497H32.4923Z" fill="#6534FF"/>
<path d="M34.4923 65.4497V63.4497H32.4923V65.4497H34.4923ZM313.446 65.4497H315.446V63.4497H313.446V65.4497ZM34.4923 139.75H32.4923V141.75H34.4923V139.75ZM313.446 139.75V141.75H315.446V139.75H313.446ZM32.4923 63.4497V61.4497H30.4923V63.4497H32.4923ZM32.4923 141.75H30.4923V143.75H32.4923V141.75ZM315.446 141.75V143.75H317.446V141.75H315.446ZM315.446 63.4497H317.446V61.4497H315.446V63.4497ZM34.4923 67.4497H313.446V63.4497H34.4923V67.4497ZM36.4923 139.75V65.4497H32.4923V139.75H36.4923ZM313.446 137.75H34.4923V141.75H313.446V137.75ZM311.446 65.4497V139.75H315.446V65.4497H311.446ZM32.4923 65.4497H315.446V61.4497H32.4923V65.4497ZM34.4923 141.75V63.4497H30.4923V141.75H34.4923ZM315.446 139.75H32.4923V143.75H315.446V139.75ZM313.446 63.4497V141.75H317.446V63.4497H313.446Z" fill="#6534FF" mask="url(#path-9-inside-1)"/>
</g>
<g id="handle (Stroke)">
<mask id="path-11-inside-2" fill="white">
<path fill-rule="evenodd" clip-rule="evenodd" d="M38.2615 60.4H29.4307V69.2H38.2615V60.4ZM28.4307 59.4V70.2H39.2615V59.4H28.4307Z"/>
</mask>
<path fill-rule="evenodd" clip-rule="evenodd" d="M38.2615 60.4H29.4307V69.2H38.2615V60.4ZM28.4307 59.4V70.2H39.2615V59.4H28.4307Z" fill="#FFFAFA"/>
<path d="M29.4307 60.4V59.4H28.4307V60.4H29.4307ZM38.2615 60.4H39.2615V59.4H38.2615V60.4ZM29.4307 69.2H28.4307V70.2H29.4307V69.2ZM38.2615 69.2V70.2H39.2615V69.2H38.2615ZM28.4307 59.4V58.4H27.4307V59.4H28.4307ZM28.4307 70.2H27.4307V71.2H28.4307V70.2ZM39.2615 70.2V71.2H40.2615V70.2H39.2615ZM39.2615 59.4H40.2615V58.4H39.2615V59.4ZM29.4307 61.4H38.2615V59.4H29.4307V61.4ZM30.4307 69.2V60.4H28.4307V69.2H30.4307ZM38.2615 68.2H29.4307V70.2H38.2615V68.2ZM37.2615 60.4V69.2H39.2615V60.4H37.2615ZM28.4307 60.4H39.2615V58.4H28.4307V60.4ZM29.4307 70.2V59.4H27.4307V70.2H29.4307ZM39.2615 69.2H28.4307V71.2H39.2615V69.2ZM38.2615 59.4V70.2H40.2615V59.4H38.2615Z" fill="#6534FF" mask="url(#path-11-inside-2)"/>
</g>
<g id="handle (Stroke)_2">
<mask id="path-13-inside-3" fill="white">
<path fill-rule="evenodd" clip-rule="evenodd" d="M318.508 60.3999H309.677V69.1999H318.508V60.3999ZM308.677 59.3999V70.1999H319.508V59.3999H308.677Z"/>
</mask>
<path fill-rule="evenodd" clip-rule="evenodd" d="M318.508 60.3999H309.677V69.1999H318.508V60.3999ZM308.677 59.3999V70.1999H319.508V59.3999H308.677Z" fill="#FFFAFA"/>
<path d="M309.677 60.3999V59.3999H308.677V60.3999H309.677ZM318.508 60.3999H319.508V59.3999H318.508V60.3999ZM309.677 69.1999H308.677V70.1999H309.677V69.1999ZM318.508 69.1999V70.1999H319.508V69.1999H318.508ZM308.677 59.3999V58.3999H307.677V59.3999H308.677ZM308.677 70.1999H307.677V71.1999H308.677V70.1999ZM319.508 70.1999V71.1999H320.508V70.1999H319.508ZM319.508 59.3999H320.508V58.3999H319.508V59.3999ZM309.677 61.3999H318.508V59.3999H309.677V61.3999ZM310.677 69.1999V60.3999H308.677V69.1999H310.677ZM318.508 68.1999H309.677V70.1999H318.508V68.1999ZM317.508 60.3999V69.1999H319.508V60.3999H317.508ZM308.677 60.3999H319.508V58.3999H308.677V60.3999ZM309.677 70.1999V59.3999H307.677V70.1999H309.677ZM319.508 69.1999H308.677V71.1999H319.508V69.1999ZM318.508 59.3999V70.1999H320.508V59.3999H318.508Z" fill="#6534FF" mask="url(#path-13-inside-3)"/>
</g>
<g id="handle (Stroke)_3">
<mask id="path-15-inside-4" fill="white">
<path fill-rule="evenodd" clip-rule="evenodd" d="M318.508 136H309.677V144.8H318.508V136ZM308.677 135V145.8H319.508V135H308.677Z"/>
</mask>
<path fill-rule="evenodd" clip-rule="evenodd" d="M318.508 136H309.677V144.8H318.508V136ZM308.677 135V145.8H319.508V135H308.677Z" fill="#FFFAFA"/>
<path d="M309.677 136V135H308.677V136H309.677ZM318.508 136H319.508V135H318.508V136ZM309.677 144.8H308.677V145.8H309.677V144.8ZM318.508 144.8V145.8H319.508V144.8H318.508ZM308.677 135V134H307.677V135H308.677ZM308.677 145.8H307.677V146.8H308.677V145.8ZM319.508 145.8V146.8H320.508V145.8H319.508ZM319.508 135H320.508V134H319.508V135ZM309.677 137H318.508V135H309.677V137ZM310.677 144.8V136H308.677V144.8H310.677ZM318.508 143.8H309.677V145.8H318.508V143.8ZM317.508 136V144.8H319.508V136H317.508ZM308.677 136H319.508V134H308.677V136ZM309.677 145.8V135H307.677V145.8H309.677ZM319.508 144.8H308.677V146.8H319.508V144.8ZM318.508 135V145.8H320.508V135H318.508Z" fill="#6534FF" mask="url(#path-15-inside-4)"/>
</g>
<g id="handle (Stroke)_4">
<mask id="path-17-inside-5" fill="white">
<path fill-rule="evenodd" clip-rule="evenodd" d="M38.2615 136H29.4307V144.8H38.2615V136ZM28.4307 135V145.8H39.2615V135H28.4307Z"/>
</mask>
<path fill-rule="evenodd" clip-rule="evenodd" d="M38.2615 136H29.4307V144.8H38.2615V136ZM28.4307 135V145.8H39.2615V135H28.4307Z" fill="#FFFAFA"/>
<path d="M29.4307 136V135H28.4307V136H29.4307ZM38.2615 136H39.2615V135H38.2615V136ZM29.4307 144.8H28.4307V145.8H29.4307V144.8ZM38.2615 144.8V145.8H39.2615V144.8H38.2615ZM28.4307 135V134H27.4307V135H28.4307ZM28.4307 145.8H27.4307V146.8H28.4307V145.8ZM39.2615 145.8V146.8H40.2615V145.8H39.2615ZM39.2615 135H40.2615V134H39.2615V135ZM29.4307 137H38.2615V135H29.4307V137ZM30.4307 144.8V136H28.4307V144.8H30.4307ZM38.2615 143.8H29.4307V145.8H38.2615V143.8ZM37.2615 136V144.8H39.2615V136H37.2615ZM28.4307 136H39.2615V134H28.4307V136ZM29.4307 145.8V135H27.4307V145.8H29.4307ZM39.2615 144.8H28.4307V146.8H39.2615V144.8ZM38.2615 135V145.8H40.2615V135H38.2615Z" fill="#6534FF" mask="url(#path-17-inside-5)"/>
</g>
</g>
<g id="accent">
<path id="handle" d="M28.9307 59.9H38.7615V69.7H28.9307V59.9Z" fill="#FFFAFA" stroke="#6534FF"/>
<path id="handle_2" d="M309.177 59.8999H319.008V69.6999H309.177V59.8999Z" fill="#FFFAFA" stroke="#6534FF"/>
<path id="handle_3" d="M309.177 135.5H319.008V145.3H309.177V135.5Z" fill="#FFFAFA" stroke="#6534FF"/>
<path id="handle_4" d="M28.9307 135.5H38.7615V145.3H28.9307V135.5Z" fill="#FFFAFA" stroke="#6534FF"/>
</g>
</g>
<g id="icon">
<g id="accent_2">
<path id="Shape" fill-rule="evenodd" clip-rule="evenodd" d="M278.876 212.262C278.6 213.071 277.839 213.616 276.983 213.616H264.801C263.945 213.616 263.185 213.071 262.908 212.262L256.325 192.968C256.121 192.369 256.212 191.708 256.571 191.187L269.246 172.804C270.041 171.651 271.744 171.651 272.539 172.804L285.213 191.187C285.573 191.708 285.664 192.369 285.46 192.968L278.876 212.262Z" fill="#FFFAFA"/>
</g>
<g id="brand_2">
<path id="Shape_2" fill-rule="evenodd" clip-rule="evenodd" d="M260.708 219.016C259.603 219.016 258.708 218.12 258.708 217.016V215.616C258.708 214.511 259.603 213.616 260.708 213.616H281.077C282.182 213.616 283.077 214.511 283.077 215.616V217.016C283.077 218.12 282.182 219.016 281.077 219.016H260.708ZM270.892 189.316C269.397 189.316 268.185 188.107 268.185 186.616C268.185 185.125 269.397 183.916 270.892 183.916C272.388 183.916 273.6 185.125 273.6 186.616C273.6 188.107 272.388 189.316 270.892 189.316Z" fill="#6534FF"/>
</g>
</g>
</g>
</svg>
