<svg width="64" height="64" viewBox="0 0 64 64" fill="none" xmlns="http://www.w3.org/2000/svg">
<rect width="18" height="8" rx="2" fill="#AAAAAA"/>
<rect x="23" width="18" height="8" rx="2" fill="#AAAAAA"/>
<rect x="46" width="18" height="8" rx="2" fill="#AAAAAA"/>
<path fill-rule="evenodd" clip-rule="evenodd" d="M0 16C0 14.8954 0.895447 14 2 14H14C15.1046 14 16 14.8954 16 16V47C16 48.1046 15.1046 49 14 49H2C0.895447 49 0 48.1046 0 47V16ZM24 16C24 14.8954 24.8954 14 26 14H38C39.1046 14 40 14.8954 40 16V39C40 40.1046 39.1046 41 38 41H26C24.8954 41 24 40.1046 24 39V16ZM50 14C48.8954 14 48 14.8954 48 16V62C48 63.1046 48.8954 64 50 64H62C63.1046 64 64 63.1046 64 62V16C64 14.8954 63.1046 14 62 14H50Z" fill="url(#paint0_linear)"/>
<defs>
<linearGradient id="paint0_linear" x1="0" y1="39" x2="64" y2="39" gradientUnits="userSpaceOnUse">
<stop stop-color="#532BD1"/>
<stop offset="1" stop-color="#8158FF"/>
</linearGradient>
</defs>
</svg>
