<svg width="352" height="271" viewBox="0 0 352 271" fill="none" xmlns="http://www.w3.org/2000/svg">
<g id="illustrations/realisation-alt">
<g id="board">
<g id="neutral">
<rect id="Rectangle" x="32" y="31" width="87" height="206" rx="2" fill="#DDDDDD"/>
<rect id="Rectangle_2" x="129.969" y="31.1649" width="86.6462" height="205.96" rx="2" fill="#DDDDDD"/>
<rect id="Rectangle_3" x="227.446" y="31.1649" width="86.6462" height="205.96" rx="2" fill="#DDDDDD"/>
</g>
</g>
<g id="cards">
<g id="accent">
<rect id="Rectangle_4" x="43.3231" y="42.005" width="64.9846" height="32.52" rx="2" fill="#FFFAFA"/>
<rect id="Rectangle_5" x="140.8" y="42.005" width="64.9846" height="32.52" rx="2" fill="#FFFAFA"/>
<rect id="Rectangle_6" x="238.277" y="42.005" width="64.9846" height="32.52" rx="2" fill="#FFFAFA"/>
<rect id="Rectangle_7" x="43.3231" y="128.725" width="64.9846" height="32.52" rx="2" fill="#FFFAFA"/>
<rect id="Rectangle_8" x="43.3231" y="85.3649" width="64.9846" height="32.52" rx="2" fill="#FFFAFA"/>
<rect id="Rectangle_9" x="238.277" y="85.3649" width="64.9846" height="32.52" rx="2" fill="#FFFAFA"/>
</g>
<g id="brand">
<rect id="Rectangle_10" x="140.8" y="42.005" width="10.8308" height="32.52" rx="2" fill="#6534FF"/>
<rect id="Rectangle_11" x="238.277" y="42.005" width="10.8308" height="32.52" rx="2" fill="#6534FF"/>
<rect id="Rectangle_12" x="43.3231" y="42.005" width="10.8308" height="32.52" rx="2" fill="#6534FF"/>
<rect id="Rectangle_13" x="43.3231" y="85.3649" width="10.8308" height="32.52" rx="2" fill="#6534FF"/>
<rect id="Rectangle_14" x="43.3231" y="128.725" width="10.8308" height="32.52" rx="2" fill="#6534FF"/>
<rect id="Rectangle_15" x="238.277" y="85.3649" width="10.8308" height="32.52" rx="2" fill="#6534FF"/>
</g>
<g id="neutral_2">
<ellipse id="Ellipse" cx="102.892" cy="69.105" rx="4.06154" ry="4.065" fill="#DDDDDD"/>
<ellipse id="Ellipse_2" cx="200.369" cy="69.105" rx="4.06154" ry="4.065" fill="#DDDDDD"/>
<ellipse id="Ellipse_3" cx="297.846" cy="112.465" rx="4.06154" ry="4.065" fill="#DDDDDD"/>
<ellipse id="Ellipse_4" cx="297.846" cy="69.105" rx="4.06154" ry="4.065" fill="#DDDDDD"/>
</g>
</g>
<g id="icon">
<g id="brand_2">
<path id="Shape" fill-rule="evenodd" clip-rule="evenodd" d="M280.474 218.066C279.657 219.575 277.444 219.423 276.842 217.816L273.09 207.805C272.815 207.071 272.994 206.244 273.548 205.689L280.636 198.596C281.743 197.488 283.635 198.024 283.997 199.547L285.802 207.154C285.916 207.632 285.849 208.135 285.615 208.568L280.474 218.066ZM248.025 188.976C246.42 188.374 246.267 186.163 247.774 185.346L257.269 180.197C257.702 179.963 258.206 179.896 258.685 180.01L266.286 181.817C267.808 182.179 268.344 184.069 267.238 185.176L260.148 192.272C259.593 192.827 258.765 193.007 258.031 192.731L248.025 188.976ZM245.891 210.013C248.279 203.876 252.268 206.415 252.9 206.868C252.959 206.911 253.011 206.957 253.063 207.009L255.993 209.936L258.893 212.828C258.945 212.881 258.993 212.934 259.037 212.994C259.489 213.628 261.979 217.568 255.865 219.971C253.847 220.515 251.747 220.688 249.667 220.48C248.74 220.394 245.992 221.982 244.486 222.189C244.027 222.252 243.662 221.891 243.722 221.432C243.917 219.922 245.508 217.167 245.416 216.235C245.193 214.149 245.354 212.04 245.891 210.013Z" fill="#6534FF"/>
</g>
<g id="accent_2">
<path id="Shape_2" fill-rule="evenodd" clip-rule="evenodd" d="M252.763 195.848C272.544 176.271 289.023 170.272 295.205 168.596C296.499 168.245 297.574 169.326 297.215 170.618C295.513 176.752 289.448 193.027 269.725 212.561C269.699 212.586 269.678 212.609 269.653 212.634C269.145 213.164 262.769 219.458 254.279 211.055C249.846 207.179 249.183 200.524 252.763 195.848Z" fill="#FFFAFA"/>
</g>
<g id="brand_3">
<path id="Shape_3" fill-rule="evenodd" clip-rule="evenodd" d="M275.705 190.155C278.012 192.543 277.958 196.347 275.585 198.668C273.211 200.989 269.41 200.954 267.079 198.59C264.748 196.226 264.764 192.421 267.114 190.077C269.515 187.742 273.347 187.777 275.705 190.155Z" fill="#6534FF"/>
</g>
</g>
</g>
</svg>
