<svg width="80" height="80" viewBox="0 0 80 80" fill="none" xmlns="http://www.w3.org/2000/svg">
<path d="M0 0H44V44H0V0Z" transform="translate(18 18)" fill="#001D26"/>
<path d="M0 0V47.5H48V0H0ZM2 2.00855H46V44.9915H2V2.00855ZM11.6 11.0068C11.6 10.8662 11.88 10.7658 12.04 10.7658C13.32 10.7056 15.22 10.6654 17.2 10.6654C22.74 10.6654 24.9 13.7184 24.9 17.635C24.9 22.7368 21.22 24.9261 16.7 24.9261C15.94 24.9261 15.68 24.8859 15.14 24.8859V32.5987C15.14 32.7594 15.08 32.8397 14.9 32.8397H11.84C11.68 32.8397 11.6 32.7795 11.6 32.5987V11.0068ZM15.16 21.6722C15.62 21.7124 15.98 21.7124 16.78 21.7124C19.12 21.7124 21.32 20.8889 21.32 17.6953C21.32 15.1444 19.74 13.859 17.08 13.859C16.28 13.859 15.52 13.8991 15.16 13.9192V21.6722ZM32.36 19.2821C30.78 19.2821 30.24 20.0855 30.24 20.7483C30.24 21.4714 30.6 21.9735 32.72 23.0782C35.86 24.6047 36.84 26.0709 36.84 28.2201C36.84 31.4338 34.4 33.1611 31.1 33.1611C29.36 33.1611 27.86 32.7996 27 32.2974C26.86 32.2372 26.84 32.1368 26.84 31.9761V29.0235C26.84 28.8226 26.94 28.7624 27.08 28.8628C28.34 29.6863 29.78 30.0479 31.1 30.0479C32.68 30.0479 33.34 29.385 33.34 28.4812C33.34 27.7581 32.88 27.1154 30.86 26.0709C28.02 24.7051 26.84 23.3192 26.84 21.0094C26.84 18.4184 28.86 16.2692 32.36 16.2692C34.08 16.2692 35.28 16.5303 35.94 16.8316C36.1 16.9321 36.14 17.0927 36.14 17.2333V19.985C36.14 20.1457 36.04 20.2462 35.84 20.1859C34.96 19.6235 33.66 19.2821 32.36 19.2821Z" transform="translate(16 16.5)" fill="#00C8FF"/>
</svg>
