<svg width="32" height="32" viewBox="0 0 32 32" fill="none" xmlns="http://www.w3.org/2000/svg">
<path d="M5.68301 18.5471V19H11.4581V18.5471C11.4581 18.1365 11.4716 16.7946 11.4716 15.1275C11.4716 13.9649 11.0994 13.2065 10.6816 12.8198C13.2752 12.5113 16 11.4575 16 6.67134C16 5.31086 15.5481 4.19924 14.8013 3.32657C14.9222 3.01251 15.3211 1.74529 14.6871 0.0288532C14.6871 0.0288532 13.7104 -0.306057 11.4873 1.30618C10.5564 1.03008 9.55926 0.891613 8.56942 0.886867C7.57957 0.891613 6.58317 1.03008 5.65408 1.30618C3.42828 -0.306057 2.4502 0.0288532 2.4502 0.0288532C1.81776 1.74529 2.21644 3.01251 2.33737 3.32657C1.59229 4.19924 1.13729 5.31086 1.13729 6.67134C1.13729 11.4461 3.85686 12.5146 6.44391 12.8297C6.11082 13.1407 5.80896 13.6908 5.70442 14.496C5.03977 14.8144 3.35383 15.3652 2.315 13.4601C2.315 13.4601 1.69914 12.2637 0.529536 12.176C0.529536 12.176 -0.606894 12.1601 0.449878 12.9335C0.449878 12.9335 1.21328 13.3165 1.74312 14.7569C1.74312 14.7569 2.42687 16.9809 5.6672 16.2271C5.67221 17.2684 5.68301 18.25 5.68301 18.5471Z" transform="translate(8 7)" fill="#222222"/>
</svg>
