<svg width="32" height="32" viewBox="0 0 32 32" fill="none" xmlns="http://www.w3.org/2000/svg">
<path fill-rule="evenodd" clip-rule="evenodd" d="M0 1.85022C0 1.85022 6.43968 5.50208 7.6896 5.50208C8.99968 5.50208 15.3696 1.92004 15.3696 1.92004L15.3798 1.28003C15.3798 0.573486 14.8064 0 14.0979 0H1.28128C0.573441 0 0 0.573486 0 1.28003V1.85022ZM15.3696 3.84009C15.3696 3.84009 9.05984 7.26208 7.6896 7.26208C6.43968 7.26208 0.00959778 3.84009 0.0102386 3.84009L0 11.5201C0 12.2267 0.574081 12.8 1.28128 12.8H14.0979C14.8064 12.8 15.3798 12.2267 15.3798 11.5201L15.3696 3.84009Z" transform="translate(8.53333 9.59998)" fill="#222222"/>
</svg>
