<svg width="32" height="32" viewBox="0 0 32 32" fill="none" xmlns="http://www.w3.org/2000/svg">
<path fill-rule="evenodd" clip-rule="evenodd" d="M7 8C9.20914 8 11 6.20911 11 4C11 1.79089 9.20914 0 7 0C4.79086 0 3 1.79089 3 4C3 6.20911 4.79086 8 7 8ZM2.40417 9.08838C2.74394 8.729 3.29926 8.7489 3.71278 9.02014C4.65694 9.63965 5.78639 10 7 10C8.21361 10 9.34306 9.63965 10.2872 9.02014C10.7007 8.7489 11.2561 8.729 11.5958 9.08838C13.069 10.6466 14 12.9413 14 15.5C14 15.78 13.7679 16 13.4879 16H0.512099C0.232072 16 0 15.78 0 15.5C0 12.9413 0.931036 10.6466 2.40417 9.08838Z" transform="translate(9 7)" fill="#222222"/>
</svg>
