<svg width="32" height="32" viewBox="0 0 32 32" fill="none" xmlns="http://www.w3.org/2000/svg">
<path fill-rule="evenodd" clip-rule="evenodd" d="M16.7636 8.62183C16.7636 9.21338 16.6994 9.78906 16.576 10.3451C16.8901 10.9683 17.0667 11.6696 17.0667 12.4125C17.0667 14.9824 14.9534 17.0667 12.3464 17.0667C11.5387 17.0667 10.7801 16.8658 10.1148 16.5137C9.63111 16.6017 9.1334 16.6482 8.62365 16.6482C4.1282 16.6482 0.483665 13.0554 0.483665 8.62183C0.483665 8.06995 0.540855 7.52979 0.648232 7.00952C0.236816 6.31702 0 5.51379 0 4.65515C0 2.08325 2.11327 0 4.72123 0C5.64339 0 6.50436 0.262085 7.23186 0.714233C7.68542 0.637085 8.15002 0.596436 8.62365 0.596436C13.1201 0.596436 16.7636 4.19031 16.7636 8.62183ZM11.1443 13.6945C11.8668 13.3997 12.4227 12.9841 12.799 12.4579C13.1763 11.9307 13.3689 11.3282 13.3689 10.6675C13.3689 10.1145 13.2576 9.63965 13.0378 9.25293C12.8181 8.86914 12.51 8.54858 12.1207 8.29834C11.7373 8.052 11.2697 7.84229 10.7269 7.67224C10.192 7.50305 9.58695 7.3457 8.92768 7.20728C8.4069 7.0885 8.0276 6.99658 7.80181 6.9342C7.58106 6.87488 7.3603 6.78979 7.14657 6.68396C6.93986 6.58105 6.77628 6.46045 6.6619 6.31995C6.55152 6.18933 6.49833 6.03601 6.49833 5.854C6.49833 5.5553 6.6639 5.3031 7.00307 5.08447C7.35528 4.85596 7.83091 4.74121 8.41291 4.74121C9.04208 4.74121 9.49865 4.84412 9.77259 5.0498C10.0546 5.26147 10.3004 5.56128 10.5031 5.94104C10.6787 6.23779 10.8372 6.44556 10.9898 6.5791C11.1523 6.72156 11.3892 6.7948 11.6902 6.7948C12.0213 6.7948 12.3033 6.67908 12.5261 6.44958C12.7478 6.22302 12.8602 5.96191 12.8602 5.67505C12.8602 5.3772 12.7739 5.06958 12.6053 4.76001C12.4388 4.45337 12.1718 4.15955 11.8136 3.88257C11.4584 3.60852 11.0068 3.38696 10.47 3.22278C9.93615 3.05859 9.29696 2.97546 8.57046 2.97546C7.66033 2.97546 6.85757 3.1001 6.18224 3.34644C5.49689 3.59473 4.96507 3.96069 4.60181 4.42859C4.23455 4.89941 4.04891 5.44653 4.04891 6.05188C4.04891 6.68799 4.22652 7.229 4.57572 7.66125C4.91991 8.08569 5.39053 8.42493 5.97454 8.66931C6.54449 8.90967 7.26196 9.12036 8.10787 9.29846C8.729 9.427 9.23072 9.55066 9.60101 9.66345C9.95522 9.77429 10.2472 9.9325 10.47 10.1362C10.6807 10.3322 10.7841 10.5814 10.7841 10.897C10.7841 11.2986 10.5874 11.627 10.181 11.899C9.76656 12.178 9.21467 12.3204 8.54136 12.3204C8.05268 12.3204 7.6543 12.2493 7.35929 12.1127C7.06629 11.9752 6.83649 11.8002 6.67594 11.5905C6.51038 11.3757 6.35384 11.1007 6.20934 10.7743C6.0799 10.4766 5.91935 10.2441 5.7317 10.0868C5.53603 9.92358 5.2942 9.84155 5.01524 9.84155C4.67406 9.84155 4.38808 9.94531 4.16532 10.1531C3.94054 10.3618 3.82615 10.6171 3.82615 10.9098C3.82615 11.3817 4.00076 11.8694 4.34695 12.36C4.68911 12.8486 5.13967 13.2423 5.68655 13.5332C6.45217 13.9338 7.43255 14.1366 8.60157 14.1366C9.57592 14.1366 10.4309 13.9872 11.1443 13.6945Z" transform="translate(7.46667 7.46667)" fill="#222222"/>
</svg>
