<svg width="32" height="32" viewBox="0 0 32 32" fill="none" xmlns="http://www.w3.org/2000/svg">
<g clip-path="url(#clip0)">
<path d="M9.01791 12.9498C9.01791 13.3436 9.06048 13.6629 9.13498 13.897C9.22012 14.1311 9.32655 14.3866 9.47555 14.6633C9.52877 14.7484 9.55005 14.8336 9.55005 14.9081C9.55005 15.0145 9.4862 15.1209 9.34784 15.2274L8.67734 15.6744C8.58155 15.7382 8.48577 15.7701 8.40062 15.7701C8.29419 15.7701 8.18777 15.7169 8.08134 15.6211C7.93234 15.4615 7.80462 15.2912 7.69819 15.1209C7.59177 14.94 7.48534 14.7378 7.36827 14.493C6.53812 15.4721 5.49512 15.9617 4.23926 15.9617C3.34526 15.9617 2.63219 15.7063 2.11069 15.1954C1.58919 14.6846 1.32312 14.0034 1.32312 13.152C1.32312 12.2474 1.64241 11.513 2.29162 10.9596C2.94084 10.4061 3.80291 10.1294 4.89912 10.1294C5.26098 10.1294 5.63348 10.1614 6.02726 10.2146C6.42105 10.2678 6.82548 10.3529 7.25119 10.4487V9.67179C7.25119 8.86293 7.08091 8.29886 6.75098 7.96893C6.41041 7.639 5.83569 7.47936 5.01619 7.47936C4.64369 7.47936 4.26055 7.52193 3.86676 7.61771C3.47298 7.7135 3.08984 7.83057 2.71734 7.97957C2.54705 8.05407 2.41933 8.09664 2.34483 8.11793C2.27033 8.13922 2.21712 8.14986 2.17455 8.14986C2.02555 8.14986 1.95105 8.04343 1.95105 7.81993V7.29843C1.95105 7.12814 1.97233 7.00043 2.02555 6.92593C2.07876 6.85143 2.17455 6.77693 2.32355 6.70243C2.69605 6.51086 3.14305 6.35121 3.66455 6.2235C4.18605 6.08514 4.73948 6.02129 5.32484 6.02129C6.59134 6.02129 7.51727 6.30864 8.11327 6.88336C8.69862 7.45807 8.99662 8.33079 8.99662 9.5015V12.9498H9.01791ZM4.69691 14.5675C5.04812 14.5675 5.40998 14.5036 5.79312 14.3759C6.17627 14.2482 6.51684 14.0141 6.80419 13.6948C6.97448 13.4926 7.10219 13.2691 7.16605 13.0136C7.22991 12.7582 7.27248 12.4496 7.27248 12.0877V11.6407C6.96384 11.5662 6.63391 11.5024 6.29334 11.4598C5.95276 11.4172 5.62284 11.3959 5.29291 11.3959C4.57984 11.3959 4.05834 11.5343 3.70712 11.8216C3.35591 12.109 3.18562 12.5134 3.18562 13.0456C3.18562 13.5458 3.31334 13.9183 3.57941 14.1737C3.83484 14.4398 4.20734 14.5675 4.69691 14.5675ZM13.2431 15.7169C13.0516 15.7169 12.9238 15.685 12.8387 15.6105C12.7536 15.5466 12.6791 15.3976 12.6152 15.1954L10.1141 6.9685C10.0503 6.75564 10.0183 6.61729 10.0183 6.54279C10.0183 6.3725 10.1035 6.27671 10.2738 6.27671H11.3168C11.519 6.27671 11.6573 6.30864 11.7318 6.38314C11.817 6.447 11.8808 6.596 11.9447 6.79821L13.7327 13.8438L15.393 6.79821C15.4462 6.58536 15.5101 6.447 15.5952 6.38314C15.6803 6.31929 15.8293 6.27671 16.0209 6.27671H16.8723C17.0746 6.27671 17.2129 6.30864 17.2981 6.38314C17.3832 6.447 17.4577 6.596 17.5003 6.79821L19.1818 13.9289L21.0231 6.79821C21.0869 6.58536 21.1614 6.447 21.2359 6.38314C21.3211 6.31929 21.4594 6.27671 21.651 6.27671H22.6408C22.8111 6.27671 22.9068 6.36186 22.9068 6.54279C22.9068 6.596 22.8962 6.64921 22.8856 6.71307C22.8749 6.77693 22.8536 6.86207 22.8111 6.97914L20.2461 15.2061C20.1823 15.4189 20.1078 15.5573 20.0226 15.6211C19.9375 15.685 19.7991 15.7276 19.6182 15.7276H18.7029C18.5007 15.7276 18.3623 15.6956 18.2772 15.6211C18.1921 15.5466 18.1176 15.4083 18.075 15.1954L16.4253 8.33079L14.7863 15.1848C14.7331 15.3976 14.6693 15.536 14.5841 15.6105C14.499 15.685 14.35 15.7169 14.1584 15.7169H13.2431ZM26.9192 16.0043C26.3658 16.0043 25.8123 15.9404 25.2802 15.8127C24.7481 15.685 24.333 15.5466 24.0563 15.387C23.886 15.2912 23.7689 15.1848 23.7263 15.089C23.6838 14.9932 23.6625 14.8868 23.6625 14.791V14.2482C23.6625 14.0247 23.7476 13.9183 23.9073 13.9183C23.9711 13.9183 24.035 13.9289 24.0988 13.9502C24.1627 13.9715 24.2585 14.0141 24.3649 14.0566C24.7268 14.2163 25.1206 14.344 25.5356 14.4291C25.9613 14.5143 26.3764 14.5569 26.8021 14.5569C27.4726 14.5569 27.9941 14.4398 28.356 14.2056C28.7178 13.9715 28.9094 13.6309 28.9094 13.1946C28.9094 12.8966 28.8136 12.6518 28.6221 12.4496C28.4305 12.2474 28.0686 12.0664 27.5471 11.8961L26.0039 11.4172C25.227 11.1724 24.6523 10.8106 24.3011 10.3316C23.9498 9.86336 23.7689 9.34186 23.7689 8.78843C23.7689 8.34143 23.8647 7.94764 24.0563 7.60707C24.2478 7.2665 24.5033 6.9685 24.8226 6.73436C25.1418 6.48957 25.5037 6.30864 25.9294 6.18093C26.3551 6.05321 26.8021 6 27.2704 6C27.5046 6 27.7493 6.01064 27.9835 6.04257C28.2283 6.0745 28.4518 6.11707 28.6753 6.15964C28.8881 6.21286 29.0903 6.26607 29.2819 6.32993C29.4735 6.39379 29.6225 6.45764 29.7289 6.5215C29.8779 6.60664 29.9843 6.69179 30.0482 6.78757C30.1121 6.87271 30.144 6.98979 30.144 7.13879V7.639C30.144 7.8625 30.0588 7.97957 29.8992 7.97957C29.8141 7.97957 29.6757 7.937 29.4948 7.85186C28.8881 7.57514 28.207 7.43679 27.4513 7.43679C26.8447 7.43679 26.3658 7.53257 26.0358 7.73479C25.7059 7.937 25.5356 8.24564 25.5356 8.682C25.5356 8.98 25.6421 9.23543 25.8549 9.43764C26.0678 9.63986 26.4616 9.84207 27.0256 10.023L28.5369 10.5019C29.3032 10.7467 29.8566 11.0873 30.1866 11.5236C30.5165 11.96 30.6761 12.4602 30.6761 13.0136C30.6761 13.4713 30.5803 13.8864 30.3994 14.2482C30.2078 14.6101 29.9524 14.9294 29.6225 15.1848C29.2926 15.4509 28.8988 15.6424 28.4411 15.7808C27.9622 15.9298 27.462 16.0043 26.9192 16.0043Z" fill="#252F3E"/>
<path fill-rule="evenodd" clip-rule="evenodd" d="M28.9307 21.1767C25.4292 23.7629 20.3419 25.1359 15.9677 25.1359C9.83741 25.1359 4.31377 22.8689 0.141765 19.1014C-0.188164 18.8034 0.109836 18.3989 0.503622 18.6331C5.0162 21.2512 10.5824 22.837 16.3402 22.837C20.2248 22.837 24.4926 22.0282 28.4199 20.3679C29.0052 20.1018 29.5054 20.751 28.9307 21.1767Z" fill="#FF9900"/>
<path fill-rule="evenodd" clip-rule="evenodd" d="M30.3888 19.5164C29.9418 18.9417 27.4301 19.2397 26.2913 19.3781C25.9507 19.4207 25.8975 19.1227 26.2061 18.8992C28.207 17.4943 31.4956 17.8987 31.8788 18.367C32.2619 18.8459 31.7724 22.1346 29.8992 23.7097C29.6119 23.9545 29.3351 23.8268 29.4629 23.5075C29.8886 22.4539 30.8358 20.0805 30.3888 19.5164Z" fill="#FF9900"/>
</g>
<defs>
<clipPath id="clip0">
<rect width="32" height="32" fill="white"/>
</clipPath>
</defs>
</svg>
