<svg width="32" height="32" viewBox="0 0 32 32" fill="none" xmlns="http://www.w3.org/2000/svg">
<g id="logos/creative-cloud">
<g id="creative-cloud">
<path id="Vector" d="M32 15.4649V16.5362C31.99 16.5943 31.9774 16.6513 31.9708 16.7092C31.9162 17.1752 31.881 17.6442 31.8056 18.1067C31.5596 19.61 31.0279 21.0072 30.2378 22.2992C29.0378 24.2607 27.4157 25.7565 25.3772 26.7779C24.2006 27.3703 22.9321 27.7509 21.6278 27.903C21.3381 27.9371 21.0486 27.9676 20.7589 28H9.51704C9.46041 27.9893 9.40405 27.9721 9.3469 27.9687C8.21333 27.8961 7.1227 27.6334 6.08316 27.1708C3.81998 26.1638 2.13254 24.5317 1.02795 22.2852C0.53985 21.2943 0.223973 20.2251 0.0942881 19.1247C0.0624198 18.8571 0.0313416 18.5898 0 18.3225V17.2831C0.0107984 17.2256 0.0273909 17.168 0.0308148 17.1101C0.0895473 16.1114 0.291029 15.1416 0.645794 14.2096C1.60053 11.7017 3.26479 9.84172 5.62989 8.63786C6.85695 8.01303 8.16487 7.68469 9.53284 7.61184C10.2026 7.57649 10.8718 7.61452 11.5376 7.70531C11.598 7.71361 11.6849 7.68629 11.7267 7.64264C12.6841 6.64822 13.7742 5.84047 15.0034 5.22823C16.1957 4.63447 17.4504 4.25175 18.7712 4.09856C19.082 4.0624 19.3936 4.03267 19.7049 4H20.6633C20.726 4.00991 20.7889 4.02116 20.8516 4.02866C21.3265 4.0849 21.804 4.12025 22.2744 4.20033C23.7419 4.45074 25.108 4.98639 26.3722 5.78208C28.3107 7.00228 29.7879 8.65393 30.7972 10.7333C31.3808 11.9303 31.7556 13.2213 31.9047 14.5487C31.9389 14.8543 31.9681 15.1598 32 15.4649ZM14.1077 8.53288C14.1269 8.55859 14.1316 8.57064 14.1398 8.57466C14.798 8.90455 15.427 9.29137 16.02 9.73084C16.0574 9.75843 16.1501 9.74691 16.1954 9.71798C17.8252 8.66786 19.5919 8.30549 21.4898 8.64777C23.3495 8.98308 24.8628 9.92796 26.019 11.4371C27.3283 13.145 27.8274 15.0763 27.466 17.225C27.2237 18.6651 26.6564 19.9571 25.6922 21.0393C23.9328 23.0124 21.7297 23.8284 19.1363 23.4829C17.5397 23.2703 16.1614 22.5699 15.0208 21.3977C13.5567 19.8939 12.0831 18.3999 10.6148 16.9001C10.4191 16.7004 10.2013 16.5397 9.91947 16.5046C9.42723 16.4432 8.98054 16.6931 8.768 17.1428C8.57837 17.5443 8.60286 17.9969 9.01426 18.4082C10.6511 20.0422 12.2735 21.6912 13.9085 23.3268C14.1884 23.6081 14.4885 23.8678 14.8064 24.1037C16.0008 24.9857 17.3474 25.4734 18.8057 25.6697C19.9504 25.8234 21.086 25.7905 22.213 25.5328C24.3627 25.0419 26.1433 23.9262 27.5458 22.2046C28.7039 20.7819 29.4042 19.1472 29.6483 17.3118C29.7898 16.2652 29.7603 15.202 29.5609 14.1652C29.2356 12.4698 28.5303 10.9529 27.4002 9.66174C25.2439 7.19966 22.5312 6.10052 19.303 6.34585C18.0612 6.44012 16.8865 6.81105 15.7811 7.39946C15.1846 7.7146 14.6235 8.09464 14.1077 8.53288ZM13.3178 25.7206C13.2734 25.6787 13.2291 25.6367 13.1851 25.5944C12.5158 24.9519 11.8429 24.3134 11.1816 23.6626C11.0536 23.5368 10.9358 23.4754 10.7546 23.4797C10.0849 23.4963 9.41459 23.4993 8.75457 23.3477C5.47292 22.593 3.56741 18.9648 4.77682 15.7724C5.73077 13.2551 8.37162 11.7221 10.9759 12.1948C12.1431 12.4066 13.1677 12.9091 14.0086 13.791C15.0342 14.8677 16.0903 15.9135 17.127 16.9792C17.363 17.2218 17.634 17.3324 17.9608 17.285C18.3833 17.2237 18.7196 17.0191 18.8724 16.5978C19.022 16.1832 18.9495 15.7906 18.6409 15.4727C17.5529 14.3518 16.4907 13.2029 15.3587 12.1297C13.1632 10.0474 10.5742 9.4282 7.71081 10.3136C3.85949 11.5035 1.60553 15.5476 2.48547 19.5382C3.28744 23.1741 6.41449 25.7259 10.0735 25.7291C11.0952 25.7302 12.1171 25.7297 13.1387 25.7291C13.1893 25.7291 13.2398 25.7246 13.3178 25.7206Z" fill="#DA1F26"/>
</g>
</g>
</svg>
