<svg width="32" height="32" viewBox="0 0 32 32" fill="none" xmlns="http://www.w3.org/2000/svg">
<g id="logos/illustrator">
<g id="illustrator">
<path id="Vector" d="M1.33334 1.33333H30.6667V30.6667H1.33334V1.33333Z" fill="#261300"/>
<path id="Vector_2" d="M0 0V32H32V0H0ZM1.33333 1.36752H30.6667V30.6325H1.33333V1.36752Z" fill="#FF7C00"/>
<path id="Vector_3" d="M11.1067 18.0313L10.0533 21.963C10.0267 22.0678 9.98666 22.094 9.85333 22.094H7.89333C7.75999 22.094 7.73333 22.0547 7.75999 21.8974L11.5467 8.87067C11.6133 8.63477 11.6533 8.42508 11.68 7.78292C11.68 7.69118 11.72 7.65186 11.7867 7.65186H14.5867C14.68 7.65186 14.72 7.67807 14.7467 7.78292L18.9867 21.9237C19.0133 22.0285 18.9867 22.094 18.88 22.094H16.6667C16.56 22.094 16.4933 22.0678 16.4667 21.9761L15.36 18.0313H11.1067ZM14.8133 15.9083C14.44 14.4536 13.56 11.2821 13.2267 9.74873H13.2C12.92 11.2821 12.2133 13.8769 11.6533 15.9083H14.8133ZM20.8133 8.62166C20.8133 7.78292 21.4133 7.28491 22.1733 7.28491C22.9867 7.28491 23.5333 7.82223 23.5333 8.62166C23.5333 9.48662 22.96 9.95842 22.1467 9.95842C21.3733 9.95842 20.8133 9.48662 20.8133 8.62166ZM20.9733 11.5966C20.9733 11.4917 21.0133 11.4393 21.1333 11.4393H23.2267C23.3333 11.4393 23.3867 11.4786 23.3867 11.5966V21.9368C23.3867 22.0416 23.36 22.094 23.2267 22.094H21.16C21.0267 22.094 20.9867 22.0285 20.9867 21.9237V11.5966H20.9733Z" fill="#FF7C00"/>
</g>
</g>
</svg>
