<svg width="32" height="32" viewBox="0 0 32 32" fill="none" xmlns="http://www.w3.org/2000/svg">
<g id="logos/indesign">
<g id="indesign">
<path id="XMLID 3" d="M32 0H0V32H32V0Z" fill="#FF3F94"/>
<path id="XMLID 5" d="M30.592 1.40801H1.40799V30.592H30.592V1.40801Z" fill="#2E0013"/>
<g id="XMLID 10">
<g id="Group">
<path id="XMLID 26" d="M11.8549 21.896C11.8549 22.0281 11.817 22.0941 11.6844 22.0941H9.71513C9.60157 22.0941 9.56369 22.0281 9.56369 21.896V7.89409C9.56369 7.76197 9.62049 7.73997 9.71513 7.73997H11.7034C11.817 7.73997 11.8549 7.76197 11.8549 7.89409V21.896H11.8549Z" fill="#FF3F94"/>
</g>
</g>
<g id="XMLID 6">
<g id="Group_2">
<path id="XMLID 36" d="M14.1688 16.9585C14.1688 13.8182 16.1596 11.1762 19.3225 11.1762C19.7504 11.1762 20.0667 11.2195 20.383 11.3278V7.81575C20.383 7.70743 20.4202 7.66419 20.4946 7.66419H22.5226C22.597 7.66419 22.6156 7.70743 22.6156 7.79407V19.6656C22.6156 20.1203 22.6529 20.705 22.6714 21.0515C22.6901 21.1598 22.6714 21.203 22.5785 21.268C21.4062 21.9394 20.0854 22.3293 18.8574 22.3293C16.1224 22.3292 14.1688 20.575 14.1688 16.9585ZM20.383 13.3851C20.1038 13.2552 19.7132 13.1902 19.2852 13.1902C17.6108 13.1902 16.4759 14.6196 16.4759 16.8285C16.4759 19.2756 17.7039 20.2502 19.1179 20.2502C19.583 20.2502 20.0482 20.1635 20.383 20.0336V13.3851H20.383Z" fill="#FF3F94"/>
</g>
</g>
</g>
</g>
</svg>
