<svg width="32" height="32" viewBox="0 0 32 32" fill="none" xmlns="http://www.w3.org/2000/svg">
<g id="logos/jest">
<g id="jest">
<path id="Vector" d="M29.6228 15.7591C29.6228 13.8321 28.3023 12.2108 26.5294 11.7475L30.5 0H10.8227L14.8025 11.7846C13.085 12.2849 11.8199 13.8784 11.8199 15.7684C11.8199 17.1581 12.5125 18.3903 13.5651 19.15C13.1496 19.7429 12.6695 20.2895 12.1247 20.8083C11.0997 21.7719 9.96394 22.513 8.73584 23.0041C7.62778 22.2536 7.14762 20.9288 7.58161 19.7429C9.2714 19.2241 10.4995 17.6398 10.4995 15.7776C10.4995 13.4893 8.6435 11.6364 6.37198 11.6364C4.09122 11.6364 2.23522 13.4986 2.23522 15.7869C2.23522 16.9172 2.69691 17.9548 3.43562 18.696C3.37098 18.8257 3.30634 18.9554 3.2417 19.0944C2.62304 20.3729 1.92127 21.8182 1.65348 23.4395C1.11792 26.6821 1.99514 29.2855 4.10969 30.7585C5.30085 31.5831 6.61206 32 8.02483 32C10.4533 32 12.9188 30.7771 15.3011 29.5912C17.0001 28.7481 18.7546 27.868 20.4813 27.4418C21.1184 27.2843 21.7833 27.1917 22.485 27.0898C23.907 26.8859 25.3752 26.6728 26.6957 25.9039C28.2377 25.0052 29.2904 23.5043 29.5951 21.7811C29.8259 20.4563 29.5951 19.1222 29.0041 17.9548C29.4012 17.3156 29.6228 16.5651 29.6228 15.7591ZM27.8222 15.7591C27.8222 17.0469 26.7788 18.0938 25.4953 18.0938C24.2118 18.0938 23.1683 17.0469 23.1683 15.7591C23.1683 15.3422 23.2791 14.9438 23.473 14.601C23.5469 14.4713 23.6393 14.3416 23.7316 14.2305C23.8239 14.1193 23.9347 14.0174 24.0548 13.9247L24.064 13.9155C24.1379 13.8599 24.221 13.8043 24.3041 13.7487C24.3041 13.7487 24.3133 13.7487 24.3133 13.7394C24.3503 13.7209 24.3872 13.6931 24.4241 13.6746C24.4334 13.6746 24.4426 13.6653 24.4518 13.6653C24.4888 13.6468 24.5349 13.6283 24.5811 13.6097C24.6273 13.5912 24.6734 13.5727 24.7104 13.5541C24.7196 13.5541 24.7288 13.5449 24.7381 13.5449C24.775 13.5356 24.812 13.5171 24.8489 13.5078C24.8581 13.5078 24.8766 13.4986 24.8858 13.4986C24.932 13.4893 24.9689 13.48 25.0151 13.4708H25.0243C25.0705 13.4615 25.1167 13.4522 25.1628 13.443C25.1721 13.443 25.1905 13.443 25.1998 13.4337C25.2367 13.4337 25.2736 13.4244 25.3106 13.4244C25.329 13.4244 25.3383 13.4244 25.3568 13.4244C25.4029 13.4244 25.4491 13.4152 25.5045 13.4152C25.5414 13.4152 25.5784 13.4152 25.6245 13.4152C25.6615 13.4152 25.6892 13.4152 25.7261 13.4244C25.7353 13.4244 25.7353 13.4244 25.7446 13.4244C25.8184 13.4337 25.8923 13.443 25.9662 13.4615C27.0188 13.6838 27.8222 14.6288 27.8222 15.7591ZM13.3989 1.85292H27.9238L24.5903 11.7197C24.4518 11.7475 24.3133 11.7939 24.1748 11.8402L20.666 4.6601L17.1479 11.7939C17.0094 11.7475 16.8616 11.7197 16.7139 11.692L13.3989 1.85292ZM20.0011 14.9531C19.8257 14.0822 19.3825 13.304 18.7546 12.7296L20.666 8.85698L22.5958 12.813C22.0233 13.3874 21.6078 14.1193 21.4416 14.9531H20.0011ZM15.375 13.4893C15.4211 13.48 15.4581 13.4708 15.5042 13.4615C15.5135 13.4615 15.5227 13.4615 15.5319 13.4615C15.5689 13.4522 15.6058 13.4522 15.6428 13.443C15.652 13.443 15.6612 13.443 15.6797 13.443C15.7166 13.443 15.7443 13.4337 15.7813 13.4337C15.7905 13.4337 15.809 13.4337 15.8182 13.4337C15.8644 13.4337 15.9105 13.4337 15.9567 13.4337C16.0029 13.4337 16.049 13.4337 16.0952 13.4337C16.1137 13.4337 16.1229 13.4337 16.1414 13.4337C16.1783 13.4337 16.206 13.443 16.2337 13.443C16.2522 13.443 16.2614 13.443 16.2799 13.4522C16.3168 13.4615 16.3445 13.4615 16.3815 13.4708C16.3907 13.4708 16.3999 13.4708 16.4184 13.48C16.4646 13.4893 16.5107 13.4986 16.5477 13.5078C16.5569 13.5078 16.5569 13.5078 16.5569 13.5078C16.5938 13.5171 16.6308 13.5263 16.6677 13.5449C16.6769 13.5449 16.6862 13.5541 16.7046 13.5541C16.7323 13.5634 16.7693 13.5727 16.797 13.5912C16.8062 13.5912 16.8154 13.6005 16.8247 13.6005C16.8616 13.619 16.8986 13.6283 16.9355 13.6468H16.9447C16.9909 13.6653 17.0278 13.6838 17.0648 13.7116C17.0648 13.7116 17.0648 13.7116 17.074 13.7116C17.1109 13.7302 17.1479 13.758 17.1848 13.7765C17.194 13.7765 17.194 13.7858 17.2033 13.7858C17.2402 13.8043 17.2679 13.8321 17.3048 13.8506L17.3141 13.8599C17.4249 13.9433 17.5265 14.0359 17.628 14.1285L17.6373 14.1378C17.7296 14.2397 17.8219 14.3509 17.8958 14.4713C18.1359 14.8419 18.2744 15.2774 18.2744 15.7499C18.2744 17.0376 17.231 18.0845 15.9475 18.0845C14.664 18.0845 13.6205 17.0376 13.6205 15.7499C13.6113 14.6659 14.3592 13.7487 15.375 13.4893ZM6.28887 13.4244C7.57238 13.4244 8.6158 14.4713 8.6158 15.7591C8.6158 17.0469 7.57238 18.0938 6.28887 18.0938C5.00537 18.0938 3.96194 17.0469 3.96194 15.7591C3.96194 14.4713 5.00537 13.4244 6.28887 13.4244ZM27.7668 21.4569C27.5636 22.6427 26.8342 23.6804 25.763 24.3011C24.7565 24.8848 23.5192 25.0701 22.2172 25.2554C21.5062 25.3573 20.7583 25.4684 20.0381 25.6445C18.1174 26.117 16.2707 27.0434 14.4793 27.9328C12.1893 29.0724 10.0286 30.1471 8.02483 30.1471C6.98141 30.1471 6.04879 29.8506 5.16234 29.2299C3.1309 27.8217 3.23247 25.1812 3.47255 23.736C3.69416 22.3833 4.31283 21.1141 4.9038 19.9004C4.94073 19.8263 4.96843 19.7614 5.00537 19.6873C5.20851 19.7614 5.42089 19.817 5.6425 19.8541C5.29162 21.8182 6.28887 23.8471 8.22798 24.8477L8.57886 25.033L8.95745 24.894C10.5734 24.3196 12.0693 23.3839 13.3897 22.1332C14.1376 21.4291 14.7748 20.6694 15.3103 19.8448C15.5227 19.8819 15.7351 19.8911 15.9475 19.8911C17.8681 19.8911 19.484 18.5663 19.9457 16.7875H21.497C21.9587 18.5756 23.5746 19.8911 25.4953 19.8911C26.2617 19.8911 26.9727 19.6781 27.5821 19.3167C27.8222 20.0116 27.8961 20.7342 27.7668 21.4569Z" fill="#99425B"/>
</g>
</g>
</svg>
