<svg width="32" height="32" viewBox="0 0 32 32" fill="none" xmlns="http://www.w3.org/2000/svg">
<g id="logos/photoshop">
<g id="photoshop">
<path id="Vector" d="M1.33334 1.01053H30.6667V30.6526H1.33334V1.01053Z" fill="#001D26"/>
<path id="Vector_2" d="M0 0V32H32V0H0ZM1.33333 1.35313H30.6667V30.31H1.33333V1.35313ZM7.73333 7.41513C7.73333 7.32041 7.92 7.25276 8.02667 7.25276C8.88 7.21216 10.1467 7.1851 11.4667 7.1851C15.16 7.1851 16.6 9.24185 16.6 11.8805C16.6 15.3174 14.1467 16.7923 11.1333 16.7923C10.6267 16.7923 10.4533 16.7652 10.0933 16.7652V21.9612C10.0933 22.0695 10.0533 22.1236 9.93333 22.1236H7.89333C7.78667 22.1236 7.73333 22.083 7.73333 21.9612V7.41513ZM10.1067 14.6002C10.4133 14.6273 10.6533 14.6273 11.1867 14.6273C12.7467 14.6273 14.2133 14.0725 14.2133 11.921C14.2133 10.2026 13.16 9.33657 11.3867 9.33657C10.8533 9.33657 10.3467 9.36364 10.1067 9.37717V14.6002ZM21.5733 12.99C20.52 12.99 20.16 13.5313 20.16 13.9778C20.16 14.4649 20.4 14.8032 21.8133 15.5474C23.9067 16.5758 24.56 17.5636 24.56 19.0114C24.56 21.1764 22.9333 22.3401 20.7333 22.3401C19.5733 22.3401 18.5733 22.0966 18 21.7583C17.9067 21.7177 17.8933 21.65 17.8933 21.5418V19.5527C17.8933 19.4174 17.96 19.3768 18.0533 19.4444C18.8933 19.9992 19.8533 20.2428 20.7333 20.2428C21.7867 20.2428 22.2267 19.7962 22.2267 19.1873C22.2267 18.7002 21.92 18.2672 20.5733 17.5636C18.68 16.6435 17.8933 15.7098 17.8933 14.1537C17.8933 12.4082 19.24 10.9603 21.5733 10.9603C22.72 10.9603 23.52 11.1362 23.96 11.3392C24.0667 11.4069 24.0933 11.5151 24.0933 11.6098V13.4636C24.0933 13.5719 24.0267 13.6395 23.8933 13.5989C23.3067 13.22 22.44 12.99 21.5733 12.99Z" fill="#00C8FF"/>
</g>
</g>
</svg>
