<svg width="32" height="32" viewBox="0 0 32 32" fill="none" xmlns="http://www.w3.org/2000/svg">
<g id="logos/prisma">
<g id="prisma">
<path id="Vector" fill-rule="evenodd" clip-rule="evenodd" d="M29.3287 24.3792L18.5314 1.01028C18.3974 0.7225 18.1895 0.477032 17.9297 0.299868C17.6699 0.122705 17.368 0.0204409 17.0559 0.00390732C16.7433 -0.0174405 16.4309 0.0489817 16.1528 0.19595C15.8747 0.342918 15.6414 0.564806 15.4783 0.837482L3.76744 20.1689C3.58936 20.4608 3.49662 20.7984 3.50009 21.1422C3.50357 21.4859 3.60312 21.8215 3.78706 22.1096L9.51261 31.147C9.72922 31.4862 10.0476 31.745 10.4203 31.8847C10.793 32.0244 11.2001 32.0375 11.5807 31.9221L28.1962 26.9127C28.4463 26.8381 28.6779 26.7097 28.8752 26.5361C29.0725 26.3625 29.2309 26.1477 29.3397 25.9063C29.447 25.6662 29.5017 25.4051 29.5 25.1412C29.4982 24.8773 29.4392 24.6178 29.3287 24.3792ZM26.9114 25.3823L12.8122 29.631C12.3821 29.7614 11.9692 29.3814 12.0587 28.9382L17.0959 4.35497C17.1901 3.89499 17.8133 3.82139 18.0103 4.24778L27.3352 24.4312C27.3764 24.5212 27.398 24.6192 27.3984 24.7185C27.3988 24.8178 27.3781 24.916 27.3377 25.0064C27.2972 25.0968 27.238 25.1771 27.1641 25.2419C27.0903 25.3066 27.0035 25.3543 26.9098 25.3815L26.9114 25.3823Z" fill="#0C344B"/>
</g>
</g>
</svg>
