<svg width="32" height="32" viewBox="0 0 32 32" fill="none" xmlns="http://www.w3.org/2000/svg">
<g id="icons/round/behance">
<path id="Combined Shape" fill-rule="evenodd" clip-rule="evenodd" d="M16 0C7.16345 0 0 7.16345 0 16C0 24.8365 7.16345 32 16 32C24.8365 32 32 24.8365 32 16C32 7.16345 24.8365 0 16 0ZM22.8918 12.4465H18.3722V11.1517H22.8918V12.4465ZM22.4933 13.5336C23.0382 13.7732 23.4868 14.1533 23.84 14.672C24.1621 15.1294 24.3688 15.66 24.4631 16.2628C24.5183 16.6152 24.5404 17.1261 24.5314 17.7903H18.8488C18.8829 18.5615 19.1519 19.103 19.6656 19.4128C19.9767 19.606 20.351 19.7029 20.7905 19.7029C21.2531 19.7029 21.6314 19.5851 21.9214 19.3505C22.0809 19.2228 22.2214 19.0466 22.3418 18.8209H24.424C24.3688 19.2762 24.1159 19.7405 23.6684 20.2118C22.97 20.9591 21.9916 21.3334 20.7343 21.3334C19.6957 21.3334 18.7796 21.0186 17.9879 20.387C17.1921 19.7563 16.7968 18.7288 16.7968 17.3073C16.7968 15.9738 17.155 14.9512 17.8705 14.2394C18.5879 13.5297 19.5161 13.1722 20.659 13.1722C21.3384 13.1722 21.9495 13.293 22.4933 13.5336ZM15.7803 13.3633C15.7803 12.7465 15.6187 12.2179 15.2966 11.7754C14.7598 11.0547 13.8496 10.6854 12.5632 10.6666H7.46667V21.0709H12.219C12.7549 21.0709 13.2506 21.0254 13.7091 20.9314C14.1677 20.8363 14.5641 20.6631 14.9002 20.4087C15.1993 20.1869 15.4481 19.9137 15.6468 19.59C15.9609 19.101 16.1174 18.5476 16.1174 17.9309C16.1174 17.3329 15.9799 16.8241 15.707 16.4064C15.4311 15.9875 15.0257 15.6816 14.4878 15.4877C14.842 15.3094 15.11 15.1115 15.2926 14.8956C15.6187 14.5096 15.7803 13.9978 15.7803 13.3633Z" fill="#222222"/>
<path id="Combined Shape_2" fill-rule="evenodd" clip-rule="evenodd" d="M9.56889 12.4733V14.769H12.1337C12.5903 14.769 12.9626 14.6829 13.2496 14.5107C13.5345 14.3384 13.678 14.0335 13.678 13.598C13.678 13.1119 13.4894 12.7921 13.1121 12.6357C12.785 12.5278 12.3695 12.4733 11.8648 12.4733H9.56889ZM19.4429 15.2719C19.1549 15.5649 18.9733 15.9619 18.899 16.4628H22.4141C22.377 15.9282 22.1944 15.5244 21.8712 15.2462C21.5441 14.9699 21.1417 14.8323 20.66 14.8323C20.1383 14.8323 19.7309 14.9788 19.4429 15.2719ZM9.56889 19.2653V16.4905H12.1658C12.6174 16.4944 12.9696 16.5539 13.2204 16.6668C13.669 16.8697 13.8918 17.2409 13.8918 17.7834C13.8918 18.4229 13.661 18.8546 13.1984 19.0822C12.9445 19.204 12.5873 19.2653 12.1297 19.2653H9.56889Z" fill="#222222"/>
</g>
</svg>
