<svg width="32" height="32" viewBox="0 0 32 32" fill="none" xmlns="http://www.w3.org/2000/svg">
<g id="icons/round/mail">
<path id="Combined Shape" fill-rule="evenodd" clip-rule="evenodd" d="M16 32C24.8366 32 32 24.8365 32 16C32 7.16345 24.8366 0 16 0C7.16344 0 0 7.16345 0 16C0 24.8365 7.16344 32 16 32ZM16.2229 15.1021C14.973 15.1021 8.53333 11.4502 8.53333 11.4502V10.88C8.53333 10.1735 9.10677 9.59998 9.81461 9.59998H22.6313C23.3397 9.59998 23.9132 10.1735 23.9132 10.88L23.9029 11.52C23.9029 11.52 17.533 15.1021 16.2229 15.1021ZM23.9029 13.4401C23.9029 13.4401 17.5932 16.8621 16.2229 16.8621C14.973 16.8621 8.54293 13.4401 8.54357 13.4401L8.53333 21.1201C8.53333 21.8267 9.10741 22.4 9.81461 22.4H22.6313C23.3397 22.4 23.9132 21.8267 23.9132 21.1201L23.9029 13.4401Z" fill="#222222"/>
</g>
</svg>
