<svg width="32" height="32" viewBox="0 0 32 32" fill="none" xmlns="http://www.w3.org/2000/svg">
<g id="icons/round/name">
<path id="Combined Shape" fill-rule="evenodd" clip-rule="evenodd" d="M16 32C24.8366 32 32 24.8365 32 16C32 7.16345 24.8366 0 16 0C7.16344 0 0 7.16345 0 16C0 24.8365 7.16344 32 16 32ZM20 11C20 13.2091 18.2091 15 16 15C13.7909 15 12 13.2091 12 11C12 8.79089 13.7909 7 16 7C18.2091 7 20 8.79089 20 11ZM11.4042 16.0884C11.7439 15.729 12.2993 15.7489 12.7128 16.0201C13.6569 16.6396 14.7864 17 16 17C17.2136 17 18.3431 16.6396 19.2872 16.0201C19.7007 15.7489 20.2561 15.729 20.5958 16.0884C22.069 17.6466 23 19.9413 23 22.5C23 22.78 22.7679 23 22.4879 23H9.5121C9.23207 23 9 22.78 9 22.5C9 19.9413 9.93104 17.6466 11.4042 16.0884Z" fill="#222222"/>
</g>
</svg>
