<svg width="113" height="28" viewBox="0 0 113 28" fill="none" xmlns="http://www.w3.org/2000/svg">
<g id="brand/logo-horizontal">
<path id=".vadistic" d="M2.352 24C2.16533 24 2.00667 23.9347 1.876 23.804C1.74533 23.6733 1.68 23.5147 1.68 23.328V20.556C1.68 20.3693 1.74533 20.2107 1.876 20.08C2.00667 19.9307 2.16533 19.856 2.352 19.856H5.152C5.33867 19.856 5.49733 19.9307 5.628 20.08C5.75867 20.2107 5.824 20.3693 5.824 20.556V23.328C5.824 23.5147 5.75867 23.6733 5.628 23.804C5.49733 23.9347 5.33867 24 5.152 24H2.352ZM13.0977 24C12.8177 24 12.603 23.944 12.4537 23.832C12.3043 23.7013 12.183 23.524 12.0897 23.3L6.85366 10.308L6.79766 10.056C6.79766 9.888 6.85366 9.748 6.96566 9.636C7.09632 9.50533 7.24566 9.44 7.41366 9.44H9.68166C10.0363 9.44 10.279 9.61733 10.4097 9.972L14.1337 19.8L17.8577 9.972C17.9137 9.84133 17.9977 9.72 18.1097 9.608C18.2403 9.496 18.399 9.44 18.5857 9.44H20.8817C21.031 9.44 21.1617 9.50533 21.2737 9.636C21.4043 9.748 21.4697 9.888 21.4697 10.056C21.4697 10.168 21.4603 10.252 21.4417 10.308L16.1777 23.3C16.0843 23.524 15.963 23.7013 15.8137 23.832C15.6643 23.944 15.4497 24 15.1697 24H13.0977ZM27.6502 24.28C26.6982 24.28 25.8209 24.0933 25.0182 23.72C24.2342 23.328 23.6089 22.8053 23.1422 22.152C22.6942 21.4987 22.4702 20.78 22.4702 19.996C22.4702 18.7267 22.9836 17.7 24.0102 16.916C25.0369 16.132 26.4462 15.6 28.2382 15.32L32.0742 14.76V14.172C32.0742 13.3507 31.8689 12.7347 31.4582 12.324C31.0476 11.9133 30.3849 11.708 29.4702 11.708C28.8542 11.708 28.3502 11.8293 27.9582 12.072C27.5849 12.296 27.2862 12.52 27.0622 12.744C26.8382 12.9867 26.6889 13.1453 26.6142 13.22C26.5396 13.444 26.3996 13.556 26.1942 13.556H24.0382C23.8702 13.556 23.7209 13.5 23.5902 13.388C23.4782 13.276 23.4222 13.1267 23.4222 12.94C23.4409 12.4733 23.6649 11.9413 24.0942 11.344C24.5422 10.7467 25.2236 10.2333 26.1382 9.804C27.0529 9.37467 28.1729 9.16 29.4982 9.16C31.7009 9.16 33.3062 9.65467 34.3142 10.644C35.3222 11.6333 35.8262 12.9307 35.8262 14.536V23.328C35.8262 23.5147 35.7609 23.6733 35.6302 23.804C35.5182 23.9347 35.3596 24 35.1542 24H32.8862C32.6996 24 32.5409 23.9347 32.4102 23.804C32.2796 23.6733 32.2142 23.5147 32.2142 23.328V22.236C31.8036 22.8333 31.2156 23.328 30.4502 23.72C29.7036 24.0933 28.7702 24.28 27.6502 24.28ZM28.6022 21.62C29.6289 21.62 30.4689 21.284 31.1222 20.612C31.7756 19.94 32.1022 18.96 32.1022 17.672V17.084L29.3022 17.532C28.2196 17.7 27.3982 17.9707 26.8382 18.344C26.2969 18.7173 26.0262 19.1747 26.0262 19.716C26.0262 20.3133 26.2782 20.78 26.7822 21.116C27.2862 21.452 27.8929 21.62 28.6022 21.62ZM44.8223 24.28C42.937 24.28 41.4903 23.6733 40.4823 22.46C39.4743 21.2467 38.933 19.632 38.8583 17.616L38.8303 16.692L38.8583 15.796C38.9143 13.836 39.4463 12.24 40.4543 11.008C41.481 9.776 42.937 9.16 44.8223 9.16C46.633 9.16 48.0703 9.776 49.1343 11.008V4.792C49.1343 4.58667 49.1996 4.428 49.3303 4.316C49.461 4.18533 49.6196 4.12 49.8063 4.12H52.1863C52.3916 4.12 52.5503 4.18533 52.6623 4.316C52.793 4.428 52.8583 4.58667 52.8583 4.792V23.328C52.8583 23.5147 52.793 23.6733 52.6623 23.804C52.5503 23.9347 52.3916 24 52.1863 24H49.9743C49.7876 24 49.629 23.9347 49.4983 23.804C49.3676 23.6733 49.3023 23.5147 49.3023 23.328V22.292C48.2383 23.6173 46.745 24.28 44.8223 24.28ZM45.8583 21.284C46.941 21.284 47.7436 20.9387 48.2663 20.248C48.789 19.5573 49.0783 18.708 49.1343 17.7C49.153 17.476 49.1623 17.112 49.1623 16.608C49.1623 16.1227 49.153 15.768 49.1343 15.544C49.097 14.6107 48.7983 13.8173 48.2383 13.164C47.697 12.492 46.9036 12.156 45.8583 12.156C43.8423 12.156 42.769 13.3973 42.6383 15.88L42.6103 16.72L42.6383 17.56C42.769 20.0427 43.8423 21.284 45.8583 21.284ZM57.1502 7.032C56.9635 7.032 56.8049 6.96667 56.6742 6.836C56.5435 6.70533 56.4782 6.54667 56.4782 6.36V4.344C56.4782 4.15733 56.5435 3.99867 56.6742 3.868C56.8049 3.73733 56.9635 3.672 57.1502 3.672H59.6982C59.8849 3.672 60.0435 3.73733 60.1742 3.868C60.3235 3.99867 60.3982 4.15733 60.3982 4.344V6.36C60.3982 6.54667 60.3329 6.70533 60.2022 6.836C60.0715 6.96667 59.9035 7.032 59.6982 7.032H57.1502ZM57.2622 24C57.0755 24 56.9169 23.9347 56.7862 23.804C56.6555 23.6733 56.5902 23.5147 56.5902 23.328V10.112C56.5902 9.92533 56.6555 9.76667 56.7862 9.636C56.9169 9.50533 57.0755 9.44 57.2622 9.44H59.5862C59.7915 9.44 59.9502 9.50533 60.0622 9.636C60.1929 9.748 60.2582 9.90667 60.2582 10.112V23.328C60.2582 23.5147 60.1929 23.6733 60.0622 23.804C59.9502 23.9347 59.7915 24 59.5862 24H57.2622ZM69.489 24.28C68.089 24.28 66.913 24.0747 65.961 23.664C65.009 23.2347 64.2997 22.74 63.833 22.18C63.385 21.6013 63.161 21.1067 63.161 20.696C63.161 20.5093 63.2263 20.36 63.357 20.248C63.4877 20.136 63.637 20.08 63.805 20.08H66.017C66.185 20.08 66.325 20.1453 66.437 20.276C66.5117 20.332 66.7077 20.5 67.025 20.78C67.3423 21.0787 67.7157 21.312 68.145 21.48C68.5743 21.648 69.0503 21.732 69.573 21.732C70.3197 21.732 70.9357 21.5827 71.421 21.284C71.9063 20.9853 72.149 20.5747 72.149 20.052C72.149 19.66 72.037 19.3427 71.813 19.1C71.6077 18.8573 71.225 18.6427 70.665 18.456C70.105 18.2507 69.2743 18.036 68.173 17.812C66.5863 17.476 65.4103 16.9627 64.645 16.272C63.8983 15.5813 63.525 14.6667 63.525 13.528C63.525 12.7813 63.749 12.0813 64.197 11.428C64.645 10.756 65.3077 10.2147 66.185 9.804C67.081 9.37467 68.145 9.16 69.377 9.16C70.6277 9.16 71.7103 9.36533 72.625 9.776C73.5397 10.168 74.2303 10.644 74.697 11.204C75.1823 11.7453 75.425 12.2307 75.425 12.66C75.425 12.828 75.3597 12.9773 75.229 13.108C75.117 13.22 74.977 13.276 74.809 13.276H72.737C72.5877 13.276 72.429 13.2107 72.261 13.08C72.1303 12.9867 71.925 12.8093 71.645 12.548C71.365 12.2867 71.0383 12.0813 70.665 11.932C70.2917 11.7827 69.853 11.708 69.349 11.708C68.6583 11.708 68.117 11.8573 67.725 12.156C67.3517 12.4547 67.165 12.8467 67.165 13.332C67.165 13.6867 67.2583 13.976 67.445 14.2C67.6317 14.424 67.9957 14.6387 68.537 14.844C69.0783 15.0493 69.8903 15.2547 70.973 15.46C72.765 15.8147 74.0437 16.3653 74.809 17.112C75.593 17.8587 75.985 18.7733 75.985 19.856C75.985 21.1627 75.4157 22.2267 74.277 23.048C73.1383 23.8693 71.5423 24.28 69.489 24.28ZM85.4007 24C83.702 24 82.4233 23.5613 81.5647 22.684C80.7247 21.788 80.3047 20.4813 80.3047 18.764V12.408H78.0927C77.906 12.408 77.7473 12.3427 77.6167 12.212C77.486 12.0627 77.4207 11.8947 77.4207 11.708V10.112C77.4207 9.92533 77.486 9.76667 77.6167 9.636C77.7473 9.50533 77.906 9.44 78.0927 9.44H80.3047V4.792C80.3047 4.58667 80.37 4.428 80.5007 4.316C80.6313 4.18533 80.79 4.12 80.9767 4.12H83.2447C83.45 4.12 83.6087 4.18533 83.7207 4.316C83.8513 4.428 83.9167 4.58667 83.9167 4.792V9.44H87.4167C87.622 9.44 87.7807 9.50533 87.8927 9.636C88.0233 9.748 88.0887 9.90667 88.0887 10.112V11.708C88.0887 11.9133 88.0233 12.0813 87.8927 12.212C87.762 12.3427 87.6033 12.408 87.4167 12.408H83.9167V18.484C83.9167 19.2867 84.0567 19.8933 84.3367 20.304C84.6167 20.7147 85.0833 20.92 85.7367 20.92H87.6687C87.8553 20.92 88.014 20.9853 88.1447 21.116C88.2753 21.2467 88.3407 21.4053 88.3407 21.592V23.328C88.3407 23.5147 88.2753 23.6733 88.1447 23.804C88.0327 23.9347 87.874 24 87.6687 24H85.4007ZM91.3846 7.032C91.1979 7.032 91.0392 6.96667 90.9086 6.836C90.7779 6.70533 90.7126 6.54667 90.7126 6.36V4.344C90.7126 4.15733 90.7779 3.99867 90.9086 3.868C91.0392 3.73733 91.1979 3.672 91.3846 3.672H93.9326C94.1192 3.672 94.2779 3.73733 94.4086 3.868C94.5579 3.99867 94.6326 4.15733 94.6326 4.344V6.36C94.6326 6.54667 94.5672 6.70533 94.4366 6.836C94.3059 6.96667 94.1379 7.032 93.9326 7.032H91.3846ZM91.4966 24C91.3099 24 91.1512 23.9347 91.0206 23.804C90.8899 23.6733 90.8246 23.5147 90.8246 23.328V10.112C90.8246 9.92533 90.8899 9.76667 91.0206 9.636C91.1512 9.50533 91.3099 9.44 91.4966 9.44H93.8206C94.0259 9.44 94.1846 9.50533 94.2966 9.636C94.4272 9.748 94.4926 9.90667 94.4926 10.112V23.328C94.4926 23.5147 94.4272 23.6733 94.2966 23.804C94.1846 23.9347 94.0259 24 93.8206 24H91.4966ZM104.507 24.28C102.454 24.28 100.811 23.7107 99.5794 22.572C98.366 21.4333 97.722 19.856 97.6474 17.84L97.6194 16.72L97.6474 15.6C97.722 13.584 98.366 12.0067 99.5794 10.868C100.811 9.72933 102.454 9.16 104.507 9.16C105.963 9.16 107.195 9.42133 108.203 9.944C109.23 10.4667 109.986 11.1107 110.471 11.876C110.975 12.6227 111.246 13.332 111.283 14.004C111.302 14.1907 111.237 14.3493 111.087 14.48C110.957 14.6107 110.798 14.676 110.611 14.676H108.147C107.961 14.676 107.811 14.6387 107.699 14.564C107.606 14.4707 107.513 14.3213 107.419 14.116C107.139 13.388 106.766 12.8653 106.299 12.548C105.851 12.2307 105.273 12.072 104.563 12.072C103.611 12.072 102.865 12.38 102.323 12.996C101.782 13.5933 101.493 14.508 101.455 15.74L101.427 16.776L101.455 17.7C101.53 20.1453 102.566 21.368 104.563 21.368C105.291 21.368 105.879 21.2093 106.327 20.892C106.775 20.5747 107.139 20.052 107.419 19.324C107.513 19.1187 107.606 18.9787 107.699 18.904C107.811 18.8107 107.961 18.764 108.147 18.764H110.611C110.798 18.764 110.957 18.8293 111.087 18.96C111.237 19.0907 111.302 19.2493 111.283 19.436C111.246 20.0893 110.985 20.7893 110.499 21.536C110.014 22.2827 109.267 22.9267 108.259 23.468C107.251 24.0093 106.001 24.28 104.507 24.28Z" fill="#222222"/>
</g>
</svg>
