<svg width="80" height="80" viewBox="0 0 80 80" fill="none" xmlns="http://www.w3.org/2000/svg">
<path d="M48 0H0V48H48V0Z" transform="translate(16 16)" fill="#FF3F94"/>
<path d="M43.776 0H0V43.776H43.776V0Z" transform="translate(18.112 18.112)" fill="#2E0013"/>
<path d="M3.4368 21.2341C3.4368 21.4322 3.37998 21.5312 3.18114 21.5312H0.227161C0.0568206 21.5312 0 21.4322 0 21.2341V0.231181C0 0.0330007 0.0852006 0 0.227161 0H3.20958C3.37998 0 3.43686 0.0330007 3.43686 0.231181V21.2341H3.4368Z" transform="translate(30.3455 27.61)" fill="#FF3F94"/>
<path d="M0 13.9415C0 9.23106 2.9862 5.268 7.73052 5.268C8.37234 5.268 8.84688 5.33298 9.3213 5.49546V0.22734C9.3213 0.0648601 9.37716 0 9.4887 0H12.5307C12.6422 0 12.6702 0.0648606 12.6702 0.194821V18.002C12.6702 18.6841 12.7261 19.5613 12.754 20.081C12.7819 20.2434 12.754 20.3083 12.6145 20.4058C10.8561 21.4128 8.87484 21.9976 7.03284 21.9976C2.9304 21.9976 0 19.3662 0 13.9415ZM9.3213 8.58138C8.90256 8.3865 8.31666 8.289 7.67466 8.289C5.16294 8.289 3.46062 10.433 3.46062 13.7465C3.46062 17.4172 5.30262 18.8791 7.42368 18.8791C8.12136 18.8791 8.81904 18.749 9.32136 18.5542V8.58138H9.3213Z" transform="translate(37.2532 27.4963)" fill="#FF3F94"/>
</svg>
