<svg width="80" height="80" viewBox="0 0 80 80" fill="none" xmlns="http://www.w3.org/2000/svg">
<path d="M48 17.1973V18.8043C47.985 18.8914 47.966 18.977 47.9561 19.0638C47.8744 19.7628 47.8214 20.4662 47.7084 21.16C47.3395 23.4149 46.5418 25.5108 45.3566 27.4487C43.5567 30.391 41.1236 32.6347 38.0658 34.1669C36.301 35.0554 34.3981 35.6264 32.4417 35.8546C32.0071 35.9056 31.5729 35.9514 31.1384 36H14.2756C14.1906 35.9839 14.1061 35.9582 14.0203 35.953C12.32 35.8441 10.684 35.45 9.12474 34.7562C5.72998 33.2457 3.19881 30.7976 1.54193 27.4278C0.809775 25.9415 0.33596 24.3376 0.141432 22.687C0.0936296 22.2857 0.0470123 21.8847 0 21.4838V19.9247C0.0161975 19.8383 0.0410864 19.752 0.0462222 19.6652C0.134321 18.1671 0.436543 16.7124 0.968691 15.3144C2.40079 11.5526 4.89719 8.76258 8.44484 6.95679C10.2854 6.01955 12.2473 5.52703 14.2993 5.41776C15.3039 5.36473 16.3078 5.42177 17.3065 5.55796C17.3969 5.57041 17.5273 5.52944 17.5901 5.46396C19.0262 3.97233 20.6613 2.7607 22.5051 1.84234C24.2935 0.951703 26.1756 0.377628 28.1568 0.147837C28.623 0.0936035 29.0904 0.0490113 29.5573 0H30.995C31.089 0.0148641 31.1834 0.0317368 31.2774 0.0429853C31.9897 0.127349 32.706 0.180378 33.4116 0.300495C35.6128 0.676115 37.662 1.47958 39.5583 2.67312C42.466 4.50341 44.6819 6.9809 46.1958 10.0999C47.0713 11.8954 47.6334 13.8319 47.857 15.823C47.9083 16.2814 47.9522 16.7398 48 17.1973ZM21.1615 6.79931C21.1903 6.83788 21.1974 6.85596 21.2097 6.86198C22.1969 7.35682 23.1405 7.93705 24.03 8.59626C24.0861 8.63764 24.2252 8.62036 24.2931 8.57698C26.7378 7.00179 29.3879 6.45824 32.2347 6.97166C35.0242 7.47462 37.2942 8.89193 39.0285 11.1557C40.9924 13.7175 41.741 16.6144 41.199 19.8375C40.8356 21.9976 39.9846 23.9356 38.5383 25.559C35.8993 28.5185 32.5946 29.7426 28.7044 29.2244C26.3095 28.9054 24.2422 27.8549 22.5312 26.0965C20.335 23.8408 18.1246 21.5999 15.9222 19.3502C15.6286 19.0505 15.3019 18.8095 14.8792 18.7569C14.1408 18.6649 13.4708 19.0397 13.152 19.7142C12.8676 20.3164 12.9043 20.9953 13.5214 21.6124C15.9767 24.0633 18.4103 26.5368 20.8628 28.9902C21.2826 29.4122 21.7327 29.8018 22.2096 30.1556C24.0012 31.4785 26.0211 32.2101 28.2086 32.5045C29.9255 32.7351 31.629 32.6857 33.3195 32.2992C36.544 31.5629 39.215 29.8893 41.3187 27.3069C43.0558 25.1729 44.1063 22.7208 44.4725 19.9677C44.6847 18.3978 44.6404 16.803 44.3413 15.2477C43.8534 12.7048 42.7955 10.4294 41.1002 8.49261C37.8659 4.79949 33.7967 3.15078 28.9545 3.51877C27.0918 3.66018 25.3298 4.21658 23.6717 5.09918C22.777 5.57191 21.9353 6.14195 21.1615 6.79931V6.79931ZM19.9767 32.5809C19.9101 32.5181 19.8437 32.455 19.7776 32.3916C18.7737 31.4279 17.7643 30.4702 16.7723 29.494C16.5803 29.3051 16.4038 29.2131 16.132 29.2196C15.1273 29.2445 14.1219 29.2489 13.1319 29.0215C8.20938 27.8894 5.35111 22.4472 7.16523 17.6585C8.59615 13.8826 12.5574 11.5831 16.4638 12.2922C18.2147 12.61 19.7515 13.3636 21.0129 14.6865C22.5513 16.3015 24.1355 17.8702 25.6905 19.4687C26.0444 19.8327 26.451 19.9986 26.9412 19.9275C27.5749 19.8355 28.0794 19.5286 28.3085 18.8967C28.5329 18.2748 28.4243 17.6858 27.9613 17.209C26.3293 15.5277 24.736 13.8043 23.038 12.1946C19.7448 9.07111 15.8613 8.1423 11.5662 9.47043C5.78923 11.2553 2.4083 17.3215 3.7282 23.3073C4.93116 28.7612 9.62173 32.5889 15.1103 32.5937C16.6428 32.5953 18.1756 32.5945 19.7081 32.5937C19.7839 32.5937 19.8598 32.5869 19.9767 32.5809Z" transform="translate(16 22)" fill="#DA1F26"/>
</svg>
