<svg width="352" height="270" viewBox="0 0 352 270" fill="none" xmlns="http://www.w3.org/2000/svg">
<rect width="352" height="270" rx="2" fill="#F5F5F5"/>
<rect x="32.4923" y="32.4" width="216.615" height="21.6" rx="2" fill="#DDDDDD"/>
<rect x="32.4923" y="86.4" width="281.6" height="10.8" rx="2" fill="#DDDDDD"/>
<rect x="32.4923" y="129.6" width="281.6" height="10.8" rx="2" fill="#DDDDDD"/>
<rect x="129.969" y="151.2" width="86.6461" height="86.4" rx="2" fill="#DDDDDD"/>
<rect x="227.446" y="151.2" width="86.6461" height="86.4" rx="2" fill="#DDDDDD"/>
<rect x="32.4923" y="64.7998" width="270.769" height="10.8" rx="2" fill="#DDDDDD"/>
<rect x="32.4923" y="108" width="270.769" height="10.8" rx="2" fill="#DDDDDD"/>
<rect x="32.4923" y="151.2" width="86.6461" height="86.4" rx="2" fill="#DDDDDD"/>
<rect x="33.4923" y="64.4497" width="280.954" height="76.3" stroke="#6534FF" stroke-width="2"/>
<rect x="28.9307" y="59.9" width="9.83077" height="9.8" fill="#FFFAFA" stroke="#6534FF"/>
<rect x="309.177" y="59.8999" width="9.83077" height="9.8" fill="#FFFAFA" stroke="#6534FF"/>
<rect x="309.177" y="135.5" width="9.83077" height="9.8" fill="#FFFAFA" stroke="#6534FF"/>
<rect x="28.9307" y="135.5" width="9.83077" height="9.8" fill="#FFFAFA" stroke="#6534FF"/>
<path fill-rule="evenodd" clip-rule="evenodd" d="M278.876 212.262C278.6 213.071 277.839 213.616 276.983 213.616H264.801C263.945 213.616 263.185 213.071 262.908 212.262L256.325 192.968C256.121 192.369 256.212 191.708 256.571 191.187L269.246 172.804C270.041 171.651 271.744 171.651 272.539 172.804L285.213 191.187C285.573 191.708 285.664 192.369 285.46 192.968L278.876 212.262Z" fill="#FFFAFA"/>
<path fill-rule="evenodd" clip-rule="evenodd" d="M260.708 219.016C259.603 219.016 258.708 218.12 258.708 217.016V215.616C258.708 214.511 259.603 213.616 260.708 213.616H281.077C282.182 213.616 283.077 214.511 283.077 215.616V217.016C283.077 218.12 282.182 219.016 281.077 219.016H260.708ZM270.892 189.316C269.397 189.316 268.185 188.107 268.185 186.616C268.185 185.125 269.397 183.916 270.892 183.916C272.388 183.916 273.6 185.125 273.6 186.616C273.6 188.107 272.388 189.316 270.892 189.316Z" fill="#6534FF"/>
</svg>
