<svg width="32" height="32" viewBox="0 0 32 32" fill="none" xmlns="http://www.w3.org/2000/svg">
<path fill-rule="evenodd" clip-rule="evenodd" d="M16 0C7.16345 0 0 7.16345 0 16C0 24.8365 7.16345 32 16 32C24.8365 32 32 24.8365 32 16C32 7.16345 24.8365 0 16 0ZM22.8918 12.4465H18.3722V11.1517H22.8918V12.4465ZM22.4933 13.5336C23.0382 13.7732 23.4868 14.1533 23.84 14.672C24.1621 15.1294 24.3688 15.66 24.4631 16.2628C24.5183 16.6152 24.5404 17.1261 24.5314 17.7903H18.8488C18.8829 18.5615 19.1519 19.103 19.6656 19.4128C19.9767 19.606 20.351 19.7029 20.7905 19.7029C21.2531 19.7029 21.6314 19.5851 21.9214 19.3505C22.0809 19.2228 22.2214 19.0466 22.3418 18.8209H24.424C24.3688 19.2762 24.1159 19.7405 23.6684 20.2118C22.97 20.9591 21.9916 21.3334 20.7343 21.3334C19.6957 21.3334 18.7796 21.0186 17.9879 20.387C17.1921 19.7563 16.7968 18.7288 16.7968 17.3073C16.7968 15.9738 17.155 14.9512 17.8705 14.2394C18.5879 13.5297 19.5161 13.1722 20.659 13.1722C21.3384 13.1722 21.9495 13.293 22.4933 13.5336ZM15.7803 13.3633C15.7803 12.7465 15.6187 12.2179 15.2966 11.7754C14.7598 11.0547 13.8496 10.6854 12.5632 10.6666H7.46667V21.0709H12.219C12.7549 21.0709 13.2506 21.0254 13.7091 20.9314C14.1677 20.8363 14.5641 20.6631 14.9002 20.4087C15.1993 20.1869 15.4481 19.9137 15.6468 19.59C15.9609 19.101 16.1174 18.5476 16.1174 17.9309C16.1174 17.3329 15.9799 16.8241 15.707 16.4064C15.4311 15.9875 15.0257 15.6816 14.4878 15.4877C14.842 15.3094 15.11 15.1115 15.2926 14.8956C15.6187 14.5096 15.7803 13.9978 15.7803 13.3633Z" fill="#222222"/>
<path fill-rule="evenodd" clip-rule="evenodd" d="M0 0V2.29565H2.56482C3.02139 2.29565 3.39368 2.20959 3.68066 2.03735C3.96564 1.86511 4.10913 1.56018 4.10913 1.12463C4.10913 0.63855 3.9205 0.318726 3.54318 0.162354C3.21606 0.0544434 2.80063 0 2.2959 0H0ZM9.87399 2.79858C9.586 3.09155 9.40436 3.48853 9.33011 3.9895H12.8452C12.8081 3.45483 12.6255 3.05103 12.3023 2.77283C11.9752 2.49658 11.5728 2.35901 11.0912 2.35901C10.5694 2.35901 10.162 2.50549 9.87399 2.79858ZM0 6.79199V4.01721H2.59692C3.04849 4.02112 3.4007 4.08057 3.65155 4.19348C4.1001 4.39636 4.32288 4.76758 4.32288 5.31006C4.32288 5.94958 4.09207 6.38123 3.62949 6.60889C3.37561 6.73071 3.01837 6.79199 2.56082 6.79199H0Z" transform="translate(9.56889 12.4733)" fill="#222222"/>
</svg>
