<svg width="32" height="32" viewBox="0 0 32 32" fill="none" xmlns="http://www.w3.org/2000/svg">
<path fill-rule="evenodd" clip-rule="evenodd" d="M16.0001 0C7.16466 0 0 7.34442 0 16.4049C0 23.6532 4.58453 29.8026 10.9419 31.9718C11.7415 32.1237 12.0351 31.6159 12.0351 31.1826C12.0351 30.7914 12.0202 29.4991 12.0133 28.1283C7.56209 29.1207 6.62283 26.1927 6.62283 26.1927C5.89499 24.2965 4.8463 23.7923 4.8463 23.7923C3.39461 22.7741 4.95573 22.795 4.95573 22.795C6.56242 22.9105 7.40842 24.4856 7.40842 24.4856C8.83547 26.9936 11.1514 26.2685 12.0645 25.8493C12.2081 24.7893 12.6227 24.065 13.0803 23.6556C9.52647 23.2408 5.7906 21.8341 5.7906 15.5481C5.7906 13.757 6.41563 12.2936 7.43916 11.1447C7.27303 10.7313 6.72536 9.06297 7.59415 6.80327C7.59415 6.80327 8.93774 6.36236 11.9953 8.48487C13.2716 8.12138 14.6404 7.93909 16.0001 7.93285C17.3599 7.93909 18.7297 8.12138 20.0084 8.48487C23.0623 6.36236 24.404 6.80327 24.404 6.80327C25.2749 9.06297 24.727 10.7313 24.5608 11.1447C25.5868 12.2936 26.2075 13.757 26.2075 15.5481C26.2075 21.8491 22.4645 23.2365 18.9017 23.6426C19.4756 24.1517 19.9869 25.1501 19.9869 26.6806C19.9869 28.8754 19.9684 30.642 19.9684 31.1826C19.9684 31.6192 20.2564 32.1307 21.0674 31.9696C27.4213 29.798 32 23.6508 32 16.4049C32 7.34442 24.8364 0 16.0001 0" fill="#222222"/>
</svg>
