<svg width="406" height="361" viewBox="0 0 406 361" fill="none" xmlns="http://www.w3.org/2000/svg">
<path d="M0 5.41429e-06L7.1595 41.737L62.2565 67.5509L0 5.41429e-06Z" transform="translate(58.3193 191.899)" fill="#F5F5F5"/>
<path d="M63.2348 68.6154L62.4788 68.2606L7.2929 42.3579V42.2692L-2.71417e-06 0L63.2348 68.6154ZM7.60419 42.1362L61.8563 67.5953L0.53363 1.0645L7.60419 42.1362Z" transform="translate(58.0532 191.367)" fill="white"/>
<path d="M55.097 54.5996V25.8139L2.71417e-06 -5.41429e-06L55.097 54.5996Z" transform="translate(65.4785 233.636)" fill="#D0D2D3"/>
<path d="M56.0753 55.5754L55.8085 55.3092L-5.42834e-06 0L0.889373 0.399195L56.0753 26.3018V55.5754ZM1.60088 1.10885L55.7196 54.777V26.5236L1.60088 1.10885Z" transform="translate(64.6787 233.059)" fill="white"/>
<path d="M62.2565 67.5509L0 5.41429e-06L166.758 2.57252L62.2565 67.5509Z" transform="translate(58.3193 191.899)" fill="#F5F5F5"/>
<path d="M62.6122 67.9501L62.5233 67.8614L2.71417e-06 -5.41429e-06H0.40022L167.737 2.57251L167.248 2.88299L62.6122 67.9501ZM0.800438 0.35482L62.7012 67.5066L166.581 2.88299L0.800438 0.35482Z" transform="translate(57.9194 191.722)" fill="white"/>
<path d="M20.8115 0L94.3631 70.2565L-1.08567e-05 37.7895L20.8115 0Z" transform="translate(247.357 74.0508)" fill="#F5F5F5"/>
<path d="M95.2524 70.9218L-1.08567e-05 38.0999L0.0889324 37.9225L20.9893 -2.70714e-06L21.1672 0.133067L95.2524 70.9218ZM0.489164 37.9225L93.9184 70.1234L21.0783 0.532249L0.489164 37.9225Z" transform="translate(247.134 73.7847)" fill="white"/>
<path d="M35.8864 97.9333L-1.08567e-05 5.41429e-06L94.3631 32.467L35.8864 97.9333Z" transform="translate(247.357 111.84)" fill="#D0D2D3"/>
<path d="M36.1088 98.5542L36.0198 98.2881L0 2.70714e-06L0.311288 0.133059L94.8967 32.6888L94.7188 32.8662L36.1088 98.5542ZM0.578091 0.532241L36.2422 97.8889L94.3186 32.8218L0.578091 0.532241Z" transform="translate(247.09 111.574)" fill="white"/>
<path d="M36.9092 39.9185L22.2789 5.41429e-06L15.1639 26.1688L0 82.6312L58.1653 97.9333L36.9092 39.9185Z" transform="translate(225.078 111.84)" fill="#D0D2D3"/>
<path d="M58.6545 98.776L0 83.3409L0.0444581 83.1635L15.2084 26.701L22.4568 -2.70714e-06L37.265 40.4507L58.6545 98.776ZM0.400231 83.0748L58.1209 98.2881L22.5013 1.10884L15.5197 26.8341L0.400231 83.0748Z" transform="translate(224.855 111.264)" fill="white"/>
<path d="M0 93.764L162.667 15.3021L104.502 0L0 64.9784V93.764Z" transform="translate(120.576 194.471)" fill="#D0D2D3"/>
<path d="M2.71417e-06 94.1632V65.0671L0.0889324 65.0227L104.635 5.41429e-06H104.724L163.379 15.4351L162.979 15.6126L2.71417e-06 94.1632ZM0.355749 65.2002V93.5866L162.4 15.4795L104.68 0.310488L0.355749 65.2002Z" transform="translate(120.398 194.338)" fill="white"/>
<path d="M62.2565 2.70714e-06L0 106.05L166.758 108.623L189.037 25.9914L62.2565 2.70714e-06Z" transform="translate(58.3193 85.8489)" fill="white"/>
<path d="M167.159 108.977H167.025L-5.42834e-06 106.405L0.133409 106.139L62.4788 5.41429e-06L62.6122 0.0443484L189.571 26.0357L189.527 26.2131L167.159 108.977ZM0.578099 106.094L166.892 108.667L189.126 26.3018L62.6122 0.399187L0.578099 106.094Z" transform="translate(58.0083 85.6715)" fill="white"/>
<path d="M0 11.7981L126.781 37.7895L147.592 0L0 11.7981Z" transform="translate(120.576 74.0508)" fill="#F5F5F5"/>
<path d="M128.07 38.1443L127.937 38.1L-5.42834e-06 11.9312L1.15619 11.8425L149.06 2.70714e-06L128.07 38.1443ZM2.40133 12.0642L127.937 37.7451L148.526 0.354828L2.40133 12.0642Z" transform="translate(119.375 73.8734)" fill="white"/>
<path d="M0 117.797L-0.602877 117.441C-0.687894 117.585 -0.718496 117.755 -0.689138 117.92L0 117.797ZM62.3341 214.091L61.8419 214.589C62.0526 214.797 62.3717 214.85 62.6385 214.721L62.3341 214.091ZM7.49884 159.867L6.8097 159.99C6.83507 160.132 6.90387 160.263 7.00665 160.365L7.49884 159.867ZM62.3341 12.1536L62.2767 11.456C62.0502 11.4747 61.8468 11.6021 61.7313 11.7979L62.3341 12.1536ZM209.968 0L210.452 -0.505158C210.307 -0.644009 210.11 -0.714097 209.91 -0.69764L209.968 0ZM283.55 70.5846L284.07 71.0534C284.323 70.7725 284.307 70.3413 284.035 70.0795L283.55 70.5846ZM224.965 135.56L225.27 136.19C225.351 136.151 225.424 136.096 225.485 136.029L224.965 135.56ZM-0.51524 118.271L61.8189 186.051L62.8494 185.103L0.51524 117.323L-0.51524 118.271ZM61.6341 185.577V214.091H63.0341V185.577H61.6341ZM62.8263 213.593L7.99103 159.369L7.00665 160.365L61.8419 214.589L62.8263 213.593ZM8.18798 159.744L0.689138 117.674L-0.689138 117.92L6.8097 159.99L8.18798 159.744ZM61.7313 11.7979L-0.602877 117.441L0.602877 118.153L62.937 12.5094L61.7313 11.7979ZM62.3916 12.8513L210.025 0.69764L209.91 -0.69764L62.2767 11.456L62.3916 12.8513ZM209.483 0.505158L283.065 71.0898L284.035 70.0795L210.452 -0.505158L209.483 0.505158ZM283.03 70.1159L224.445 135.091L225.485 136.029L284.07 71.0534L283.03 70.1159ZM224.661 134.93L62.0297 213.461L62.6385 214.721L225.27 136.19L224.661 134.93ZM62.7037 186.171L167.219 121.196L166.48 120.007L61.9646 184.982L62.7037 186.171ZM166.675 121.279L224.791 136.238L225.14 134.882L167.024 119.924L166.675 121.279ZM188.22 38.1058L224.309 135.802L225.622 135.317L189.534 37.6207L188.22 38.1058ZM283.779 69.923L189.106 37.2017L188.648 38.5249L283.321 71.2462L283.779 69.923ZM209.356 -0.340633L188.266 37.5226L189.489 38.2039L210.579 0.340633L209.356 -0.340633ZM62.1948 12.8396L188.738 38.5493L189.016 37.1773L62.4735 11.4677L62.1948 12.8396ZM167.526 120.782L189.554 38.0434L188.201 37.6832L166.173 120.421L167.526 120.782ZM166.861 119.902L0.0117651 117.097L-0.0117651 118.497L166.837 121.301L166.861 119.902ZM62.6313 184.943L7.796 159.233L7.20169 160.501L62.037 186.211L62.6313 184.943Z" transform="translate(58.1787 73.9219)" fill="white"/>
<path d="M401.377 192.23V133.283L275.618 98.2438L308.392 0.221768L308.214 0.133062L308.17 -1.35357e-06L143.59 61.4301L62.3454 38.7653L62.0786 38.6322L62.1231 38.854L62.0342 38.9427H61.9897L0.444688 114.832L0.222343 114.788L0.31128 115.01L-1.35708e-06 115.409L0.444688 115.231L123.935 354.742L124.469 355.762L124.068 353.722L189.171 356.472H189.304L189.349 356.383L401.332 192.54L402.666 192.806L401.377 192.23ZM275.307 98.1551L259.654 93.8084L307.414 2.12898L275.307 98.1551ZM275.174 98.4655L253.384 163.621L225.991 158.343L259.476 94.0745L275.174 98.4655ZM307.903 0.487894L259.298 93.6753L144.124 61.5631L307.903 0.487894ZM143.59 61.7849L259.165 93.9858L225.68 158.255L100.455 134.082L94.6299 119.489L97.2535 119.622L97.4314 119.312C96.4531 119.267 95.4748 119.223 94.4965 119.179L80.889 85.2037L126.514 68.1719L154.441 80.7683C154.618 80.724 154.796 80.6796 154.974 80.6353L126.959 67.9944L143.59 61.7849ZM225.502 158.609L160.266 283.687L100.544 134.481L225.502 158.609ZM72.0841 88.1311L62.9235 41.2934L80.3998 85.0263L72.0841 88.1311ZM80.5332 85.3368L94.0962 119.179C92.7177 119.134 91.2947 119.046 89.8717 119.001C86.4921 118.824 83.0679 118.691 79.6883 118.513C79.1102 118.469 78.5766 118.469 77.9985 118.425L72.1286 88.4416L80.5332 85.3368ZM77.6427 118.425C75.0635 118.292 72.4843 118.203 69.9051 118.07C66.7923 117.937 63.724 117.804 60.6111 117.626C57.6762 117.493 54.7412 117.36 51.8508 117.227C49.0937 117.094 46.3811 116.961 43.624 116.828C41.0893 116.695 38.5101 116.606 35.9754 116.473C33.6185 116.384 31.3061 116.251 28.9493 116.163C26.8592 116.074 24.7247 115.985 22.6347 115.852C20.767 115.764 18.8993 115.675 17.0316 115.586C15.4307 115.497 13.7854 115.453 12.1845 115.364C10.806 115.32 9.47188 115.231 8.09334 115.187C7.02609 115.143 5.91437 115.098 4.84712 115.054C4.04667 115.01 3.2907 114.965 2.49026 114.965C2.13451 114.965 1.73429 114.921 1.37854 114.921L71.8618 88.619L77.6427 118.425ZM77.7317 118.735L79.9551 130.134L2.80154 115.276L77.7317 118.735ZM78.0874 118.78L94.2297 119.534L100.055 134.082L80.3553 130.267L78.0874 118.78ZM143.057 61.6519L126.47 67.817L64.3021 39.6967L143.057 61.6519ZM126.025 67.9944L80.7111 84.8933L62.5678 39.5636L62.5233 39.2532L126.025 67.9944ZM62.1231 39.3862L62.212 39.6523L71.7284 88.2642L1.02279 114.655L62.1231 39.3862ZM0.844912 115.231L80.0441 130.533L123.713 353.544L0.844912 115.231ZM123.979 353.367L80.3553 130.622L100.144 134.436L160.044 284.131L123.979 353.367ZM124.335 353.367L160.222 284.486L188.904 356.073L124.335 353.367ZM189.126 355.807L160.444 284.131L225.813 158.698L253.295 164.021L189.126 355.807ZM189.482 355.807L253.606 164.021L400.798 192.451L189.482 355.807ZM401.065 192.096L325.735 157.988L325.513 158.255L399.909 191.919L253.784 163.71L275.574 98.5542L400.398 133.328L326.98 129.912C327.069 130.045 327.247 130.179 327.336 130.267L401.11 133.682V133.505V192.096H401.065Z" transform="translate(2.15625 2.06445)" stroke="#111111" stroke-linejoin="round"/>
<path d="M3.2907 1.64109C3.2907 2.52817 2.57919 3.28218 1.64534 3.28218C0.755966 3.28218 -1.08567e-05 2.57252 -1.08567e-05 1.64109C-1.08567e-05 0.709662 0.711497 1.35357e-06 1.64534 1.35357e-06C2.57919 1.35357e-06 3.2907 0.709662 3.2907 1.64109Z" transform="translate(308.725 1)" fill="#6534FF" stroke="#6534FF" stroke-width="2"/>
<path d="M3.29069 1.64109C3.29069 2.52817 2.57921 3.28219 1.64536 3.28219C0.755982 3.28219 -2.17133e-05 2.57252 -2.17133e-05 1.64109C-2.17133e-05 0.754015 0.711513 -5.41429e-06 1.64536 -5.41429e-06C2.57921 -5.41429e-06 3.29069 0.754015 3.29069 1.64109Z" transform="translate(401.709 133.84)" fill="#6534FF" stroke="#6534FF" stroke-width="2"/>
<path d="M3.29069 1.64109C3.29069 2.52816 2.57921 3.28218 1.64536 3.28218C0.755982 3.28218 -2.17133e-05 2.57252 -2.17133e-05 1.64109C-2.17133e-05 0.75401 0.711513 -1.08286e-05 1.64536 -1.08286e-05C2.57921 0.044343 3.29069 0.75401 3.29069 1.64109Z" transform="translate(401.709 192.742)" fill="#6534FF" stroke="#6534FF" stroke-width="2"/>
<path d="M3.29071 1.64109C3.29071 2.52817 2.5792 3.28219 1.64535 3.28219C0.755972 3.28219 -5.42834e-06 2.57252 -5.42834e-06 1.64109C-5.42834e-06 0.754015 0.711503 -5.41429e-06 1.64535 -5.41429e-06C2.5792 -5.41429e-06 3.29071 0.709662 3.29071 1.64109Z" transform="translate(189.637 356.718)" fill="#6534FF" stroke="#6534FF" stroke-width="2"/>
<path d="M3.2907 1.64108C3.2907 2.52816 2.5792 3.28218 1.64536 3.28218C0.755977 3.28218 0 2.57251 0 1.64108C0 0.754004 0.711508 1.08286e-05 1.64536 1.08286e-05C2.53473 0.0443647 3.2907 0.754004 3.2907 1.64108Z" transform="translate(124.579 353.436)" fill="#6534FF" stroke="#6534FF" stroke-width="2"/>
<path d="M3.2907 1.64109C3.2907 2.52817 2.5792 3.28219 1.64535 3.28219C0.755973 3.28219 2.71417e-06 2.57252 2.71417e-06 1.64109C2.71417e-06 0.754015 0.711504 -5.41429e-06 1.64535 -5.41429e-06C2.5792 -5.41429e-06 3.2907 0.754015 3.2907 1.64109Z" transform="translate(1 115.433)" fill="#6534FF" stroke="#6534FF" stroke-width="2"/>
<path d="M3.2907 1.64109C3.2907 2.52817 2.57919 3.28219 1.64535 3.28219C0.755969 3.28219 5.42834e-06 2.57252 5.42834e-06 1.64109C5.42834e-06 0.754015 0.7115 -5.41429e-06 1.64535 -5.41429e-06C2.57919 0.0443484 3.2907 0.754015 3.2907 1.64109Z" transform="translate(62.6338 39.3661)" fill="#6534FF" stroke="#6534FF" stroke-width="2"/>
</svg>
