<svg width="32" height="32" viewBox="0 0 32 32" fill="none" xmlns="http://www.w3.org/2000/svg">
<path fill-rule="evenodd" clip-rule="evenodd" d="M8.3136 2.69666C8.3136 2.07983 8.15204 1.55127 7.82993 1.10876C7.29309 0.388062 6.38297 0.0187988 5.09653 0H0V10.4043H4.75235C5.28818 10.4043 5.78391 10.3588 6.24246 10.2648C6.70105 10.1697 7.09741 9.99646 7.43356 9.74207C7.7326 9.52026 7.98145 9.24707 8.18015 8.92334C8.49423 8.43433 8.65076 7.88098 8.65076 7.26428C8.65076 6.66626 8.51328 6.15747 8.24036 5.73975C7.96439 5.32092 7.55899 5.01501 7.02115 4.82104C7.37537 4.64282 7.64328 4.44482 7.82593 4.229C8.15204 3.84302 8.3136 3.33118 8.3136 2.69666ZM2.10223 4.10229V1.80664H4.39813C4.90286 1.80664 5.3183 1.86108 5.64542 1.96899C6.02274 2.12537 6.21136 2.44519 6.21136 2.93127C6.21136 3.36682 6.06787 3.67175 5.7829 3.84399C5.49591 4.01624 5.12363 4.10229 4.66705 4.10229H2.10223ZM2.10223 5.82385V8.59863H4.66306C5.12061 8.59863 5.47784 8.53735 5.73172 8.41553C6.19431 8.18787 6.42511 7.75623 6.42511 7.1167C6.42511 6.57422 6.20233 6.203 5.75378 6.00012C5.50293 5.88721 5.15073 5.82776 4.69916 5.82385H2.10223ZM10.9055 1.77991H15.4251V0.485107H10.9055V1.77991ZM16.3733 4.00537C16.0201 3.48669 15.5716 3.10657 15.0267 2.86694C14.4828 2.62634 13.8717 2.50562 13.1924 2.50562C12.0494 2.50562 11.1212 2.86304 10.4038 3.57275C9.68832 4.28455 9.33008 5.30713 9.33008 6.64062C9.33008 8.06213 9.72543 9.08972 10.5212 9.72034C11.3129 10.3519 12.2291 10.6667 13.2676 10.6667C14.525 10.6667 15.5033 10.2925 16.2017 9.54517C16.6493 9.07385 16.9021 8.60962 16.9573 8.1543H14.8752C14.7547 8.38 14.6143 8.55615 14.4547 8.68384C14.1647 8.91846 13.7864 9.03625 13.3238 9.03625C12.8843 9.03625 12.51 8.93933 12.1989 8.74622C11.6852 8.4364 11.4163 7.8949 11.3821 7.12366H17.0647C17.0737 6.45947 17.0516 5.94861 16.9965 5.59619C16.9021 4.99341 16.6954 4.46277 16.3733 4.00537ZM11.4323 5.79614C11.5066 5.29517 11.6882 4.89819 11.9762 4.60522C12.2642 4.31213 12.6716 4.16565 13.1934 4.16565C13.675 4.16565 14.0775 4.30322 14.4046 4.57947C14.7277 4.85767 14.9103 5.26147 14.9474 5.79614H11.4323Z" transform="translate(7.46667 10.6666)" fill="#222222"/>
</svg>
