<svg width="32" height="32" viewBox="0 0 32 32" fill="none" xmlns="http://www.w3.org/2000/svg">
<path d="M31.6883 13.6822C31.5993 13.608 30.7978 12.9995 29.0762 12.9995C28.631 12.9995 28.1709 13.044 27.7257 13.1183C27.3992 10.8475 25.5143 9.74925 25.4401 9.68989L24.98 9.42274L24.6832 9.85314C24.3122 10.432 24.0302 11.085 23.8669 11.7528C23.5552 13.044 23.7482 14.261 24.4012 15.2999C23.6146 15.7452 22.3382 15.8491 22.0711 15.8639H0.996311C0.447179 15.8639 0.00193706 16.3092 0.00193706 16.8583C-0.0277457 18.6986 0.283924 20.539 0.922104 22.2754C1.64933 24.1751 2.73276 25.585 4.12785 26.4458C5.70104 27.4105 8.2686 27.9597 11.1627 27.9597C12.4687 27.9597 13.7748 27.8409 15.066 27.6035C16.8618 27.277 18.5834 26.6536 20.1714 25.7483C21.4774 24.9914 22.6499 24.0267 23.6443 22.8987C25.3214 21.0139 26.3157 18.9064 27.043 17.0364C27.1469 17.0364 27.2359 17.0364 27.3398 17.0364C29.1653 17.0364 30.2932 16.3092 30.9166 15.6858C31.3321 15.2999 31.6438 14.825 31.8664 14.2907L32 13.9048L31.6883 13.6822Z" fill="#0091E2"/>
<path d="M2.95538 15.2554H5.77524C5.90881 15.2554 6.02755 15.1515 6.02755 15.0031V12.4801C6.02755 12.3465 5.92366 12.2278 5.77524 12.2278H2.95538C2.8218 12.2278 2.70307 12.3317 2.70307 12.4801V15.0031C2.71791 15.1515 2.8218 15.2554 2.95538 15.2554Z" fill="#0091E2"/>
<path d="M6.84382 15.2554H9.66368C9.79726 15.2554 9.91599 15.1515 9.91599 15.0031V12.4801C9.91599 12.3465 9.8121 12.2278 9.66368 12.2278H6.84382C6.71025 12.2278 6.59151 12.3317 6.59151 12.4801V15.0031C6.60636 15.1515 6.71025 15.2554 6.84382 15.2554Z" fill="#0091E2"/>
<path d="M10.8065 15.2554H13.6263C13.7599 15.2554 13.8786 15.1515 13.8786 15.0031V12.4801C13.8786 12.3465 13.7748 12.2278 13.6263 12.2278H10.8065C10.6729 12.2278 10.5542 12.3317 10.5542 12.4801V15.0031C10.5542 15.1515 10.6581 15.2554 10.8065 15.2554Z" fill="#0091E2"/>
<path d="M14.7098 15.2554H17.5296C17.6632 15.2554 17.7819 15.1515 17.7819 15.0031V12.4801C17.7819 12.3465 17.678 12.2278 17.5296 12.2278H14.7098C14.5762 12.2278 14.4575 12.3317 14.4575 12.4801V15.0031C14.4575 15.1515 14.5762 15.2554 14.7098 15.2554Z" fill="#0091E2"/>
<path d="M6.84382 11.649H9.66368C9.79726 11.649 9.91599 11.5302 9.91599 11.3967V8.87361C9.91599 8.74004 9.8121 8.62131 9.66368 8.62131H6.84382C6.71025 8.62131 6.59151 8.7252 6.59151 8.87361V11.3967C6.60636 11.5302 6.71025 11.649 6.84382 11.649Z" fill="#0091E2"/>
<path d="M10.8065 11.649H13.6263C13.7599 11.649 13.8786 11.5302 13.8786 11.3967V8.87361C13.8786 8.74004 13.7748 8.62131 13.6263 8.62131H10.8065C10.6729 8.62131 10.5542 8.7252 10.5542 8.87361V11.3967C10.5542 11.5302 10.6581 11.649 10.8065 11.649Z" fill="#0091E2"/>
<path d="M14.7098 11.649H17.5296C17.6632 11.649 17.7819 11.5302 17.7819 11.3967V8.87361C17.7819 8.74004 17.6632 8.62131 17.5296 8.62131H14.7098C14.5762 8.62131 14.4575 8.7252 14.4575 8.87361V11.3967C14.4575 11.5302 14.5762 11.649 14.7098 11.649Z" fill="#0091E2"/>
<path d="M14.7098 8.02765H17.5296C17.6632 8.02765 17.7819 7.92376 17.7819 7.77534V5.25231C17.7819 5.11873 17.6632 5 17.5296 5H14.7098C14.5762 5 14.4575 5.10389 14.4575 5.25231V7.77534C14.4575 7.90892 14.5762 8.02765 14.7098 8.02765Z" fill="#0091E2"/>
<path d="M18.6427 15.2554H21.4626C21.5962 15.2554 21.7149 15.1515 21.7149 15.0031V12.4801C21.7149 12.3465 21.611 12.2278 21.4626 12.2278H18.6427C18.5092 12.2278 18.3904 12.3317 18.3904 12.4801V15.0031C18.4053 15.1515 18.5092 15.2554 18.6427 15.2554Z" fill="#0091E2"/>
</svg>
