<svg width="32" height="32" viewBox="0 0 32 32" fill="none" xmlns="http://www.w3.org/2000/svg">
<g id="logos/figma">
<g id="figma">
<path id="path0 fill" d="M11.25 32C14.424 32 17 29.6107 17 26.6667V21.3333H11.25C8.076 21.3333 5.5 23.7227 5.5 26.6667C5.5 29.6107 8.076 32 11.25 32Z" fill="#0ACF83"/>
<path id="path1 fill" d="M5.5 16C5.5 13.056 8.076 10.6667 11.25 10.6667H17V21.3333H11.25C8.076 21.3333 5.5 18.944 5.5 16Z" fill="#A259FF"/>
<path id="path1 fill 1" d="M5.5 5.33333C5.5 2.38933 8.076 0 11.25 0H17V10.6667H11.25C8.076 10.6667 5.5 8.27733 5.5 5.33333Z" fill="#F24E1E"/>
<path id="path2 fill" d="M17 0H22.75C25.924 0 28.5 2.38933 28.5 5.33333C28.5 8.27733 25.924 10.6667 22.75 10.6667H17V0Z" fill="#FF7262"/>
<path id="path3 fill" d="M28.5 16C28.5 18.944 25.924 21.3333 22.75 21.3333C19.576 21.3333 17 18.944 17 16C17 13.056 19.576 10.6667 22.75 10.6667C25.924 10.6667 28.5 13.056 28.5 16Z" fill="#1ABCFE"/>
</g>
</g>
</svg>
