<svg width="32" height="32" viewBox="0 0 32 32" fill="none" xmlns="http://www.w3.org/2000/svg">
<g id="logos/graphql">
<g id="graphql">
<g id="edges">
<path id="Vector" d="M3.39406 23.7108L4.549 24.389L17.4154 1.72262L16.2605 1.04438L3.39406 23.7108Z" fill="#E535AB"/>
<path id="Vector_2" d="M28.8624 21.8999H3.12958V23.2564H28.8624V21.8999Z" fill="#E535AB"/>
<path id="Vector_3" d="M3.63876 22.662L16.51 30.2207L17.1768 29.046L4.30558 21.4872L3.63876 22.662Z" fill="#E535AB"/>
<path id="Vector_4" d="M14.82 2.96185L27.6912 10.5206L28.358 9.34587L15.4868 1.78713L14.82 2.96185Z" fill="#E535AB"/>
<path id="Vector_5" d="M3.64235 9.34082L4.30917 10.5155L17.1804 2.95681L16.5136 1.78209L3.64235 9.34082Z" fill="#E535AB"/>
<path id="Vector_6" d="M14.5875 1.72278L27.4539 24.3892L28.6088 23.7109L15.7424 1.04454L14.5875 1.72278Z" fill="#E535AB"/>
<path id="Vector_7" d="M5.48354 8.44132H4.1499V23.5588H5.48354V8.44132Z" fill="#E535AB"/>
<path id="Vector_8" d="M27.8501 8.44132H26.5164V23.5588H27.8501V8.44132Z" fill="#E535AB"/>
<path id="Vector_9" d="M15.7005 28.6204L16.2829 29.6465L27.4774 23.0724L26.895 22.0463L15.7005 28.6204Z" fill="#E535AB"/>
</g>
<g id="nodes">
<path id="Vector_10" d="M29.6176 23.9999C28.8463 25.3646 27.1271 25.8304 25.7854 25.0459C24.4437 24.2614 23.9858 22.5127 24.757 21.148C25.5283 19.7834 27.2476 19.3176 28.5893 20.1021C29.939 20.8947 30.3969 22.6353 29.6176 23.9999Z" fill="#E535AB"/>
<path id="Vector_11" d="M7.23494 10.8519C6.46368 12.2166 4.74441 12.6823 3.40274 11.8979C2.06106 11.1134 1.60313 9.36467 2.37439 8.00001C3.14565 6.63535 4.86492 6.16957 6.20659 6.95404C7.54826 7.74669 8.0062 9.48724 7.23494 10.8519Z" fill="#E535AB"/>
<path id="Vector_12" d="M2.38241 23.9999C1.61115 22.6353 2.06909 20.8947 3.41076 20.1021C4.75244 19.3176 6.46367 19.7834 7.24297 21.148C8.01423 22.5127 7.55629 24.2532 6.21462 25.0459C4.86491 25.8304 3.15368 25.3646 2.38241 23.9999Z" fill="#E535AB"/>
<path id="Vector_13" d="M24.765 10.8519C23.9938 9.48724 24.4517 7.74669 25.7934 6.95404C27.1351 6.16957 28.8463 6.63535 29.6256 8.00001C30.3969 9.36467 29.9389 11.1052 28.5972 11.8979C27.2556 12.6823 25.5363 12.2166 24.765 10.8519Z" fill="#E535AB"/>
<path id="Vector_14" d="M16 32C14.4494 32 13.1961 30.7252 13.1961 29.1481C13.1961 27.571 14.4494 26.2962 16 26.2962C17.5505 26.2962 18.8038 27.571 18.8038 29.1481C18.8038 30.7171 17.5505 32 16 32Z" fill="#E535AB"/>
<path id="Vector_15" d="M16 5.70378C14.4494 5.70378 13.1961 4.42901 13.1961 2.85189C13.1961 1.27477 14.4494 0 16 0C17.5505 0 18.8038 1.27477 18.8038 2.85189C18.8038 4.42901 17.5505 5.70378 16 5.70378Z" fill="#E535AB"/>
</g>
</g>
</g>
</svg>
