<svg width="32" height="32" viewBox="0 0 32 32" fill="none" xmlns="http://www.w3.org/2000/svg">
<path d="M23.166 11.1048L23.1543 11.0998C23.1476 11.0973 23.1409 11.0948 23.1351 11.089C23.1255 11.0787 23.1184 11.0663 23.1144 11.0529C23.1103 11.0394 23.1094 11.0252 23.1117 11.0114L23.7569 7.06719L26.7822 10.0933L23.6358 11.432C23.6271 11.4355 23.6177 11.4372 23.6083 11.437H23.5958C23.5916 11.4345 23.5874 11.4312 23.5791 11.4228C23.462 11.2924 23.322 11.1847 23.166 11.1048V11.1048ZM27.5541 10.8645L30.7889 14.0993C31.4608 14.7719 31.7971 15.1074 31.9198 15.4963C31.9381 15.5539 31.9532 15.6115 31.9648 15.6708L24.2342 12.3967C24.2301 12.395 24.2259 12.3934 24.2217 12.3917C24.1908 12.3792 24.1549 12.365 24.1549 12.3333C24.1549 12.3016 24.1917 12.2866 24.2225 12.2741L24.2326 12.2699L27.5541 10.8645V10.8645ZM31.833 16.709C31.6661 17.0228 31.3406 17.3482 30.7898 17.8999L27.1427 21.5461L22.4257 20.5638L22.4007 20.5588C22.3589 20.5522 22.3147 20.5446 22.3147 20.5071C22.2968 20.3125 22.239 20.1237 22.145 19.9524C22.0509 19.7811 21.9226 19.631 21.7681 19.5115C21.7489 19.4923 21.7539 19.4622 21.7597 19.4347C21.7597 19.4305 21.7597 19.4263 21.7614 19.423L22.6485 13.9766L22.6519 13.9582C22.6569 13.9165 22.6644 13.8681 22.702 13.8681C22.8921 13.8444 23.0756 13.7832 23.2418 13.6879C23.408 13.5926 23.5536 13.4652 23.6701 13.3131C23.6776 13.3048 23.6826 13.2956 23.6926 13.2906C23.7193 13.2781 23.751 13.2906 23.7785 13.3023L31.8321 16.709H31.833ZM26.304 22.3849L20.3067 28.3821L21.3333 22.0727L21.3349 22.0644C21.3358 22.0561 21.3374 22.0477 21.3399 22.0402C21.3483 22.0202 21.37 22.0118 21.3908 22.0035L21.4009 21.9993C21.6256 21.9034 21.8244 21.7555 21.9809 21.5678C22.0009 21.5445 22.0251 21.5219 22.056 21.5178C22.064 21.5164 22.0722 21.5164 22.0802 21.5178L26.3031 22.3857L26.304 22.3849ZM19.0374 29.6515L18.3614 30.3275L10.8878 19.5265C10.8851 19.5225 10.8823 19.5186 10.8794 19.5148C10.8678 19.4989 10.8552 19.4831 10.8577 19.4647C10.8586 19.4514 10.8669 19.4397 10.8761 19.4297L10.8845 19.4188C10.907 19.3854 10.9262 19.3521 10.947 19.3162L10.9637 19.287L10.9662 19.2844C10.9779 19.2644 10.9888 19.2452 11.0088 19.2344C11.0263 19.226 11.0505 19.2294 11.0697 19.2335L19.3495 20.9411C19.3726 20.9447 19.3945 20.9542 19.4129 20.9686C19.4238 20.9795 19.4263 20.9911 19.4288 21.0045C19.4865 21.223 19.594 21.4252 19.7428 21.5953C19.8917 21.7654 20.0778 21.8988 20.2867 21.9851C20.3101 21.9968 20.3001 22.0227 20.2892 22.0502C20.2838 22.0623 20.2796 22.0749 20.2767 22.0878C20.1724 22.722 19.2777 28.1785 19.0374 29.6515ZM17.6253 31.0627C17.127 31.556 16.8333 31.8172 16.5011 31.9223C16.1736 32.0259 15.8221 32.0259 15.4946 31.9223C15.1057 31.7988 14.7694 31.4633 14.0975 30.7907L6.59226 23.2854L8.55267 20.245C8.56185 20.23 8.57103 20.2167 8.58605 20.2058C8.60691 20.1908 8.63696 20.1975 8.66199 20.2058C9.11196 20.3416 9.59508 20.3171 10.029 20.1365C10.0516 20.1282 10.0741 20.1224 10.0916 20.1382C10.1004 20.1462 10.1082 20.1552 10.115 20.1649L17.6253 31.0636V31.0627ZM5.86869 22.5618L4.14698 20.8401L7.54701 19.3896C7.5557 19.3858 7.56507 19.3838 7.57455 19.3838C7.60293 19.3838 7.61962 19.4121 7.63464 19.438C7.66881 19.4906 7.705 19.5418 7.74313 19.5916L7.75398 19.6049C7.764 19.6191 7.75732 19.6333 7.74731 19.6467L5.86953 22.5618H5.86869ZM3.38501 20.0781L1.20679 17.8999C0.836238 17.5294 0.567507 17.2606 0.380564 17.0294L7.0037 18.4031C7.01202 18.4047 7.02037 18.4061 7.02874 18.4073C7.06964 18.414 7.1147 18.4215 7.1147 18.4599C7.1147 18.5016 7.06546 18.5208 7.02373 18.5367L7.00454 18.545L3.38501 20.0781ZM0 15.9095C0.00754798 15.7691 0.0327847 15.6303 0.0751113 15.4963C0.198628 15.1074 0.534124 14.7719 1.20679 14.0993L3.99425 11.3118C5.27768 13.1745 6.56458 15.0347 7.85497 16.8926C7.8775 16.9226 7.90254 16.956 7.87666 16.981C7.75482 17.1154 7.63297 17.2623 7.54701 17.4217C7.53768 17.4422 7.52333 17.46 7.50528 17.4734C7.49443 17.4801 7.48275 17.4776 7.47023 17.4751H7.46856L0 15.9086V15.9095ZM4.74035 10.5657L8.4884 6.81765C8.84059 6.97205 10.1225 7.51368 11.2692 7.99773C12.1371 8.36494 12.9283 8.69877 13.177 8.80727C13.2021 8.81728 13.2246 8.8273 13.2354 8.85233C13.2421 8.86735 13.2388 8.88655 13.2354 8.90241C13.1761 9.17295 13.1849 9.454 13.2611 9.72029C13.3373 9.98659 13.4785 10.2298 13.6719 10.428C13.697 10.453 13.6719 10.4889 13.6502 10.5198L13.6385 10.5373L9.83289 16.4319C9.82288 16.4486 9.8137 16.4628 9.79701 16.4736C9.77698 16.4861 9.7486 16.4803 9.72524 16.4745C9.57722 16.4357 9.42506 16.4149 9.27206 16.4127C9.13519 16.4127 8.98664 16.4377 8.83642 16.4653H8.83558C8.81889 16.4678 8.80387 16.4711 8.79052 16.4611C8.77577 16.449 8.76309 16.4347 8.75296 16.4185L4.74035 10.5657V10.5657ZM9.24536 6.0607L14.0975 1.20851C14.7694 0.536685 15.1057 0.200353 15.4946 0.0776714C15.8221 -0.0258905 16.1736 -0.0258905 16.5011 0.0776714C16.89 0.200353 17.2263 0.536685 17.8982 1.20851L18.9497 2.26007L15.4988 7.60465C15.4902 7.62021 15.4786 7.63385 15.4646 7.64471C15.4437 7.6589 15.4145 7.65306 15.3895 7.64471C15.1174 7.56214 14.8293 7.54711 14.5501 7.60091C14.2709 7.65472 14.009 7.77574 13.7871 7.9535C13.7646 7.97687 13.7312 7.96352 13.7028 7.951C13.2521 7.75487 9.74693 6.27351 9.24536 6.0607V6.0607ZM19.6825 2.99282L22.8689 6.17921L22.1011 10.9346V10.9471C22.1004 10.9579 22.0981 10.9686 22.0944 10.9788C22.086 10.9955 22.0693 10.9988 22.0527 11.0039C21.8885 11.0536 21.7339 11.1306 21.5953 11.2317C21.5894 11.2359 21.5838 11.2407 21.5786 11.2459C21.5694 11.2559 21.5603 11.2651 21.5452 11.2667C21.533 11.2671 21.5208 11.2651 21.5094 11.2609L16.6538 9.19784L16.6446 9.19367C16.6138 9.18115 16.5771 9.16613 16.5771 9.13442C16.5485 8.86384 16.4601 8.60299 16.3183 8.37079C16.295 8.3324 16.2691 8.29234 16.2891 8.25311L19.6825 2.99282V2.99282ZM16.401 10.1751L20.9527 12.103C20.9777 12.1147 21.0053 12.1255 21.0161 12.1514C21.0205 12.1669 21.0205 12.1834 21.0161 12.199C21.0028 12.2657 20.9911 12.3417 20.9911 12.4184V12.5461C20.9911 12.5779 20.9585 12.5912 20.9285 12.6037L20.9193 12.6071C20.1982 12.915 10.796 16.9243 10.7818 16.9243C10.7676 16.9243 10.7526 16.9243 10.7384 16.9101C10.7134 16.8851 10.7384 16.85 10.7609 16.8183C10.7649 16.8128 10.7688 16.8072 10.7726 16.8016L14.5132 11.0097L14.5198 10.9997C14.5415 10.9646 14.5666 10.9254 14.6066 10.9254L14.6442 10.9312C14.7293 10.9429 14.8044 10.9538 14.8804 10.9538C15.4479 10.9538 15.9737 10.6775 16.2908 10.2052C16.2983 10.1926 16.3079 10.1813 16.3192 10.1718C16.3417 10.1551 16.3751 10.1634 16.401 10.1751V10.1751ZM11.1882 17.8406L21.4367 13.47C21.4367 13.47 21.4518 13.47 21.466 13.4842C21.5219 13.5401 21.5694 13.5777 21.6153 13.6127L21.6379 13.6269C21.6587 13.6386 21.6796 13.6519 21.6813 13.6736C21.6813 13.682 21.6813 13.687 21.6796 13.6945L20.8016 19.0875L20.7983 19.1092C20.7925 19.1509 20.7866 19.1985 20.7474 19.1985C20.5133 19.2143 20.2866 19.2869 20.087 19.4101C19.8873 19.5333 19.7207 19.7033 19.6015 19.9054L19.5974 19.912C19.5857 19.9312 19.5748 19.9496 19.5556 19.9596C19.5381 19.968 19.5156 19.9646 19.4972 19.9605L11.3243 18.2746C11.3159 18.273 11.1974 17.8415 11.1882 17.8406V17.8406Z" fill="url(#paint0_radial)"/>
<defs>
<radialGradient id="paint0_radial" cx="0" cy="0" r="1" gradientUnits="userSpaceOnUse" gradientTransform="translate(-1.0732 15.5485) rotate(90) scale(31.9648 36.9046)">
<stop stop-color="#20C6B7"/>
<stop offset="1" stop-color="#4D9ABF"/>
</radialGradient>
</defs>
</svg>
