<svg width="32" height="32" viewBox="0 0 32 32" fill="none" xmlns="http://www.w3.org/2000/svg">
<g id="logos/react">
<g id="react">
<path id="Vector" d="M32 16.2533C32 14.1332 29.3453 12.1241 25.2752 10.8781C26.2144 6.72934 25.797 3.42859 23.9576 2.37182C23.5336 2.12394 23.0379 2.00652 22.4965 2.00652V3.4612C22.7966 3.4612 23.0379 3.51991 23.2401 3.63081C24.1272 4.13962 24.512 6.07702 24.212 8.56889C24.1402 9.18208 24.0228 9.82788 23.8793 10.4867C22.6009 10.1736 21.2051 9.93225 19.7375 9.77569C18.8569 8.56889 17.9437 7.47299 17.0241 6.51408C19.1504 4.53754 21.1464 3.45468 22.5031 3.45468V2C20.7093 2 18.3612 3.27855 15.987 5.49645C13.6127 3.2916 11.2646 2.02609 9.47085 2.02609V3.48077C10.821 3.48077 12.8235 4.55711 14.9499 6.5206C14.0367 7.47951 13.1235 8.56889 12.256 9.77569C10.7819 9.93225 9.38606 10.1736 8.10762 10.4932C7.9576 9.84092 7.84672 9.20817 7.76845 8.60151C7.46188 6.10964 7.8402 4.17224 8.72075 3.6569C8.91643 3.53948 9.17081 3.4873 9.47085 3.4873V2.03262C8.92295 2.03262 8.42723 2.15003 7.99674 2.39792C6.16388 3.45468 5.75296 6.74891 6.69874 10.8846C2.64166 12.1371 0 14.1397 0 16.2533C0 18.3733 2.65471 20.3825 6.72483 21.6284C5.78557 25.7772 6.20302 29.0779 8.0424 30.1347C8.46637 30.3826 8.96209 30.5 9.50999 30.5C11.3037 30.5 13.6519 29.2214 16.0261 27.0035C18.4003 29.2084 20.7485 30.4739 22.5422 30.4739C23.0901 30.4739 23.5858 30.3565 24.0163 30.1086C25.8492 29.0518 26.2601 25.7576 25.3143 21.6219C29.3583 20.3759 32 18.3668 32 16.2533ZM23.5075 11.9023C23.2662 12.7438 22.9662 13.6114 22.627 14.4789C22.3596 13.9571 22.0791 13.4352 21.7725 12.9134C21.4725 12.3915 21.1529 11.8827 20.8333 11.3869C21.7595 11.5239 22.6531 11.6935 23.5075 11.9023ZM20.5202 18.8495C20.0114 19.7301 19.4896 20.5651 18.9482 21.3414C17.9764 21.4262 16.9914 21.4718 16 21.4718C15.0151 21.4718 14.0302 21.4262 13.0648 21.3479C12.5234 20.5716 11.9951 19.7432 11.4863 18.8691C10.9906 18.0145 10.5406 17.1469 10.1296 16.2728C10.534 15.3987 10.9906 14.5246 11.4798 13.6701C11.9886 12.7894 12.5104 11.9545 13.0518 11.1782C14.0236 11.0934 15.0086 11.0477 16 11.0477C16.9849 11.0477 17.9698 11.0934 18.9352 11.1717C19.4766 11.9479 20.0049 12.7764 20.5137 13.6505C21.0094 14.505 21.4594 15.3726 21.8704 16.2467C21.4594 17.1209 21.0094 17.995 20.5202 18.8495ZM22.627 18.0015C22.9792 18.8756 23.2793 19.7497 23.5271 20.5977C22.6726 20.8065 21.7725 20.9826 20.8398 21.1196C21.1594 20.6173 21.479 20.102 21.779 19.5736C22.0791 19.0517 22.3596 18.5233 22.627 18.0015ZM16.013 24.9618C15.4064 24.3355 14.7998 23.6376 14.1998 22.8743C14.7868 22.9004 15.3869 22.92 15.9935 22.92C16.6066 22.92 17.2132 22.907 17.8068 22.8743C17.2197 23.6376 16.6131 24.3355 16.013 24.9618ZM11.1602 21.1196C10.234 20.9826 9.3404 20.813 8.48594 20.6043C8.72727 19.7628 9.02731 18.8952 9.36649 18.0276C9.63392 18.5494 9.91439 19.0713 10.221 19.5932C10.5275 20.115 10.8406 20.6238 11.1602 21.1196ZM15.9804 7.54475C16.587 8.17098 17.1936 8.86896 17.7937 9.63218C17.2067 9.60609 16.6066 9.58652 16 9.58652C15.3869 9.58652 14.7803 9.59956 14.1867 9.63218C14.7737 8.86896 15.3804 8.17098 15.9804 7.54475ZM11.1537 11.3869C10.8341 11.8892 10.5145 12.4046 10.2144 12.9329C9.91439 13.4548 9.63392 13.9767 9.36649 14.4985C9.01427 13.6244 8.71423 12.7503 8.46637 11.9023C9.32083 11.7 10.221 11.5239 11.1537 11.3869ZM5.25071 19.554C2.9417 18.569 1.44802 17.2774 1.44802 16.2533C1.44802 15.2291 2.9417 13.931 5.25071 12.9525C5.81166 12.7111 6.42479 12.4959 7.05748 12.2937C7.42927 13.5722 7.91847 14.903 8.52507 16.2663C7.92499 17.6231 7.44232 18.9474 7.07705 20.2194C6.43131 20.0172 5.81818 19.7954 5.25071 19.554ZM8.75989 28.8757C7.87281 28.3669 7.48798 26.4295 7.78802 23.9376C7.85976 23.3244 7.97717 22.6786 8.12067 22.0198C9.39911 22.3329 10.7949 22.5743 12.2625 22.7308C13.1431 23.9376 14.0563 25.0335 14.9759 25.9924C12.8496 27.969 10.8536 29.0518 9.49694 29.0518C9.20342 29.0453 8.95557 28.9866 8.75989 28.8757ZM24.2316 23.905C24.5381 26.3969 24.1598 28.3343 23.2792 28.8496C23.0836 28.967 22.8292 29.0192 22.5291 29.0192C21.179 29.0192 19.1765 27.9429 17.0501 25.9794C17.9633 25.0205 18.8765 23.9311 19.744 22.7243C21.2181 22.5677 22.6139 22.3264 23.8924 22.0068C24.0424 22.6656 24.1598 23.2983 24.2316 23.905ZM26.7428 19.554C26.1818 19.7954 25.5687 20.0106 24.936 20.2129C24.5642 18.9343 24.075 17.6036 23.4684 16.2402C24.0685 14.8834 24.5512 13.5592 24.9164 12.2871C25.5622 12.4894 26.1753 12.7111 26.7493 12.9525C29.0583 13.9375 30.552 15.2291 30.552 16.2533C30.5455 17.2774 29.0518 18.5755 26.7428 19.554Z" fill="#61DAFB"/>
<path id="Vector_2" d="M15.9935 19.2344C17.6398 19.2344 18.9743 17.8998 18.9743 16.2533C18.9743 14.6069 17.6398 13.2722 15.9935 13.2722C14.3472 13.2722 13.0127 14.6069 13.0127 16.2533C13.0127 17.8998 14.3472 19.2344 15.9935 19.2344Z" fill="#61DAFB"/>
</g>
</g>
</svg>
