<svg width="32" height="32" viewBox="0 0 32 32" fill="none" xmlns="http://www.w3.org/2000/svg">
<g id="logos/typescript">
<g id="typescript">
<path id="Vector" d="M0 16V32H16H32V16V0H16H0V16Z" fill="#007ACC"/>
<path id="Vector_2" d="M7.07641 16.1062L7.06625 17.4167H9.14879H11.2313L11.2313 23.3341V29.2516H12.7043H14.1774V23.3341L14.1774 17.4167H16.2599H18.3424V16.1316C18.3424 15.4205 18.3272 14.8262 18.3069 14.811C18.2916 14.7906 15.757 14.7805 12.684 14.7856L7.09164 14.8008L7.07641 16.1062Z" fill="white"/>
<path id="Vector_3" d="M25.8208 14.7635C26.6335 14.9667 27.2532 15.3273 27.8221 15.9166C28.1167 16.2315 28.5535 16.8054 28.5891 16.9426C28.5992 16.9832 27.2075 17.9178 26.3643 18.441C26.3338 18.4613 26.2119 18.3293 26.0748 18.1261C25.6634 17.5267 25.2316 17.2677 24.5713 17.2219C23.6011 17.1559 22.9764 17.6639 22.9815 18.5121C22.9815 18.761 23.017 18.9083 23.1186 19.1115C23.3319 19.5534 23.7281 19.8175 24.9726 20.3559C27.2634 21.3413 28.2437 21.9915 28.8532 22.9159C29.5338 23.947 29.6862 25.5927 29.224 26.8169C28.7161 28.1477 27.4564 29.0518 25.6837 29.3515C25.1351 29.448 23.8348 29.4327 23.2456 29.3261C21.9605 29.0975 20.7415 28.4626 19.9897 27.6296C19.6951 27.3045 19.1211 26.4562 19.1567 26.3953C19.1719 26.375 19.304 26.2937 19.4513 26.2073C19.5935 26.1261 20.1319 25.8162 20.6399 25.5216L21.5592 24.9883L21.7523 25.2727C22.0215 25.6842 22.6107 26.248 22.9662 26.4359C23.9872 26.9743 25.3891 26.8981 26.0799 26.2785C26.3745 26.0093 26.4964 25.7299 26.4964 25.3185C26.4964 24.9477 26.4507 24.7851 26.2577 24.5058C26.0088 24.1502 25.5008 23.8505 24.0583 23.2258C22.4075 22.5146 21.6964 22.0727 21.0462 21.3718C20.6704 20.9654 20.3148 20.3153 20.1675 19.7718C20.0456 19.3197 20.0151 18.187 20.1116 17.7299C20.4519 16.135 21.6557 15.0226 23.3929 14.6924C23.9567 14.5858 25.2672 14.6264 25.8208 14.7635Z" fill="white"/>
</g>
</g>
</svg>
