<svg width="32" height="32" viewBox="0 0 32 32" fill="none" xmlns="http://www.w3.org/2000/svg">
<g id="logos/webpack">
<g id="webpack">
<path id="Vector" d="M15.75 32L30 24.0009V7.99909L15.75 0L1.5 7.99909V24.0009L15.75 32Z" fill="white"/>
<path id="Vector_2" d="M27.4556 8.55086L16.2213 2.24368V7.15495L23.2211 10.9773L27.4556 8.55086ZM28.2252 9.24151V22.4296L24.1159 20.0726V11.5948L28.2252 9.24151ZM4.00019 8.55086L15.2345 2.24368V7.15495L8.23101 10.9773L4.00019 8.55086ZM3.23062 9.24151V22.4296L7.33992 20.0726V11.5948L3.23062 9.24151ZM3.71299 23.2847L15.2345 29.7526V25.0058L7.85175 20.9752L7.79283 20.9423L3.71299 23.2847ZM27.7428 23.2847L16.2213 29.7526V25.0058L23.6041 20.9789L23.663 20.946L27.7428 23.2847Z" fill="#8ED6FB"/>
<path id="Vector_3" d="M15.2345 8.27318L8.32675 12.0443V19.5099L15.2345 15.5524V8.27318ZM16.2213 8.27318L23.1291 12.0407V19.5099L16.2213 15.5524V8.27318ZM8.79439 20.3723L15.7279 24.1544L22.6614 20.3723L15.7279 16.4002L8.79439 20.3723Z" fill="#1C78C0"/>
</g>
</g>
</svg>
