<svg width="504" height="504" viewBox="0 0 504 504" fill="none" xmlns="http://www.w3.org/2000/svg">
<g id="pattern" clip-path="url(#clip0)">
<g id="dots-parts">
<path id="Vector" d="M11.5 77C11.5 71.8 7.2 67.5 2 67.5C1.3 67.5 0.6 67.6 0 67.7V86.3C0.6 86.4 1.3 86.5 2 86.5C7.2 86.5 11.5 82.2 11.5 77Z" fill="black"/>
<path id="Vector_2" d="M496.5 77C496.5 81.6 499.7 85.4 504 86.3V67.7C499.7 68.6 496.5 72.4 496.5 77Z" fill="black"/>
<path id="Vector_3" d="M11.8 308.1C11.8 302.9 7.5 298.6 2.3 298.6C1.5 298.6 0.7 298.7 0 298.9V317.3C0.7 317.5 1.5 317.6 2.3 317.6C7.5 317.6 11.8 313.4 11.8 308.1Z" fill="black"/>
<path id="Vector_4" d="M496.8 308.1C496.8 312.6 499.9 316.3 504 317.3V298.9C499.9 299.9 496.8 303.7 496.8 308.1Z" fill="black"/>
<path id="Vector_5" d="M242 494.5C236.8 494.5 232.5 498.8 232.5 504H251.5C251.5 498.8 247.2 494.5 242 494.5Z" fill="black"/>
<path id="Vector_6" d="M242 9.5C247.2 9.5 251.5 5.2 251.5 0H232.5C232.5 5.2 236.8 9.5 242 9.5Z" fill="black"/>
<path id="Vector_7" d="M90 493.5C84.8 493.5 80.5 497.8 80.5 503C80.5 503.3 80.5 503.7 80.6 504H99.5C99.5 503.7 99.6 503.3 99.6 503C99.5 497.8 95.2 493.5 90 493.5Z" fill="black"/>
<path id="Vector_8" d="M90 8.5C94.9 8.5 98.9 4.8 99.4 0H80.6C81.1 4.8 85.1 8.5 90 8.5Z" fill="black"/>
</g>
<g id="chevrons-parts">
<path id="Vector_9" d="M148.5 18.4V35.9L176.2 19.9L204 3.9L197.2 0H166.9L173.7 3.9L148.5 18.4Z" fill="black"/>
<path id="Vector_10" d="M148.5 475.9V493.4L166.9 504H197.2L176.2 491.9L148.5 475.9Z" fill="black"/>
<path id="Vector_11" d="M287.6 13.3V25.4L306.8 14.3L326 3.2L320.5 0H299.4L305 3.2L287.6 13.3Z" fill="black"/>
<path id="Vector_12" d="M306.8 487.1L287.6 476V488.1L305 498.2L294.9 504H316L326 498.2L306.8 487.1Z" fill="black"/>
<path id="Vector_13" d="M377.5 13.9V29.5L402.2 15.2L427 0.9L425.4 0H398.4L399.9 0.9L377.5 13.9Z" fill="black"/>
<path id="Vector_14" d="M377.5 476.3V491.9L398.4 504H425.4L402.2 490.6L377.5 476.3Z" fill="black"/>
<path id="Vector_15" d="M54.4 363.9L22.5 345.5L0 332.5V352.7L19.5 363.9L0 375.1V395.3L22.5 382.4L54.4 363.9Z" fill="black"/>
<path id="Vector_16" d="M494.5 347.2L504 352.7V332.5L494.5 327V347.2Z" fill="black"/>
<path id="Vector_17" d="M494.5 380.6V400.8L504 395.3V375.1L494.5 380.6Z" fill="black"/>
<path id="Vector_18" d="M0 468.8V497L24.4 482.9L0 468.8Z" fill="black"/>
<path id="Vector_19" d="M496.4 464.5L464.5 446V466.2L493.4 482.9L464.5 499.6V504H491.9L496.4 501.4L504 497V468.8L496.4 464.5Z" fill="black"/>
<path id="Vector_20" d="M491.9 0H464.5V15.8L491.9 0Z" fill="black"/>
<path id="Vector_21" d="M52.4 21.9L20.4 3.5L14.4 0H0V11.8L17.4 21.9L0 32V52.2L20.4 40.4L52.4 21.9Z" fill="black"/>
<path id="Vector_22" d="M35.4 142.9L8.7 127.5L0 122.5V139.3L6.2 142.9L0 146.5V163.3L8.7 158.3L35.4 142.9Z" fill="black"/>
<path id="Vector_23" d="M486 156.9V173.7L504 163.3V146.5L486 156.9Z" fill="black"/>
<path id="Vector_24" d="M486 128.9L504 139.3V122.5L486 112.1V128.9Z" fill="black"/>
<path id="Vector_25" d="M0 235.4V262.4L23.4 248.9L0 235.4Z" fill="black"/>
<path id="Vector_26" d="M463.5 212V232.2L492.5 248.9L463.5 265.6V285.8L495.5 267.4L504 262.4V235.4L495.5 230.5L463.5 212Z" fill="black"/>
<path id="Vector_27" d="M488.7 181.1V188.7L499.6 195.1L488.7 201.4V209L500.8 202L504 200.2V190L500.8 188.1L488.7 181.1Z" fill="black"/>
<path id="Vector_28" d="M0 190V200.2L8.8 195.1L0 190Z" fill="black"/>
</g>
<g id="chevrons">
<path id="Vector_29" d="M106.5 32.5L74.5 14V34.2L103.5 50.9L74.5 67.6V87.8L106.5 69.4L138.4 50.9L106.5 32.5Z" fill="black"/>
<path id="Vector_30" d="M189.5 96.5L157.5 78V98.2L186.5 114.9L157.5 131.6V151.8L189.5 133.4L221.4 114.9L189.5 96.5Z" fill="black"/>
<path id="Vector_31" d="M254.5 52.5L222.5 34V54.2L251.5 70.9L222.5 87.6V107.8L254.5 89.4L286.4 70.9L254.5 52.5Z" fill="black"/>
<path id="Vector_32" d="M384.5 67.5L352.5 49V69.2L381.5 85.9L352.5 102.6V122.8L384.5 104.4L416.4 85.9L384.5 67.5Z" fill="black"/>
<path id="Vector_33" d="M388.5 156.5L356.5 138V158.2L385.5 174.9L356.5 191.6V211.8L388.5 193.4L420.4 174.9L388.5 156.5Z" fill="black"/>
<path id="Vector_34" d="M285.5 136.5L253.5 118V138.2L282.5 154.9L253.5 171.6V191.8L285.5 173.4L317.4 154.9L285.5 136.5Z" fill="black"/>
<path id="Vector_35" d="M185.7 205.2L164 192.7V206.4L183.7 217.7L164 229.1V242.8L185.7 230.3L207.4 217.7L185.7 205.2Z" fill="black"/>
<path id="Vector_36" d="M121.5 173.5L89.5 155V175.2L118.5 191.9L89.5 208.6V228.8L121.5 210.4L153.4 191.9L121.5 173.5Z" fill="black"/>
<path id="Vector_37" d="M85.5 268.5L53.5 250V270.2L82.5 286.9L53.5 303.6V323.8L85.5 305.4L117.4 286.9L85.5 268.5Z" fill="black"/>
<path id="Vector_38" d="M176.5 326.5L144.5 308V328.2L173.5 344.9L144.5 361.6V381.8L176.5 363.4L208.4 344.9L176.5 326.5Z" fill="black"/>
<path id="Vector_39" d="M248.5 389.5L216.5 371V391.2L245.5 407.9L216.5 424.6V444.8L248.5 426.4L280.4 407.9L248.5 389.5Z" fill="black"/>
<path id="Vector_40" d="M352.5 438L329.9 425V439.2L350.4 451L329.9 462.8V477L352.5 464L375 451L352.5 438Z" fill="black"/>
<path id="Vector_41" d="M451.2 376.2L434.5 366.6V377.1L449.7 385.9L434.5 394.7V405.2L451.2 395.6L468 385.9L451.2 376.2Z" fill="black"/>
<path id="Vector_42" d="M281.5 263.5L249.5 245V265.2L278.5 281.9L249.5 298.6V318.8L281.5 300.4L313.4 281.9L281.5 263.5Z" fill="black"/>
<path id="Vector_43" d="M390.5 303.5L358.5 285V305.2L387.5 321.9L358.5 338.6V358.8L390.5 340.4L422.4 321.9L390.5 303.5Z" fill="black"/>
<path id="Vector_44" d="M449.2 294L435.5 286V294.7L448 301.9L435.5 309.1V317.8L449.2 309.8L463 301.9L449.2 294Z" fill="black"/>
<path id="Vector_45" d="M462.8 73.5L446.5 64.1V74.4L461.2 82.9L446.5 91.4V101.7L462.8 92.3L479 82.9L462.8 73.5Z" fill="black"/>
<path id="Vector_46" d="M452.2 140.7L434.5 130.4V141.6L450.6 150.9L434.5 160.2V171.4L452.2 161.1L470 150.9L452.2 140.7Z" fill="black"/>
<path id="Vector_47" d="M405.4 239.2L382.5 226V240.4L403.2 252.4L382.5 264.4V278.8L405.4 265.6L428.2 252.4L405.4 239.2Z" fill="black"/>
<path id="Vector_48" d="M84.7 112.5L58 97.1V113.9L82.2 127.9L58 141.9V158.7L84.7 143.3L111.4 127.9L84.7 112.5Z" fill="black"/>
<path id="Vector_49" d="M465.2 33.3L455.5 27.6V33.8L464.3 38.9L455.5 44V50.2L465.2 44.5L475 38.9L465.2 33.3Z" fill="black"/>
<path id="Vector_50" d="M206.2 271.7L188.5 261.4V272.6L204.6 281.9L188.5 291.2V302.4L206.2 292.1L224 281.9L206.2 271.7Z" fill="black"/>
<path id="Vector_51" d="M318.7 201.8L300.9 191.5V202.7L317 212L300.9 221.3V232.5L318.7 222.2L336.4 212L318.7 201.8Z" fill="black"/>
<path id="Vector_52" d="M319.7 88.8L301.9 78.5V89.7L318 99L301.9 108.3V119.5L319.7 109.2L337.4 99L319.7 88.8Z" fill="black"/>
<path id="Vector_53" d="M36.2 433.4L18 422.9V434.4L34.5 443.9L18 453.4V464.9L36.2 454.4L54.4 443.9L36.2 433.4Z" fill="black"/>
<path id="Vector_54" d="M282.4 441.6L267.8 433.2V442.4L281 450L267.8 457.6V466.8L282.4 458.4L296.9 450L282.4 441.6Z" fill="black"/>
<path id="Vector_55" d="M192.4 447.6L177.8 439.2V448.4L191 456L177.8 463.6V472.8L192.4 464.4L206.9 456L192.4 447.6Z" fill="black"/>
<path id="Vector_56" d="M302.8 341.2L282.5 329.5V342.3L300.9 352.9L282.5 363.5V376.3L302.8 364.6L323 352.9L302.8 341.2Z" fill="black"/>
<path id="Vector_57" d="M406.8 417.2L386.5 405.5V418.3L404.9 428.9L386.5 439.5V452.3L406.8 440.6L427 428.9L406.8 417.2Z" fill="black"/>
<path id="Vector_58" d="M433.3 466.8L419.1 458.5V467.5L432 475L419.1 482.5V491.5L433.3 483.2L447.6 475L433.3 466.8Z" fill="black"/>
<path id="Vector_59" d="M101.5 411.5L69.5 393V413.2L98.5 429.9L69.5 446.6V466.8L101.5 448.4L133.4 429.9L101.5 411.5Z" fill="black"/>
</g>
<g id="dots">
<path id="Vector_60" d="M213.5 185C218.747 185 223 180.747 223 175.5C223 170.253 218.747 166 213.5 166C208.253 166 204 170.253 204 175.5C204 180.747 208.253 185 213.5 185Z" fill="black"/>
<path id="Vector_61" d="M129.5 111C134.747 111 139 106.747 139 101.5C139 96.2533 134.747 92 129.5 92C124.253 92 120 96.2533 120 101.5C120 106.747 124.253 111 129.5 111Z" fill="black"/>
<path id="Vector_62" d="M53.2 58.1C57.2317 58.1 60.5 54.8317 60.5 50.8C60.5 46.7683 57.2317 43.5 53.2 43.5C49.1683 43.5 45.9 46.7683 45.9 50.8C45.9 54.8317 49.1683 58.1 53.2 58.1Z" fill="black"/>
<path id="Vector_63" d="M19 187.3C23.0317 187.3 26.3 184.032 26.3 180C26.3 175.968 23.0317 172.7 19 172.7C14.9683 172.7 11.7 175.968 11.7 180C11.7 184.032 14.9683 187.3 19 187.3Z" fill="black"/>
<path id="Vector_64" d="M31 290.3C35.0317 290.3 38.3 287.032 38.3 283C38.3 278.968 35.0317 275.7 31 275.7C26.9683 275.7 23.7 278.968 23.7 283C23.7 287.032 26.9683 290.3 31 290.3Z" fill="black"/>
<path id="Vector_65" d="M237.5 460.5C241.532 460.5 244.8 457.232 244.8 453.2C244.8 449.168 241.532 445.9 237.5 445.9C233.468 445.9 230.2 449.168 230.2 453.2C230.2 457.232 233.468 460.5 237.5 460.5Z" fill="black"/>
<path id="Vector_66" d="M140 250.8C145.247 250.8 149.5 246.547 149.5 241.3C149.5 236.053 145.247 231.8 140 231.8C134.753 231.8 130.5 236.053 130.5 241.3C130.5 246.547 134.753 250.8 140 250.8Z" fill="black"/>
<path id="Vector_67" d="M50 213C55.2467 213 59.5 208.747 59.5 203.5C59.5 198.253 55.2467 194 50 194C44.7533 194 40.5 198.253 40.5 203.5C40.5 208.747 44.7533 213 50 213Z" fill="black"/>
<path id="Vector_68" d="M185 54.5C190.247 54.5 194.5 50.2467 194.5 45C194.5 39.7533 190.247 35.5 185 35.5C179.753 35.5 175.5 39.7533 175.5 45C175.5 50.2467 179.753 54.5 185 54.5Z" fill="black"/>
<path id="Vector_69" d="M316 48.9C321.247 48.9 325.5 44.6467 325.5 39.4C325.5 34.1533 321.247 29.9 316 29.9C310.753 29.9 306.5 34.1533 306.5 39.4C306.5 44.6467 310.753 48.9 316 48.9Z" fill="black"/>
<path id="Vector_70" d="M327 190.8C332.247 190.8 336.5 186.547 336.5 181.3C336.5 176.053 332.247 171.8 327 171.8C321.753 171.8 317.5 176.053 317.5 181.3C317.5 186.547 321.753 190.8 327 190.8Z" fill="black"/>
<path id="Vector_71" d="M427.7 233.3C432.947 233.3 437.2 229.047 437.2 223.8C437.2 218.553 432.947 214.3 427.7 214.3C422.453 214.3 418.2 218.553 418.2 223.8C418.2 229.047 422.453 233.3 427.7 233.3Z" fill="black"/>
<path id="Vector_72" d="M336.8 261.4C342.047 261.4 346.3 257.147 346.3 251.9C346.3 246.653 342.047 242.4 336.8 242.4C331.553 242.4 327.3 246.653 327.3 251.9C327.3 257.147 331.553 261.4 336.8 261.4Z" fill="black"/>
<path id="Vector_73" d="M224.1 252.5C229.347 252.5 233.6 248.247 233.6 243C233.6 237.753 229.347 233.5 224.1 233.5C218.853 233.5 214.6 237.753 214.6 243C214.6 248.247 218.853 252.5 224.1 252.5Z" fill="black"/>
<path id="Vector_74" d="M117.2 329.1C122.447 329.1 126.7 324.847 126.7 319.6C126.7 314.353 122.447 310.1 117.2 310.1C111.953 310.1 107.7 314.353 107.7 319.6C107.7 324.847 111.953 329.1 117.2 329.1Z" fill="black"/>
<path id="Vector_75" d="M343.5 409.5C348.747 409.5 353 405.247 353 400C353 394.753 348.747 390.5 343.5 390.5C338.253 390.5 334 394.753 334 400C334 405.247 338.253 409.5 343.5 409.5Z" fill="black"/>
<path id="Vector_76" d="M249 361.5C254.247 361.5 258.5 357.247 258.5 352C258.5 346.753 254.247 342.5 249 342.5C243.753 342.5 239.5 346.753 239.5 352C239.5 357.247 243.753 361.5 249 361.5Z" fill="black"/>
<path id="Vector_77" d="M317 325C322.247 325 326.5 320.747 326.5 315.5C326.5 310.253 322.247 306 317 306C311.753 306 307.5 310.253 307.5 315.5C307.5 320.747 311.753 325 317 325Z" fill="black"/>
<path id="Vector_78" d="M43.2 408.9C48.4467 408.9 52.7 404.647 52.7 399.4C52.7 394.153 48.4467 389.9 43.2 389.9C37.9533 389.9 33.7 394.153 33.7 399.4C33.7 404.647 37.9533 408.9 43.2 408.9Z" fill="black"/>
<path id="Vector_79" d="M168.8 422.7C174.047 422.7 178.3 418.447 178.3 413.2C178.3 407.953 174.047 403.7 168.8 403.7C163.553 403.7 159.3 407.953 159.3 413.2C159.3 418.447 163.553 422.7 168.8 422.7Z" fill="black"/>
<path id="Vector_80" d="M124.8 492.3C130.047 492.3 134.3 488.047 134.3 482.8C134.3 477.553 130.047 473.3 124.8 473.3C119.553 473.3 115.3 477.553 115.3 482.8C115.3 488.047 119.553 492.3 124.8 492.3Z" fill="black"/>
<path id="Vector_81" d="M51.3 487.3C55.0555 487.3 58.1 484.256 58.1 480.5C58.1 476.744 55.0555 473.7 51.3 473.7C47.5445 473.7 44.5 476.744 44.5 480.5C44.5 484.256 47.5445 487.3 51.3 487.3Z" fill="black"/>
<path id="Vector_82" d="M467.3 119.1C471.608 119.1 475.1 115.608 475.1 111.3C475.1 106.992 471.608 103.5 467.3 103.5C462.992 103.5 459.5 106.992 459.5 111.3C459.5 115.608 462.992 119.1 467.3 119.1Z" fill="black"/>
<path id="Vector_83" d="M470.4 341.8C475.647 341.8 479.9 337.547 479.9 332.3C479.9 327.053 475.647 322.8 470.4 322.8C465.153 322.8 460.9 327.053 460.9 332.3C460.9 337.547 465.153 341.8 470.4 341.8Z" fill="black"/>
<path id="Vector_84" d="M93.1 377.5C98.3467 377.5 102.6 373.247 102.6 368C102.6 362.753 98.3467 358.5 93.1 358.5C87.8533 358.5 83.6 362.753 83.6 368C83.6 373.247 87.8533 377.5 93.1 377.5Z" fill="black"/>
<path id="Vector_85" d="M424 64.5C429.247 64.5 433.5 60.2467 433.5 55C433.5 49.7533 429.247 45.5 424 45.5C418.753 45.5 414.5 49.7533 414.5 55C414.5 60.2467 418.753 64.5 424 64.5Z" fill="black"/>
<path id="Vector_86" d="M389.6 133.4C394.847 133.4 399.1 129.147 399.1 123.9C399.1 118.653 394.847 114.4 389.6 114.4C384.353 114.4 380.1 118.653 380.1 123.9C380.1 129.147 384.353 133.4 389.6 133.4Z" fill="black"/>
<path id="Vector_87" d="M406 381.5C411.247 381.5 415.5 377.247 415.5 372C415.5 366.753 411.247 362.5 406 362.5C400.753 362.5 396.5 366.753 396.5 372C396.5 377.247 400.753 381.5 406 381.5Z" fill="black"/>
<path id="Vector_88" d="M311.5 460.7C315.753 460.7 319.2 457.253 319.2 453C319.2 448.747 315.753 445.3 311.5 445.3C307.247 445.3 303.8 448.747 303.8 453C303.8 457.253 307.247 460.7 311.5 460.7Z" fill="black"/>
<path id="Vector_89" d="M472.5 435.5C477.747 435.5 482 431.247 482 426C482 420.753 477.747 416.5 472.5 416.5C467.253 416.5 463 420.753 463 426C463 431.247 467.253 435.5 472.5 435.5Z" fill="black"/>
</g>
</g>
<defs>
<clipPath id="clip0">
<rect width="504" height="504" fill="white"/>
</clipPath>
</defs>
</svg>
