<svg width="32" height="32" viewBox="0 0 32 32" fill="none" xmlns="http://www.w3.org/2000/svg">
<g id="icons/basic/skype">
<path id="Subtract" fill-rule="evenodd" clip-rule="evenodd" d="M24.2303 16.0885C24.2303 16.6801 24.1661 17.2557 24.0427 17.8118C24.3567 18.4349 24.5333 19.1362 24.5333 19.8792C24.5333 22.4491 22.4201 24.5333 19.8131 24.5333C19.0053 24.5333 18.2467 24.3325 17.5814 23.9803C17.0978 24.0684 16.6001 24.1149 16.0903 24.1149C11.5949 24.1149 7.95034 20.5221 7.95034 16.0885C7.95034 15.5366 8.00753 14.9965 8.11491 14.4762C7.70349 13.7837 7.46667 12.9805 7.46667 12.1218C7.46667 9.54993 9.57994 7.46667 12.1879 7.46667C13.1101 7.46667 13.971 7.72876 14.6985 8.18091C15.1521 8.10376 15.6167 8.06311 16.0903 8.06311C20.5868 8.06311 24.2303 11.657 24.2303 16.0885ZM18.611 21.1611C19.3335 20.8663 19.8894 20.4508 20.2657 19.9246C20.643 19.3973 20.8356 18.7949 20.8356 18.1342C20.8356 17.5812 20.7243 17.1063 20.5045 16.7196C20.2847 16.3358 19.9767 16.0153 19.5873 15.765C19.204 15.5187 18.7364 15.309 18.1936 15.1389C17.6587 14.9697 17.0536 14.8124 16.3944 14.674C15.8736 14.5552 15.4943 14.4633 15.2685 14.4009C15.0477 14.3416 14.827 14.2565 14.6132 14.1506C14.4065 14.0477 14.243 13.9271 14.1286 13.7866C14.0182 13.656 13.965 13.5027 13.965 13.3207C13.965 13.022 14.1306 12.7698 14.4697 12.5511C14.822 12.3226 15.2976 12.2079 15.8796 12.2079C16.5088 12.2079 16.9653 12.3108 17.2393 12.5165C17.5212 12.7281 17.7671 13.028 17.9698 13.4077C18.1454 13.7045 18.3039 13.9122 18.4564 14.0458C18.619 14.1882 18.8558 14.2615 19.1569 14.2615C19.488 14.2615 19.77 14.1458 19.9927 13.9163C20.2145 13.6897 20.3269 13.4286 20.3269 13.1417C20.3269 12.8439 20.2406 12.5363 20.072 12.2267C19.9054 11.92 19.6385 11.6262 19.2803 11.3492C18.9251 11.0752 18.4735 10.8536 17.9367 10.6895C17.4028 10.5253 16.7636 10.4421 16.0371 10.4421C15.127 10.4421 14.3242 10.5668 13.6489 10.8131C12.9636 11.0614 12.4317 11.4274 12.0685 11.8953C11.7012 12.3661 11.5156 12.9132 11.5156 13.5186C11.5156 14.1547 11.6932 14.6957 12.0424 15.1279C12.3866 15.5524 12.8572 15.8916 13.4412 16.136C14.0112 16.3763 14.7286 16.587 15.5745 16.7651C16.1957 16.8937 16.6974 17.0173 17.0677 17.1301C17.4219 17.241 17.7139 17.3992 17.9367 17.6029C18.1474 17.7988 18.2507 18.0481 18.2507 18.3636C18.2507 18.7653 18.0541 19.0936 17.6477 19.3657C17.2332 19.6447 16.6813 19.7871 16.008 19.7871C15.5194 19.7871 15.121 19.7159 14.826 19.5793C14.533 19.4419 14.3032 19.2668 14.1426 19.0571C13.9771 18.8424 13.8205 18.5674 13.676 18.241C13.5466 17.9432 13.386 17.7108 13.1984 17.5535C13.0027 17.3903 12.7609 17.3082 12.4819 17.3082C12.1407 17.3082 11.8548 17.412 11.632 17.6198C11.4072 17.8285 11.2928 18.0837 11.2928 18.3765C11.2928 18.8484 11.4674 19.3361 11.8136 19.8267C12.1558 20.3153 12.6063 20.709 13.1532 20.9999C13.9188 21.4005 14.8992 21.6033 16.0682 21.6033C17.0426 21.6033 17.8975 21.4539 18.611 21.1611Z" fill="#222222"/>
</g>
</svg>
