<svg width="80" height="80" viewBox="0 0 80 80" fill="none" xmlns="http://www.w3.org/2000/svg">
<path d="M0 0H44V44H0V0Z" transform="translate(18 18)" fill="#261300"/>
<path d="M0 0V48H48V0H0ZM2 2.05128H46V45.9487H2V2.05128Z" transform="translate(16 16)" fill="#FF7C00"/>
<path d="M5.03394 16.1197L3.45394 22.0171C3.41394 22.1744 3.35394 22.2137 3.15394 22.2137H0.213939C0.0139388 22.2137 -0.0260612 22.1547 0.0139388 21.9188L5.69394 2.37863C5.79394 2.02479 5.85394 1.71026 5.89394 0.747008C5.89394 0.609402 5.95394 0.550427 6.05394 0.550427H10.2539C10.3939 0.550427 10.4539 0.589743 10.4939 0.747008L16.8539 21.9581C16.8939 22.1154 16.8539 22.2137 16.6939 22.2137H13.3739C13.2139 22.2137 13.1139 22.1744 13.0739 22.0368L11.4139 16.1197H5.03394ZM10.5939 12.935C10.0339 10.753 8.71394 5.99573 8.21394 3.69573H8.17394C7.75394 5.99573 6.69394 9.88804 5.85394 12.935H10.5939ZM19.5939 2.00513C19.5939 0.747009 20.4939 0 21.6339 0C22.8539 0 23.6739 0.805983 23.6739 2.00513C23.6739 3.30256 22.8139 4.01026 21.5939 4.01026C20.4339 4.01026 19.5939 3.30256 19.5939 2.00513ZM19.8339 6.46752C19.8339 6.31026 19.8939 6.23162 20.0739 6.23162H23.2139C23.3739 6.23162 23.4539 6.2906 23.4539 6.46752V21.9778C23.4539 22.135 23.4139 22.2137 23.2139 22.2137H20.1139C19.9139 22.2137 19.8539 22.1154 19.8539 21.9581V6.46752H19.8339Z" transform="translate(27.6261 26.9274)" fill="#FF7C00"/>
</svg>
